<mxfile host="www.draw.io" modified="2020-01-11T13:36:05.866Z" agent="Mozilla/5.0 (Windows NT 10.0; Win64; x64) AppleWebKit/537.36 (KHTML, like Gecko) Chrome/79.0.3945.79 Safari/537.36" etag="vFTwvok7ITCPvMkgPz8i" version="12.5.1" type="github" pages="3">
  <diagram id="fjN0tmlviIV-nWKf-RjJ" name="Page-1">
    <mxGraphModel dx="6540" dy="3248" grid="1" gridSize="10" guides="1" tooltips="1" connect="1" arrows="1" fold="1" page="1" pageScale="1" pageWidth="827" pageHeight="1169" math="0" shadow="0">
      <root>
        <mxCell id="0"/>
        <mxCell id="1" parent="0"/>
        <mxCell id="YWJlD6q5wf8MBtBZUTTR-1" value="" style="rounded=0;whiteSpace=wrap;html=1;labelBackgroundColor=none;fontSize=31;" parent="1" vertex="1">
          <mxGeometry x="570" y="675" width="252" height="245" as="geometry"/>
        </mxCell>
        <mxCell id="YWJlD6q5wf8MBtBZUTTR-3" style="edgeStyle=orthogonalEdgeStyle;rounded=0;orthogonalLoop=1;jettySize=auto;html=1;exitX=1;exitY=0.5;exitDx=0;exitDy=0;entryX=0;entryY=0.5;entryDx=0;entryDy=0;strokeColor=#000000;strokeWidth=10;fontSize=11;" parent="1" source="YWJlD6q5wf8MBtBZUTTR-4" target="YWJlD6q5wf8MBtBZUTTR-118" edge="1">
          <mxGeometry relative="1" as="geometry"/>
        </mxCell>
        <mxCell id="YWJlD6q5wf8MBtBZUTTR-4" value="" style="rounded=1;whiteSpace=wrap;html=1;fillColor=#A7BCD1;strokeColor=#6c8ebf;opacity=60;" parent="1" vertex="1">
          <mxGeometry x="1440" y="545" width="555" height="210" as="geometry"/>
        </mxCell>
        <mxCell id="YWJlD6q5wf8MBtBZUTTR-5" value="" style="edgeStyle=orthogonalEdgeStyle;rounded=0;orthogonalLoop=1;jettySize=auto;html=1;strokeWidth=10;entryX=0;entryY=0.5;entryDx=0;entryDy=0;" parent="1" source="YWJlD6q5wf8MBtBZUTTR-6" target="YWJlD6q5wf8MBtBZUTTR-4" edge="1">
          <mxGeometry relative="1" as="geometry">
            <mxPoint x="1430" y="650" as="targetPoint"/>
          </mxGeometry>
        </mxCell>
        <mxCell id="YWJlD6q5wf8MBtBZUTTR-6" value="" style="rounded=1;whiteSpace=wrap;html=1;fillColor=#A7BCD1;strokeColor=#6c8ebf;opacity=60;" parent="1" vertex="1">
          <mxGeometry x="1040" y="320" width="310" height="660" as="geometry"/>
        </mxCell>
        <mxCell id="YWJlD6q5wf8MBtBZUTTR-7" value="" style="shape=ellipse;fillColor=#0066CC;strokeColor=none;html=1" parent="1" vertex="1">
          <mxGeometry x="1060" y="389.99999999999994" width="20" height="20" as="geometry"/>
        </mxCell>
        <mxCell id="YWJlD6q5wf8MBtBZUTTR-8" value="" style="shape=ellipse;fillColor=#0066CC;strokeColor=none;html=1" parent="1" vertex="1">
          <mxGeometry x="1120" y="329.99999999999994" width="20" height="20" as="geometry"/>
        </mxCell>
        <mxCell id="YWJlD6q5wf8MBtBZUTTR-9" value="" style="shape=ellipse;fillColor=#0066CC;strokeColor=none;html=1" parent="1" vertex="1">
          <mxGeometry x="1170" y="389.99999999999994" width="20" height="20" as="geometry"/>
        </mxCell>
        <mxCell id="YWJlD6q5wf8MBtBZUTTR-10" value="" style="shape=ellipse;fillColor=#0066CC;strokeColor=none;html=1" parent="1" vertex="1">
          <mxGeometry x="1245" y="329.99999999999994" width="20" height="20" as="geometry"/>
        </mxCell>
        <mxCell id="YWJlD6q5wf8MBtBZUTTR-11" value="" style="shape=ellipse;fillColor=#0066CC;strokeColor=none;html=1" parent="1" vertex="1">
          <mxGeometry x="1310" y="389.99999999999994" width="20" height="20" as="geometry"/>
        </mxCell>
        <mxCell id="YWJlD6q5wf8MBtBZUTTR-12" value="" style="shape=ellipse;fillColor=#0066CC;strokeColor=none;html=1" parent="1" vertex="1">
          <mxGeometry x="1170" y="489.99999999999994" width="20" height="20" as="geometry"/>
        </mxCell>
        <mxCell id="YWJlD6q5wf8MBtBZUTTR-13" value="" style="shape=ellipse;fillColor=#0066CC;strokeColor=none;html=1" parent="1" vertex="1">
          <mxGeometry x="1100" y="540" width="20" height="20" as="geometry"/>
        </mxCell>
        <mxCell id="YWJlD6q5wf8MBtBZUTTR-14" value="" style="shape=ellipse;fillColor=#0066CC;strokeColor=none;html=1" parent="1" vertex="1">
          <mxGeometry x="1260" y="530" width="20" height="20" as="geometry"/>
        </mxCell>
        <mxCell id="YWJlD6q5wf8MBtBZUTTR-15" value="" style="shape=ellipse;fillColor=#0066CC;strokeColor=none;html=1" parent="1" vertex="1">
          <mxGeometry x="1170" y="590" width="20" height="20" as="geometry"/>
        </mxCell>
        <mxCell id="YWJlD6q5wf8MBtBZUTTR-16" value="" style="endArrow=none;html=1;fontSize=56;strokeWidth=2;fillColor=#dae8fc;strokeColor=#6c8ebf;" parent="1" source="YWJlD6q5wf8MBtBZUTTR-8" target="YWJlD6q5wf8MBtBZUTTR-7" edge="1">
          <mxGeometry width="50" height="50" relative="1" as="geometry">
            <mxPoint x="1170" y="134" as="sourcePoint"/>
            <mxPoint x="1275" y="176" as="targetPoint"/>
          </mxGeometry>
        </mxCell>
        <mxCell id="YWJlD6q5wf8MBtBZUTTR-17" value="" style="endArrow=none;html=1;fontSize=56;strokeWidth=2;fillColor=#dae8fc;strokeColor=#6c8ebf;" parent="1" source="YWJlD6q5wf8MBtBZUTTR-10" target="YWJlD6q5wf8MBtBZUTTR-8" edge="1">
          <mxGeometry width="50" height="50" relative="1" as="geometry">
            <mxPoint x="1240" y="369.99999999999994" as="sourcePoint"/>
            <mxPoint x="1100" y="409.99999999999994" as="targetPoint"/>
          </mxGeometry>
        </mxCell>
        <mxCell id="YWJlD6q5wf8MBtBZUTTR-18" value="" style="endArrow=none;html=1;fontSize=56;strokeWidth=2;fillColor=#dae8fc;strokeColor=#6c8ebf;" parent="1" source="YWJlD6q5wf8MBtBZUTTR-11" target="YWJlD6q5wf8MBtBZUTTR-10" edge="1">
          <mxGeometry width="50" height="50" relative="1" as="geometry">
            <mxPoint x="1150" y="379.99999999999994" as="sourcePoint"/>
            <mxPoint x="1110" y="419.99999999999994" as="targetPoint"/>
          </mxGeometry>
        </mxCell>
        <mxCell id="YWJlD6q5wf8MBtBZUTTR-19" value="" style="endArrow=none;html=1;fontSize=56;strokeWidth=2;fillColor=#dae8fc;strokeColor=#6c8ebf;" parent="1" source="YWJlD6q5wf8MBtBZUTTR-9" target="YWJlD6q5wf8MBtBZUTTR-10" edge="1">
          <mxGeometry width="50" height="50" relative="1" as="geometry">
            <mxPoint x="1160" y="389.99999999999994" as="sourcePoint"/>
            <mxPoint x="1120" y="429.99999999999994" as="targetPoint"/>
          </mxGeometry>
        </mxCell>
        <mxCell id="YWJlD6q5wf8MBtBZUTTR-20" value="" style="endArrow=none;html=1;fontSize=56;strokeWidth=2;fillColor=#dae8fc;strokeColor=#6c8ebf;" parent="1" source="YWJlD6q5wf8MBtBZUTTR-8" target="YWJlD6q5wf8MBtBZUTTR-9" edge="1">
          <mxGeometry width="50" height="50" relative="1" as="geometry">
            <mxPoint x="1170" y="399.99999999999994" as="sourcePoint"/>
            <mxPoint x="1130" y="439.99999999999994" as="targetPoint"/>
          </mxGeometry>
        </mxCell>
        <mxCell id="YWJlD6q5wf8MBtBZUTTR-21" value="" style="endArrow=none;html=1;fontSize=56;strokeWidth=2;fillColor=#dae8fc;strokeColor=#6c8ebf;" parent="1" source="YWJlD6q5wf8MBtBZUTTR-9" target="YWJlD6q5wf8MBtBZUTTR-12" edge="1">
          <mxGeometry width="50" height="50" relative="1" as="geometry">
            <mxPoint x="1180" y="409.99999999999994" as="sourcePoint"/>
            <mxPoint x="1140" y="449.99999999999994" as="targetPoint"/>
          </mxGeometry>
        </mxCell>
        <mxCell id="YWJlD6q5wf8MBtBZUTTR-22" value="" style="endArrow=none;html=1;fontSize=56;strokeWidth=2;fillColor=#dae8fc;strokeColor=#6c8ebf;" parent="1" source="YWJlD6q5wf8MBtBZUTTR-14" target="YWJlD6q5wf8MBtBZUTTR-12" edge="1">
          <mxGeometry width="50" height="50" relative="1" as="geometry">
            <mxPoint x="1190" y="419.99999999999994" as="sourcePoint"/>
            <mxPoint x="1150" y="459.99999999999994" as="targetPoint"/>
          </mxGeometry>
        </mxCell>
        <mxCell id="YWJlD6q5wf8MBtBZUTTR-23" value="" style="endArrow=none;html=1;fontSize=56;strokeWidth=2;fillColor=#dae8fc;strokeColor=#6c8ebf;" parent="1" source="YWJlD6q5wf8MBtBZUTTR-15" target="YWJlD6q5wf8MBtBZUTTR-14" edge="1">
          <mxGeometry width="50" height="50" relative="1" as="geometry">
            <mxPoint x="1200" y="429.99999999999994" as="sourcePoint"/>
            <mxPoint x="1160" y="469.99999999999994" as="targetPoint"/>
          </mxGeometry>
        </mxCell>
        <mxCell id="YWJlD6q5wf8MBtBZUTTR-24" value="" style="endArrow=none;html=1;fontSize=56;strokeWidth=2;fillColor=#dae8fc;strokeColor=#6c8ebf;" parent="1" source="YWJlD6q5wf8MBtBZUTTR-12" target="YWJlD6q5wf8MBtBZUTTR-13" edge="1">
          <mxGeometry width="50" height="50" relative="1" as="geometry">
            <mxPoint x="1210" y="439.99999999999994" as="sourcePoint"/>
            <mxPoint x="1170" y="479.99999999999994" as="targetPoint"/>
          </mxGeometry>
        </mxCell>
        <mxCell id="YWJlD6q5wf8MBtBZUTTR-25" value="" style="endArrow=none;html=1;fontSize=56;strokeWidth=2;fillColor=#dae8fc;strokeColor=#6c8ebf;" parent="1" source="YWJlD6q5wf8MBtBZUTTR-7" target="YWJlD6q5wf8MBtBZUTTR-13" edge="1">
          <mxGeometry width="50" height="50" relative="1" as="geometry">
            <mxPoint x="1230" y="459.99999999999994" as="sourcePoint"/>
            <mxPoint x="1190" y="499.99999999999994" as="targetPoint"/>
          </mxGeometry>
        </mxCell>
        <mxCell id="YWJlD6q5wf8MBtBZUTTR-26" value="" style="endArrow=none;html=1;fontSize=56;strokeWidth=2;fillColor=#dae8fc;strokeColor=#6c8ebf;" parent="1" source="YWJlD6q5wf8MBtBZUTTR-11" target="YWJlD6q5wf8MBtBZUTTR-14" edge="1">
          <mxGeometry width="50" height="50" relative="1" as="geometry">
            <mxPoint x="1240" y="469.99999999999994" as="sourcePoint"/>
            <mxPoint x="1200" y="509.99999999999994" as="targetPoint"/>
          </mxGeometry>
        </mxCell>
        <mxCell id="YWJlD6q5wf8MBtBZUTTR-27" value="" style="endArrow=none;html=1;fontSize=56;strokeWidth=2;fillColor=#dae8fc;strokeColor=#6c8ebf;" parent="1" source="YWJlD6q5wf8MBtBZUTTR-39" target="YWJlD6q5wf8MBtBZUTTR-38" edge="1">
          <mxGeometry width="50" height="50" relative="1" as="geometry">
            <mxPoint x="1170" y="453.99999999999994" as="sourcePoint"/>
            <mxPoint x="1275" y="495.99999999999994" as="targetPoint"/>
          </mxGeometry>
        </mxCell>
        <mxCell id="YWJlD6q5wf8MBtBZUTTR-28" value="" style="endArrow=none;html=1;fontSize=56;strokeWidth=2;fillColor=#dae8fc;strokeColor=#6c8ebf;" parent="1" source="YWJlD6q5wf8MBtBZUTTR-41" target="YWJlD6q5wf8MBtBZUTTR-39" edge="1">
          <mxGeometry width="50" height="50" relative="1" as="geometry">
            <mxPoint x="1240" y="690" as="sourcePoint"/>
            <mxPoint x="1100" y="730" as="targetPoint"/>
          </mxGeometry>
        </mxCell>
        <mxCell id="YWJlD6q5wf8MBtBZUTTR-29" value="" style="endArrow=none;html=1;fontSize=56;strokeWidth=2;fillColor=#dae8fc;strokeColor=#6c8ebf;" parent="1" source="YWJlD6q5wf8MBtBZUTTR-42" target="YWJlD6q5wf8MBtBZUTTR-41" edge="1">
          <mxGeometry width="50" height="50" relative="1" as="geometry">
            <mxPoint x="1150" y="700" as="sourcePoint"/>
            <mxPoint x="1110" y="740" as="targetPoint"/>
          </mxGeometry>
        </mxCell>
        <mxCell id="YWJlD6q5wf8MBtBZUTTR-30" value="" style="endArrow=none;html=1;fontSize=56;strokeWidth=2;fillColor=#dae8fc;strokeColor=#6c8ebf;" parent="1" source="YWJlD6q5wf8MBtBZUTTR-40" target="YWJlD6q5wf8MBtBZUTTR-41" edge="1">
          <mxGeometry width="50" height="50" relative="1" as="geometry">
            <mxPoint x="1160" y="710" as="sourcePoint"/>
            <mxPoint x="1120" y="750" as="targetPoint"/>
          </mxGeometry>
        </mxCell>
        <mxCell id="YWJlD6q5wf8MBtBZUTTR-31" value="" style="endArrow=none;html=1;fontSize=56;strokeWidth=2;fillColor=#dae8fc;strokeColor=#6c8ebf;" parent="1" source="YWJlD6q5wf8MBtBZUTTR-39" target="YWJlD6q5wf8MBtBZUTTR-40" edge="1">
          <mxGeometry width="50" height="50" relative="1" as="geometry">
            <mxPoint x="1170" y="720" as="sourcePoint"/>
            <mxPoint x="1130" y="760" as="targetPoint"/>
          </mxGeometry>
        </mxCell>
        <mxCell id="YWJlD6q5wf8MBtBZUTTR-32" value="" style="endArrow=none;html=1;fontSize=56;strokeWidth=2;fillColor=#dae8fc;strokeColor=#6c8ebf;" parent="1" source="YWJlD6q5wf8MBtBZUTTR-40" target="YWJlD6q5wf8MBtBZUTTR-43" edge="1">
          <mxGeometry width="50" height="50" relative="1" as="geometry">
            <mxPoint x="1180" y="730" as="sourcePoint"/>
            <mxPoint x="1140" y="770" as="targetPoint"/>
          </mxGeometry>
        </mxCell>
        <mxCell id="YWJlD6q5wf8MBtBZUTTR-33" value="" style="endArrow=none;html=1;fontSize=56;strokeWidth=2;fillColor=#dae8fc;strokeColor=#6c8ebf;" parent="1" source="YWJlD6q5wf8MBtBZUTTR-45" target="YWJlD6q5wf8MBtBZUTTR-43" edge="1">
          <mxGeometry width="50" height="50" relative="1" as="geometry">
            <mxPoint x="1190" y="740" as="sourcePoint"/>
            <mxPoint x="1150" y="780" as="targetPoint"/>
          </mxGeometry>
        </mxCell>
        <mxCell id="YWJlD6q5wf8MBtBZUTTR-34" value="" style="endArrow=none;html=1;fontSize=56;strokeWidth=2;fillColor=#dae8fc;strokeColor=#6c8ebf;" parent="1" source="YWJlD6q5wf8MBtBZUTTR-46" target="YWJlD6q5wf8MBtBZUTTR-45" edge="1">
          <mxGeometry width="50" height="50" relative="1" as="geometry">
            <mxPoint x="1200" y="750" as="sourcePoint"/>
            <mxPoint x="1160" y="790" as="targetPoint"/>
          </mxGeometry>
        </mxCell>
        <mxCell id="YWJlD6q5wf8MBtBZUTTR-35" value="" style="endArrow=none;html=1;fontSize=56;strokeWidth=2;fillColor=#dae8fc;strokeColor=#6c8ebf;" parent="1" source="YWJlD6q5wf8MBtBZUTTR-43" target="YWJlD6q5wf8MBtBZUTTR-44" edge="1">
          <mxGeometry width="50" height="50" relative="1" as="geometry">
            <mxPoint x="1210" y="760" as="sourcePoint"/>
            <mxPoint x="1170" y="800" as="targetPoint"/>
          </mxGeometry>
        </mxCell>
        <mxCell id="YWJlD6q5wf8MBtBZUTTR-36" value="" style="endArrow=none;html=1;fontSize=56;strokeWidth=2;fillColor=#dae8fc;strokeColor=#6c8ebf;" parent="1" source="YWJlD6q5wf8MBtBZUTTR-38" target="YWJlD6q5wf8MBtBZUTTR-44" edge="1">
          <mxGeometry width="50" height="50" relative="1" as="geometry">
            <mxPoint x="1230" y="780" as="sourcePoint"/>
            <mxPoint x="1190" y="820" as="targetPoint"/>
          </mxGeometry>
        </mxCell>
        <mxCell id="YWJlD6q5wf8MBtBZUTTR-37" value="" style="endArrow=none;html=1;fontSize=56;strokeWidth=2;fillColor=#dae8fc;strokeColor=#6c8ebf;" parent="1" source="YWJlD6q5wf8MBtBZUTTR-42" target="YWJlD6q5wf8MBtBZUTTR-45" edge="1">
          <mxGeometry width="50" height="50" relative="1" as="geometry">
            <mxPoint x="1240" y="790" as="sourcePoint"/>
            <mxPoint x="1200" y="830" as="targetPoint"/>
          </mxGeometry>
        </mxCell>
        <mxCell id="YWJlD6q5wf8MBtBZUTTR-38" value="" style="shape=ellipse;fillColor=#0066CC;strokeColor=none;html=1" parent="1" vertex="1">
          <mxGeometry x="1060" y="710" width="20" height="20" as="geometry"/>
        </mxCell>
        <mxCell id="YWJlD6q5wf8MBtBZUTTR-39" value="" style="shape=ellipse;fillColor=#0066CC;strokeColor=none;html=1" parent="1" vertex="1">
          <mxGeometry x="1120" y="650" width="20" height="20" as="geometry"/>
        </mxCell>
        <mxCell id="YWJlD6q5wf8MBtBZUTTR-40" value="" style="shape=ellipse;fillColor=#0066CC;strokeColor=none;html=1" parent="1" vertex="1">
          <mxGeometry x="1170" y="710" width="20" height="20" as="geometry"/>
        </mxCell>
        <mxCell id="YWJlD6q5wf8MBtBZUTTR-41" value="" style="shape=ellipse;fillColor=#0066CC;strokeColor=none;html=1" parent="1" vertex="1">
          <mxGeometry x="1245" y="650" width="20" height="20" as="geometry"/>
        </mxCell>
        <mxCell id="YWJlD6q5wf8MBtBZUTTR-42" value="" style="shape=ellipse;fillColor=#0066CC;strokeColor=none;html=1" parent="1" vertex="1">
          <mxGeometry x="1310" y="710" width="20" height="20" as="geometry"/>
        </mxCell>
        <mxCell id="YWJlD6q5wf8MBtBZUTTR-43" value="" style="shape=ellipse;fillColor=#0066CC;strokeColor=none;html=1" parent="1" vertex="1">
          <mxGeometry x="1170" y="810" width="20" height="20" as="geometry"/>
        </mxCell>
        <mxCell id="YWJlD6q5wf8MBtBZUTTR-44" value="" style="shape=ellipse;fillColor=#0066CC;strokeColor=none;html=1" parent="1" vertex="1">
          <mxGeometry x="1100" y="860" width="20" height="20" as="geometry"/>
        </mxCell>
        <mxCell id="YWJlD6q5wf8MBtBZUTTR-45" value="" style="shape=ellipse;fillColor=#0066CC;strokeColor=none;html=1" parent="1" vertex="1">
          <mxGeometry x="1260" y="850" width="20" height="20" as="geometry"/>
        </mxCell>
        <mxCell id="YWJlD6q5wf8MBtBZUTTR-46" value="" style="shape=ellipse;fillColor=#0066CC;strokeColor=none;html=1" parent="1" vertex="1">
          <mxGeometry x="1170" y="910" width="20" height="20" as="geometry"/>
        </mxCell>
        <mxCell id="YWJlD6q5wf8MBtBZUTTR-47" value="" style="shape=ellipse;fillColor=#0066CC;strokeColor=none;html=1" parent="1" vertex="1">
          <mxGeometry x="1467.5" y="595" width="20" height="20" as="geometry"/>
        </mxCell>
        <mxCell id="YWJlD6q5wf8MBtBZUTTR-48" value="" style="shape=ellipse;fillColor=#0066CC;strokeColor=none;html=1" parent="1" vertex="1">
          <mxGeometry x="1507.5" y="595" width="20" height="20" as="geometry"/>
        </mxCell>
        <mxCell id="YWJlD6q5wf8MBtBZUTTR-49" value="" style="shape=ellipse;fillColor=#0066CC;strokeColor=none;html=1" parent="1" vertex="1">
          <mxGeometry x="1547.5" y="595" width="20" height="20" as="geometry"/>
        </mxCell>
        <mxCell id="YWJlD6q5wf8MBtBZUTTR-50" value="" style="shape=ellipse;fillColor=#0066CC;strokeColor=none;html=1" parent="1" vertex="1">
          <mxGeometry x="1587.5" y="595" width="20" height="20" as="geometry"/>
        </mxCell>
        <mxCell id="YWJlD6q5wf8MBtBZUTTR-51" value="" style="shape=ellipse;fillColor=#0066CC;strokeColor=none;html=1" parent="1" vertex="1">
          <mxGeometry x="1627.5" y="595" width="20" height="20" as="geometry"/>
        </mxCell>
        <mxCell id="YWJlD6q5wf8MBtBZUTTR-52" value="" style="shape=ellipse;fillColor=#0066CC;strokeColor=none;html=1" parent="1" vertex="1">
          <mxGeometry x="1667.5" y="595" width="20" height="20" as="geometry"/>
        </mxCell>
        <mxCell id="YWJlD6q5wf8MBtBZUTTR-53" value="" style="shape=ellipse;fillColor=#0066CC;strokeColor=none;html=1" parent="1" vertex="1">
          <mxGeometry x="1467.5" y="635" width="20" height="20" as="geometry"/>
        </mxCell>
        <mxCell id="YWJlD6q5wf8MBtBZUTTR-54" value="" style="shape=ellipse;fillColor=#0066CC;strokeColor=none;html=1" parent="1" vertex="1">
          <mxGeometry x="1507.5" y="635" width="20" height="20" as="geometry"/>
        </mxCell>
        <mxCell id="YWJlD6q5wf8MBtBZUTTR-55" value="" style="shape=ellipse;fillColor=#0066CC;strokeColor=none;html=1" parent="1" vertex="1">
          <mxGeometry x="1547.5" y="635" width="20" height="20" as="geometry"/>
        </mxCell>
        <mxCell id="YWJlD6q5wf8MBtBZUTTR-56" value="" style="shape=ellipse;fillColor=#0066CC;strokeColor=none;html=1" parent="1" vertex="1">
          <mxGeometry x="1587.5" y="635" width="20" height="20" as="geometry"/>
        </mxCell>
        <mxCell id="YWJlD6q5wf8MBtBZUTTR-57" value="" style="shape=ellipse;fillColor=#0066CC;strokeColor=none;html=1" parent="1" vertex="1">
          <mxGeometry x="1627.5" y="635" width="20" height="20" as="geometry"/>
        </mxCell>
        <mxCell id="YWJlD6q5wf8MBtBZUTTR-58" value="" style="shape=ellipse;fillColor=#0066CC;strokeColor=none;html=1" parent="1" vertex="1">
          <mxGeometry x="1667.5" y="635" width="20" height="20" as="geometry"/>
        </mxCell>
        <mxCell id="YWJlD6q5wf8MBtBZUTTR-59" value="" style="shape=ellipse;fillColor=#0066CC;strokeColor=none;html=1" parent="1" vertex="1">
          <mxGeometry x="1467.5" y="675" width="20" height="20" as="geometry"/>
        </mxCell>
        <mxCell id="YWJlD6q5wf8MBtBZUTTR-60" value="" style="shape=ellipse;fillColor=#0066CC;strokeColor=none;html=1" parent="1" vertex="1">
          <mxGeometry x="1507.5" y="675" width="20" height="20" as="geometry"/>
        </mxCell>
        <mxCell id="YWJlD6q5wf8MBtBZUTTR-61" value="" style="shape=ellipse;fillColor=#0066CC;strokeColor=none;html=1" parent="1" vertex="1">
          <mxGeometry x="1547.5" y="675" width="20" height="20" as="geometry"/>
        </mxCell>
        <mxCell id="YWJlD6q5wf8MBtBZUTTR-62" value="" style="shape=ellipse;fillColor=#0066CC;strokeColor=none;html=1" parent="1" vertex="1">
          <mxGeometry x="1587.5" y="675" width="20" height="20" as="geometry"/>
        </mxCell>
        <mxCell id="YWJlD6q5wf8MBtBZUTTR-63" value="" style="shape=ellipse;fillColor=#0066CC;strokeColor=none;html=1" parent="1" vertex="1">
          <mxGeometry x="1627.5" y="675" width="20" height="20" as="geometry"/>
        </mxCell>
        <mxCell id="YWJlD6q5wf8MBtBZUTTR-64" value="" style="shape=ellipse;fillColor=#0066CC;strokeColor=none;html=1" parent="1" vertex="1">
          <mxGeometry x="1667.5" y="675" width="20" height="20" as="geometry"/>
        </mxCell>
        <mxCell id="YWJlD6q5wf8MBtBZUTTR-65" value="" style="shape=ellipse;fillColor=#0066CC;strokeColor=none;html=1" parent="1" vertex="1">
          <mxGeometry x="1707.5" y="595" width="20" height="20" as="geometry"/>
        </mxCell>
        <mxCell id="YWJlD6q5wf8MBtBZUTTR-66" value="" style="shape=ellipse;fillColor=#0066CC;strokeColor=none;html=1" parent="1" vertex="1">
          <mxGeometry x="1747.5" y="595" width="20" height="20" as="geometry"/>
        </mxCell>
        <mxCell id="YWJlD6q5wf8MBtBZUTTR-67" value="" style="shape=ellipse;fillColor=#0066CC;strokeColor=none;html=1" parent="1" vertex="1">
          <mxGeometry x="1787.5" y="595" width="20" height="20" as="geometry"/>
        </mxCell>
        <mxCell id="YWJlD6q5wf8MBtBZUTTR-68" value="" style="shape=ellipse;fillColor=#0066CC;strokeColor=none;html=1" parent="1" vertex="1">
          <mxGeometry x="1827.5" y="595" width="20" height="20" as="geometry"/>
        </mxCell>
        <mxCell id="YWJlD6q5wf8MBtBZUTTR-69" value="" style="shape=ellipse;fillColor=#0066CC;strokeColor=none;html=1" parent="1" vertex="1">
          <mxGeometry x="1867.5" y="595" width="20" height="20" as="geometry"/>
        </mxCell>
        <mxCell id="YWJlD6q5wf8MBtBZUTTR-70" value="" style="shape=ellipse;fillColor=#0066CC;strokeColor=none;html=1" parent="1" vertex="1">
          <mxGeometry x="1907.5" y="595" width="20" height="20" as="geometry"/>
        </mxCell>
        <mxCell id="YWJlD6q5wf8MBtBZUTTR-71" value="" style="shape=ellipse;fillColor=#0066CC;strokeColor=none;html=1" parent="1" vertex="1">
          <mxGeometry x="1707.5" y="635" width="20" height="20" as="geometry"/>
        </mxCell>
        <mxCell id="YWJlD6q5wf8MBtBZUTTR-72" value="" style="shape=ellipse;fillColor=#0066CC;strokeColor=none;html=1" parent="1" vertex="1">
          <mxGeometry x="1747.5" y="635" width="20" height="20" as="geometry"/>
        </mxCell>
        <mxCell id="YWJlD6q5wf8MBtBZUTTR-73" value="" style="shape=ellipse;fillColor=#0066CC;strokeColor=none;html=1" parent="1" vertex="1">
          <mxGeometry x="1787.5" y="635" width="20" height="20" as="geometry"/>
        </mxCell>
        <mxCell id="YWJlD6q5wf8MBtBZUTTR-74" value="" style="shape=ellipse;fillColor=#0066CC;strokeColor=none;html=1" parent="1" vertex="1">
          <mxGeometry x="1827.5" y="635" width="20" height="20" as="geometry"/>
        </mxCell>
        <mxCell id="YWJlD6q5wf8MBtBZUTTR-75" value="" style="shape=ellipse;fillColor=#0066CC;strokeColor=none;html=1" parent="1" vertex="1">
          <mxGeometry x="1867.5" y="635" width="20" height="20" as="geometry"/>
        </mxCell>
        <mxCell id="YWJlD6q5wf8MBtBZUTTR-76" value="" style="shape=ellipse;fillColor=#0066CC;strokeColor=none;html=1" parent="1" vertex="1">
          <mxGeometry x="1907.5" y="635" width="20" height="20" as="geometry"/>
        </mxCell>
        <mxCell id="YWJlD6q5wf8MBtBZUTTR-77" value="" style="shape=ellipse;fillColor=#0066CC;strokeColor=none;html=1" parent="1" vertex="1">
          <mxGeometry x="1707.5" y="675" width="20" height="20" as="geometry"/>
        </mxCell>
        <mxCell id="YWJlD6q5wf8MBtBZUTTR-78" value="" style="shape=ellipse;fillColor=#0066CC;strokeColor=none;html=1" parent="1" vertex="1">
          <mxGeometry x="1747.5" y="675" width="20" height="20" as="geometry"/>
        </mxCell>
        <mxCell id="YWJlD6q5wf8MBtBZUTTR-79" value="" style="shape=ellipse;fillColor=#0066CC;strokeColor=none;html=1" parent="1" vertex="1">
          <mxGeometry x="1787.5" y="675" width="20" height="20" as="geometry"/>
        </mxCell>
        <mxCell id="YWJlD6q5wf8MBtBZUTTR-80" value="" style="shape=ellipse;fillColor=#0066CC;strokeColor=none;html=1" parent="1" vertex="1">
          <mxGeometry x="1827.5" y="675" width="20" height="20" as="geometry"/>
        </mxCell>
        <mxCell id="YWJlD6q5wf8MBtBZUTTR-81" value="" style="shape=ellipse;fillColor=#0066CC;strokeColor=none;html=1" parent="1" vertex="1">
          <mxGeometry x="1867.5" y="675" width="20" height="20" as="geometry"/>
        </mxCell>
        <mxCell id="YWJlD6q5wf8MBtBZUTTR-82" value="" style="shape=ellipse;fillColor=#0066CC;strokeColor=none;html=1" parent="1" vertex="1">
          <mxGeometry x="1907.5" y="675" width="20" height="20" as="geometry"/>
        </mxCell>
        <mxCell id="YWJlD6q5wf8MBtBZUTTR-83" value="" style="endArrow=classic;html=1;strokeWidth=3;fillColor=#d5e8d4;strokeColor=#00CC00;" parent="1" edge="1">
          <mxGeometry width="50" height="50" relative="1" as="geometry">
            <mxPoint x="1957.5" y="595" as="sourcePoint"/>
            <mxPoint x="1957.5" y="705" as="targetPoint"/>
          </mxGeometry>
        </mxCell>
        <mxCell id="YWJlD6q5wf8MBtBZUTTR-84" value="temporal" style="text;html=1;align=center;verticalAlign=middle;resizable=0;points=[];;horizontal=0;rotation=-180;fontSize=21;rounded=1;strokeColor=#6c8ebf;fillColor=#A7BCD1;opacity=60;labelBackgroundColor=#67AB9F;labelBorderColor=none;" parent="YWJlD6q5wf8MBtBZUTTR-83" vertex="1" connectable="0">
          <mxGeometry x="-0.3775" y="1" relative="1" as="geometry">
            <mxPoint y="15.52" as="offset"/>
          </mxGeometry>
        </mxCell>
        <mxCell id="YWJlD6q5wf8MBtBZUTTR-85" value="" style="rounded=0;whiteSpace=wrap;html=1;labelBackgroundColor=none;fillColor=#f8cecc;fontSize=18;opacity=60;strokeColor=#b85450;" parent="1" vertex="1">
          <mxGeometry x="1462.5" y="555" width="30" height="100" as="geometry"/>
        </mxCell>
        <mxCell id="YWJlD6q5wf8MBtBZUTTR-86" value="" style="shape=ellipse;html=1" parent="1" vertex="1">
          <mxGeometry x="1467.5" y="555" width="20" height="20" as="geometry"/>
        </mxCell>
        <mxCell id="YWJlD6q5wf8MBtBZUTTR-87" value="" style="shape=ellipse;html=1" parent="1" vertex="1">
          <mxGeometry x="1507.5" y="555" width="20" height="20" as="geometry"/>
        </mxCell>
        <mxCell id="YWJlD6q5wf8MBtBZUTTR-88" value="" style="shape=ellipse;html=1" parent="1" vertex="1">
          <mxGeometry x="1547.5" y="555" width="20" height="20" as="geometry"/>
        </mxCell>
        <mxCell id="YWJlD6q5wf8MBtBZUTTR-89" value="" style="shape=ellipse;html=1" parent="1" vertex="1">
          <mxGeometry x="1587.5" y="555" width="20" height="20" as="geometry"/>
        </mxCell>
        <mxCell id="YWJlD6q5wf8MBtBZUTTR-90" value="" style="shape=ellipse;html=1" parent="1" vertex="1">
          <mxGeometry x="1627.5" y="555" width="20" height="20" as="geometry"/>
        </mxCell>
        <mxCell id="YWJlD6q5wf8MBtBZUTTR-91" value="" style="shape=ellipse;html=1" parent="1" vertex="1">
          <mxGeometry x="1667.5" y="555" width="20" height="20" as="geometry"/>
        </mxCell>
        <mxCell id="YWJlD6q5wf8MBtBZUTTR-92" value="" style="shape=ellipse;html=1" parent="1" vertex="1">
          <mxGeometry x="1707.5" y="555" width="20" height="20" as="geometry"/>
        </mxCell>
        <mxCell id="YWJlD6q5wf8MBtBZUTTR-93" value="" style="shape=ellipse;html=1" parent="1" vertex="1">
          <mxGeometry x="1747.5" y="555" width="20" height="20" as="geometry"/>
        </mxCell>
        <mxCell id="YWJlD6q5wf8MBtBZUTTR-94" value="" style="shape=ellipse;html=1" parent="1" vertex="1">
          <mxGeometry x="1787.5" y="555" width="20" height="20" as="geometry"/>
        </mxCell>
        <mxCell id="YWJlD6q5wf8MBtBZUTTR-95" value="" style="shape=ellipse;html=1" parent="1" vertex="1">
          <mxGeometry x="1827.5" y="555" width="20" height="20" as="geometry"/>
        </mxCell>
        <mxCell id="YWJlD6q5wf8MBtBZUTTR-96" value="" style="shape=ellipse;html=1" parent="1" vertex="1">
          <mxGeometry x="1867.5" y="555" width="20" height="20" as="geometry"/>
        </mxCell>
        <mxCell id="YWJlD6q5wf8MBtBZUTTR-97" value="" style="shape=ellipse;html=1" parent="1" vertex="1">
          <mxGeometry x="1907.5" y="555" width="20" height="20" as="geometry"/>
        </mxCell>
        <mxCell id="YWJlD6q5wf8MBtBZUTTR-98" value="" style="shape=ellipse;html=1" parent="1" vertex="1">
          <mxGeometry x="1467.5" y="715" width="20" height="20" as="geometry"/>
        </mxCell>
        <mxCell id="YWJlD6q5wf8MBtBZUTTR-99" value="" style="shape=ellipse;html=1" parent="1" vertex="1">
          <mxGeometry x="1507.5" y="715" width="20" height="20" as="geometry"/>
        </mxCell>
        <mxCell id="YWJlD6q5wf8MBtBZUTTR-100" value="" style="shape=ellipse;html=1" parent="1" vertex="1">
          <mxGeometry x="1547.5" y="715" width="20" height="20" as="geometry"/>
        </mxCell>
        <mxCell id="YWJlD6q5wf8MBtBZUTTR-101" value="" style="shape=ellipse;html=1" parent="1" vertex="1">
          <mxGeometry x="1587.5" y="715" width="20" height="20" as="geometry"/>
        </mxCell>
        <mxCell id="YWJlD6q5wf8MBtBZUTTR-102" value="" style="shape=ellipse;html=1" parent="1" vertex="1">
          <mxGeometry x="1627.5" y="715" width="20" height="20" as="geometry"/>
        </mxCell>
        <mxCell id="YWJlD6q5wf8MBtBZUTTR-103" value="" style="shape=ellipse;html=1" parent="1" vertex="1">
          <mxGeometry x="1667.5" y="715" width="20" height="20" as="geometry"/>
        </mxCell>
        <mxCell id="YWJlD6q5wf8MBtBZUTTR-104" value="" style="shape=ellipse;html=1" parent="1" vertex="1">
          <mxGeometry x="1707.5" y="715" width="20" height="20" as="geometry"/>
        </mxCell>
        <mxCell id="YWJlD6q5wf8MBtBZUTTR-105" value="" style="shape=ellipse;html=1" parent="1" vertex="1">
          <mxGeometry x="1747.5" y="715" width="20" height="20" as="geometry"/>
        </mxCell>
        <mxCell id="YWJlD6q5wf8MBtBZUTTR-106" value="" style="shape=ellipse;html=1" parent="1" vertex="1">
          <mxGeometry x="1787.5" y="715" width="20" height="20" as="geometry"/>
        </mxCell>
        <mxCell id="YWJlD6q5wf8MBtBZUTTR-107" value="" style="shape=ellipse;html=1" parent="1" vertex="1">
          <mxGeometry x="1827.5" y="715" width="20" height="20" as="geometry"/>
        </mxCell>
        <mxCell id="YWJlD6q5wf8MBtBZUTTR-108" value="" style="shape=ellipse;html=1" parent="1" vertex="1">
          <mxGeometry x="1867.5" y="715" width="20" height="20" as="geometry"/>
        </mxCell>
        <mxCell id="YWJlD6q5wf8MBtBZUTTR-109" value="" style="shape=ellipse;html=1" parent="1" vertex="1">
          <mxGeometry x="1907.5" y="715" width="20" height="20" as="geometry"/>
        </mxCell>
        <mxCell id="YWJlD6q5wf8MBtBZUTTR-110" value="" style="rounded=0;whiteSpace=wrap;html=1;labelBackgroundColor=none;fillColor=#f8cecc;fontSize=18;opacity=60;strokeColor=#b85450;" parent="1" vertex="1">
          <mxGeometry x="1542.5" y="595" width="30" height="100" as="geometry"/>
        </mxCell>
        <mxCell id="YWJlD6q5wf8MBtBZUTTR-111" value="" style="rounded=0;whiteSpace=wrap;html=1;labelBackgroundColor=none;fillColor=#f8cecc;fontSize=18;opacity=60;strokeColor=#b85450;" parent="1" vertex="1">
          <mxGeometry x="1662.5" y="635" width="30" height="100" as="geometry"/>
        </mxCell>
        <mxCell id="YWJlD6q5wf8MBtBZUTTR-112" value="Pad" style="text;html=1;strokeColor=none;fillColor=none;align=center;verticalAlign=middle;whiteSpace=wrap;rounded=0;labelBackgroundColor=none;fontSize=18;opacity=60;" parent="1" vertex="1">
          <mxGeometry x="1937.5" y="555" width="40" height="20" as="geometry"/>
        </mxCell>
        <mxCell id="YWJlD6q5wf8MBtBZUTTR-113" value="Pad" style="text;html=1;strokeColor=none;fillColor=none;align=center;verticalAlign=middle;whiteSpace=wrap;rounded=0;labelBackgroundColor=none;fontSize=18;opacity=60;" parent="1" vertex="1">
          <mxGeometry x="1937.5" y="715" width="40" height="20" as="geometry"/>
        </mxCell>
        <mxCell id="YWJlD6q5wf8MBtBZUTTR-114" value="GCN" style="text;html=1;strokeColor=none;fillColor=none;align=center;verticalAlign=middle;whiteSpace=wrap;rounded=0;labelBackgroundColor=#FFFFFF;fontSize=77;opacity=60;" parent="1" vertex="1">
          <mxGeometry x="1055" y="220" width="280" height="90" as="geometry"/>
        </mxCell>
        <mxCell id="YWJlD6q5wf8MBtBZUTTR-115" value="TCN" style="text;html=1;strokeColor=none;fillColor=none;align=center;verticalAlign=middle;whiteSpace=wrap;rounded=0;labelBackgroundColor=#FFFFFF;fontSize=77;opacity=60;" parent="1" vertex="1">
          <mxGeometry x="1567.5" y="220" width="280" height="90" as="geometry"/>
        </mxCell>
        <mxCell id="YWJlD6q5wf8MBtBZUTTR-116" value="" style="rounded=1;whiteSpace=wrap;html=1;fillColor=#A7BCD1;strokeColor=#6c8ebf;opacity=60;" parent="1" vertex="1">
          <mxGeometry x="2520" y="545" width="555" height="210" as="geometry"/>
        </mxCell>
        <mxCell id="YWJlD6q5wf8MBtBZUTTR-117" value="" style="edgeStyle=orthogonalEdgeStyle;rounded=0;orthogonalLoop=1;jettySize=auto;html=1;strokeWidth=10;entryX=0;entryY=0.5;entryDx=0;entryDy=0;" parent="1" source="YWJlD6q5wf8MBtBZUTTR-118" target="YWJlD6q5wf8MBtBZUTTR-116" edge="1">
          <mxGeometry relative="1" as="geometry">
            <mxPoint x="2510" y="650" as="targetPoint"/>
          </mxGeometry>
        </mxCell>
        <mxCell id="YWJlD6q5wf8MBtBZUTTR-118" value="" style="rounded=1;whiteSpace=wrap;html=1;fillColor=#A7BCD1;strokeColor=#6c8ebf;opacity=60;" parent="1" vertex="1">
          <mxGeometry x="2100" y="320" width="310" height="660" as="geometry"/>
        </mxCell>
        <mxCell id="YWJlD6q5wf8MBtBZUTTR-119" value="" style="shape=ellipse;fillColor=#0066CC;strokeColor=none;html=1" parent="1" vertex="1">
          <mxGeometry x="2120" y="389.99999999999994" width="20" height="20" as="geometry"/>
        </mxCell>
        <mxCell id="YWJlD6q5wf8MBtBZUTTR-120" value="" style="shape=ellipse;fillColor=#0066CC;strokeColor=none;html=1" parent="1" vertex="1">
          <mxGeometry x="2180" y="329.99999999999994" width="20" height="20" as="geometry"/>
        </mxCell>
        <mxCell id="YWJlD6q5wf8MBtBZUTTR-121" value="" style="shape=ellipse;fillColor=#0066CC;strokeColor=none;html=1" parent="1" vertex="1">
          <mxGeometry x="2230" y="389.99999999999994" width="20" height="20" as="geometry"/>
        </mxCell>
        <mxCell id="YWJlD6q5wf8MBtBZUTTR-122" value="" style="shape=ellipse;fillColor=#0066CC;strokeColor=none;html=1" parent="1" vertex="1">
          <mxGeometry x="2305" y="329.99999999999994" width="20" height="20" as="geometry"/>
        </mxCell>
        <mxCell id="YWJlD6q5wf8MBtBZUTTR-123" value="" style="shape=ellipse;fillColor=#0066CC;strokeColor=none;html=1" parent="1" vertex="1">
          <mxGeometry x="2370" y="389.99999999999994" width="20" height="20" as="geometry"/>
        </mxCell>
        <mxCell id="YWJlD6q5wf8MBtBZUTTR-124" value="" style="shape=ellipse;fillColor=#0066CC;strokeColor=none;html=1" parent="1" vertex="1">
          <mxGeometry x="2230" y="489.99999999999994" width="20" height="20" as="geometry"/>
        </mxCell>
        <mxCell id="YWJlD6q5wf8MBtBZUTTR-125" value="" style="shape=ellipse;fillColor=#0066CC;strokeColor=none;html=1" parent="1" vertex="1">
          <mxGeometry x="2160" y="540" width="20" height="20" as="geometry"/>
        </mxCell>
        <mxCell id="YWJlD6q5wf8MBtBZUTTR-126" value="" style="shape=ellipse;fillColor=#0066CC;strokeColor=none;html=1" parent="1" vertex="1">
          <mxGeometry x="2320" y="530" width="20" height="20" as="geometry"/>
        </mxCell>
        <mxCell id="YWJlD6q5wf8MBtBZUTTR-127" value="" style="shape=ellipse;fillColor=#0066CC;strokeColor=none;html=1" parent="1" vertex="1">
          <mxGeometry x="2230" y="590" width="20" height="20" as="geometry"/>
        </mxCell>
        <mxCell id="YWJlD6q5wf8MBtBZUTTR-128" value="" style="endArrow=none;html=1;fontSize=56;strokeWidth=2;fillColor=#dae8fc;strokeColor=#6c8ebf;" parent="1" source="YWJlD6q5wf8MBtBZUTTR-120" target="YWJlD6q5wf8MBtBZUTTR-119" edge="1">
          <mxGeometry width="50" height="50" relative="1" as="geometry">
            <mxPoint x="2230" y="134" as="sourcePoint"/>
            <mxPoint x="2335" y="176" as="targetPoint"/>
          </mxGeometry>
        </mxCell>
        <mxCell id="YWJlD6q5wf8MBtBZUTTR-129" value="" style="endArrow=none;html=1;fontSize=56;strokeWidth=2;fillColor=#dae8fc;strokeColor=#6c8ebf;" parent="1" source="YWJlD6q5wf8MBtBZUTTR-122" target="YWJlD6q5wf8MBtBZUTTR-120" edge="1">
          <mxGeometry width="50" height="50" relative="1" as="geometry">
            <mxPoint x="2300" y="369.99999999999994" as="sourcePoint"/>
            <mxPoint x="2160" y="409.99999999999994" as="targetPoint"/>
          </mxGeometry>
        </mxCell>
        <mxCell id="YWJlD6q5wf8MBtBZUTTR-130" value="" style="endArrow=none;html=1;fontSize=56;strokeWidth=2;fillColor=#dae8fc;strokeColor=#6c8ebf;" parent="1" source="YWJlD6q5wf8MBtBZUTTR-123" target="YWJlD6q5wf8MBtBZUTTR-122" edge="1">
          <mxGeometry width="50" height="50" relative="1" as="geometry">
            <mxPoint x="2210" y="379.99999999999994" as="sourcePoint"/>
            <mxPoint x="2170" y="419.99999999999994" as="targetPoint"/>
          </mxGeometry>
        </mxCell>
        <mxCell id="YWJlD6q5wf8MBtBZUTTR-131" value="" style="endArrow=none;html=1;fontSize=56;strokeWidth=2;fillColor=#dae8fc;strokeColor=#6c8ebf;" parent="1" source="YWJlD6q5wf8MBtBZUTTR-121" target="YWJlD6q5wf8MBtBZUTTR-122" edge="1">
          <mxGeometry width="50" height="50" relative="1" as="geometry">
            <mxPoint x="2220" y="389.99999999999994" as="sourcePoint"/>
            <mxPoint x="2180" y="429.99999999999994" as="targetPoint"/>
          </mxGeometry>
        </mxCell>
        <mxCell id="YWJlD6q5wf8MBtBZUTTR-132" value="" style="endArrow=none;html=1;fontSize=56;strokeWidth=2;fillColor=#dae8fc;strokeColor=#6c8ebf;" parent="1" source="YWJlD6q5wf8MBtBZUTTR-120" target="YWJlD6q5wf8MBtBZUTTR-121" edge="1">
          <mxGeometry width="50" height="50" relative="1" as="geometry">
            <mxPoint x="2230" y="399.99999999999994" as="sourcePoint"/>
            <mxPoint x="2190" y="439.99999999999994" as="targetPoint"/>
          </mxGeometry>
        </mxCell>
        <mxCell id="YWJlD6q5wf8MBtBZUTTR-133" value="" style="endArrow=none;html=1;fontSize=56;strokeWidth=2;fillColor=#dae8fc;strokeColor=#6c8ebf;" parent="1" source="YWJlD6q5wf8MBtBZUTTR-121" target="YWJlD6q5wf8MBtBZUTTR-124" edge="1">
          <mxGeometry width="50" height="50" relative="1" as="geometry">
            <mxPoint x="2240" y="409.99999999999994" as="sourcePoint"/>
            <mxPoint x="2200" y="449.99999999999994" as="targetPoint"/>
          </mxGeometry>
        </mxCell>
        <mxCell id="YWJlD6q5wf8MBtBZUTTR-134" value="" style="endArrow=none;html=1;fontSize=56;strokeWidth=2;fillColor=#dae8fc;strokeColor=#6c8ebf;" parent="1" source="YWJlD6q5wf8MBtBZUTTR-126" target="YWJlD6q5wf8MBtBZUTTR-124" edge="1">
          <mxGeometry width="50" height="50" relative="1" as="geometry">
            <mxPoint x="2250" y="419.99999999999994" as="sourcePoint"/>
            <mxPoint x="2210" y="459.99999999999994" as="targetPoint"/>
          </mxGeometry>
        </mxCell>
        <mxCell id="YWJlD6q5wf8MBtBZUTTR-135" value="" style="endArrow=none;html=1;fontSize=56;strokeWidth=2;fillColor=#dae8fc;strokeColor=#6c8ebf;" parent="1" source="YWJlD6q5wf8MBtBZUTTR-127" target="YWJlD6q5wf8MBtBZUTTR-126" edge="1">
          <mxGeometry width="50" height="50" relative="1" as="geometry">
            <mxPoint x="2260" y="429.99999999999994" as="sourcePoint"/>
            <mxPoint x="2220" y="469.99999999999994" as="targetPoint"/>
          </mxGeometry>
        </mxCell>
        <mxCell id="YWJlD6q5wf8MBtBZUTTR-136" value="" style="endArrow=none;html=1;fontSize=56;strokeWidth=2;fillColor=#dae8fc;strokeColor=#6c8ebf;" parent="1" source="YWJlD6q5wf8MBtBZUTTR-124" target="YWJlD6q5wf8MBtBZUTTR-125" edge="1">
          <mxGeometry width="50" height="50" relative="1" as="geometry">
            <mxPoint x="2270" y="439.99999999999994" as="sourcePoint"/>
            <mxPoint x="2230" y="479.99999999999994" as="targetPoint"/>
          </mxGeometry>
        </mxCell>
        <mxCell id="YWJlD6q5wf8MBtBZUTTR-137" value="" style="endArrow=none;html=1;fontSize=56;strokeWidth=2;fillColor=#dae8fc;strokeColor=#6c8ebf;" parent="1" source="YWJlD6q5wf8MBtBZUTTR-119" target="YWJlD6q5wf8MBtBZUTTR-125" edge="1">
          <mxGeometry width="50" height="50" relative="1" as="geometry">
            <mxPoint x="2290" y="459.99999999999994" as="sourcePoint"/>
            <mxPoint x="2250" y="499.99999999999994" as="targetPoint"/>
          </mxGeometry>
        </mxCell>
        <mxCell id="YWJlD6q5wf8MBtBZUTTR-138" value="" style="endArrow=none;html=1;fontSize=56;strokeWidth=2;fillColor=#dae8fc;strokeColor=#6c8ebf;" parent="1" source="YWJlD6q5wf8MBtBZUTTR-123" target="YWJlD6q5wf8MBtBZUTTR-126" edge="1">
          <mxGeometry width="50" height="50" relative="1" as="geometry">
            <mxPoint x="2300" y="469.99999999999994" as="sourcePoint"/>
            <mxPoint x="2260" y="510" as="targetPoint"/>
          </mxGeometry>
        </mxCell>
        <mxCell id="YWJlD6q5wf8MBtBZUTTR-139" value="" style="endArrow=none;html=1;fontSize=56;strokeWidth=2;fillColor=#dae8fc;strokeColor=#6c8ebf;" parent="1" source="YWJlD6q5wf8MBtBZUTTR-151" target="YWJlD6q5wf8MBtBZUTTR-150" edge="1">
          <mxGeometry width="50" height="50" relative="1" as="geometry">
            <mxPoint x="2230" y="453.99999999999994" as="sourcePoint"/>
            <mxPoint x="2335" y="495.99999999999994" as="targetPoint"/>
          </mxGeometry>
        </mxCell>
        <mxCell id="YWJlD6q5wf8MBtBZUTTR-140" value="" style="endArrow=none;html=1;fontSize=56;strokeWidth=2;fillColor=#dae8fc;strokeColor=#6c8ebf;" parent="1" source="YWJlD6q5wf8MBtBZUTTR-153" target="YWJlD6q5wf8MBtBZUTTR-151" edge="1">
          <mxGeometry width="50" height="50" relative="1" as="geometry">
            <mxPoint x="2300" y="690" as="sourcePoint"/>
            <mxPoint x="2160" y="730" as="targetPoint"/>
          </mxGeometry>
        </mxCell>
        <mxCell id="YWJlD6q5wf8MBtBZUTTR-141" value="" style="endArrow=none;html=1;fontSize=56;strokeWidth=2;fillColor=#dae8fc;strokeColor=#6c8ebf;" parent="1" source="YWJlD6q5wf8MBtBZUTTR-154" target="YWJlD6q5wf8MBtBZUTTR-153" edge="1">
          <mxGeometry width="50" height="50" relative="1" as="geometry">
            <mxPoint x="2210" y="700" as="sourcePoint"/>
            <mxPoint x="2170" y="740" as="targetPoint"/>
          </mxGeometry>
        </mxCell>
        <mxCell id="YWJlD6q5wf8MBtBZUTTR-142" value="" style="endArrow=none;html=1;fontSize=56;strokeWidth=2;fillColor=#dae8fc;strokeColor=#6c8ebf;" parent="1" source="YWJlD6q5wf8MBtBZUTTR-152" target="YWJlD6q5wf8MBtBZUTTR-153" edge="1">
          <mxGeometry width="50" height="50" relative="1" as="geometry">
            <mxPoint x="2220" y="710" as="sourcePoint"/>
            <mxPoint x="2180" y="750" as="targetPoint"/>
          </mxGeometry>
        </mxCell>
        <mxCell id="YWJlD6q5wf8MBtBZUTTR-143" value="" style="endArrow=none;html=1;fontSize=56;strokeWidth=2;fillColor=#dae8fc;strokeColor=#6c8ebf;" parent="1" source="YWJlD6q5wf8MBtBZUTTR-151" target="YWJlD6q5wf8MBtBZUTTR-152" edge="1">
          <mxGeometry width="50" height="50" relative="1" as="geometry">
            <mxPoint x="2230" y="720" as="sourcePoint"/>
            <mxPoint x="2190" y="760" as="targetPoint"/>
          </mxGeometry>
        </mxCell>
        <mxCell id="YWJlD6q5wf8MBtBZUTTR-144" value="" style="endArrow=none;html=1;fontSize=56;strokeWidth=2;fillColor=#dae8fc;strokeColor=#6c8ebf;" parent="1" source="YWJlD6q5wf8MBtBZUTTR-152" target="YWJlD6q5wf8MBtBZUTTR-155" edge="1">
          <mxGeometry width="50" height="50" relative="1" as="geometry">
            <mxPoint x="2240" y="730" as="sourcePoint"/>
            <mxPoint x="2200" y="770" as="targetPoint"/>
          </mxGeometry>
        </mxCell>
        <mxCell id="YWJlD6q5wf8MBtBZUTTR-145" value="" style="endArrow=none;html=1;fontSize=56;strokeWidth=2;fillColor=#dae8fc;strokeColor=#6c8ebf;" parent="1" source="YWJlD6q5wf8MBtBZUTTR-157" target="YWJlD6q5wf8MBtBZUTTR-155" edge="1">
          <mxGeometry width="50" height="50" relative="1" as="geometry">
            <mxPoint x="2250" y="740" as="sourcePoint"/>
            <mxPoint x="2210" y="780" as="targetPoint"/>
          </mxGeometry>
        </mxCell>
        <mxCell id="YWJlD6q5wf8MBtBZUTTR-146" value="" style="endArrow=none;html=1;fontSize=56;strokeWidth=2;fillColor=#dae8fc;strokeColor=#6c8ebf;" parent="1" source="YWJlD6q5wf8MBtBZUTTR-158" target="YWJlD6q5wf8MBtBZUTTR-157" edge="1">
          <mxGeometry width="50" height="50" relative="1" as="geometry">
            <mxPoint x="2260" y="750" as="sourcePoint"/>
            <mxPoint x="2220" y="790" as="targetPoint"/>
          </mxGeometry>
        </mxCell>
        <mxCell id="YWJlD6q5wf8MBtBZUTTR-147" value="" style="endArrow=none;html=1;fontSize=56;strokeWidth=2;fillColor=#dae8fc;strokeColor=#6c8ebf;" parent="1" source="YWJlD6q5wf8MBtBZUTTR-155" target="YWJlD6q5wf8MBtBZUTTR-156" edge="1">
          <mxGeometry width="50" height="50" relative="1" as="geometry">
            <mxPoint x="2270" y="760" as="sourcePoint"/>
            <mxPoint x="2230" y="800" as="targetPoint"/>
          </mxGeometry>
        </mxCell>
        <mxCell id="YWJlD6q5wf8MBtBZUTTR-148" value="" style="endArrow=none;html=1;fontSize=56;strokeWidth=2;fillColor=#dae8fc;strokeColor=#6c8ebf;" parent="1" source="YWJlD6q5wf8MBtBZUTTR-150" target="YWJlD6q5wf8MBtBZUTTR-156" edge="1">
          <mxGeometry width="50" height="50" relative="1" as="geometry">
            <mxPoint x="2290" y="780" as="sourcePoint"/>
            <mxPoint x="2250" y="820" as="targetPoint"/>
          </mxGeometry>
        </mxCell>
        <mxCell id="YWJlD6q5wf8MBtBZUTTR-149" value="" style="endArrow=none;html=1;fontSize=56;strokeWidth=2;fillColor=#dae8fc;strokeColor=#6c8ebf;" parent="1" source="YWJlD6q5wf8MBtBZUTTR-154" target="YWJlD6q5wf8MBtBZUTTR-157" edge="1">
          <mxGeometry width="50" height="50" relative="1" as="geometry">
            <mxPoint x="2300" y="790" as="sourcePoint"/>
            <mxPoint x="2260" y="830" as="targetPoint"/>
          </mxGeometry>
        </mxCell>
        <mxCell id="YWJlD6q5wf8MBtBZUTTR-150" value="" style="shape=ellipse;fillColor=#0066CC;strokeColor=none;html=1" parent="1" vertex="1">
          <mxGeometry x="2120" y="710" width="20" height="20" as="geometry"/>
        </mxCell>
        <mxCell id="YWJlD6q5wf8MBtBZUTTR-151" value="" style="shape=ellipse;fillColor=#0066CC;strokeColor=none;html=1" parent="1" vertex="1">
          <mxGeometry x="2180" y="650" width="20" height="20" as="geometry"/>
        </mxCell>
        <mxCell id="YWJlD6q5wf8MBtBZUTTR-152" value="" style="shape=ellipse;fillColor=#0066CC;strokeColor=none;html=1" parent="1" vertex="1">
          <mxGeometry x="2230" y="710" width="20" height="20" as="geometry"/>
        </mxCell>
        <mxCell id="YWJlD6q5wf8MBtBZUTTR-153" value="" style="shape=ellipse;fillColor=#0066CC;strokeColor=none;html=1" parent="1" vertex="1">
          <mxGeometry x="2305" y="650" width="20" height="20" as="geometry"/>
        </mxCell>
        <mxCell id="YWJlD6q5wf8MBtBZUTTR-154" value="" style="shape=ellipse;fillColor=#0066CC;strokeColor=none;html=1" parent="1" vertex="1">
          <mxGeometry x="2370" y="710" width="20" height="20" as="geometry"/>
        </mxCell>
        <mxCell id="YWJlD6q5wf8MBtBZUTTR-155" value="" style="shape=ellipse;fillColor=#0066CC;strokeColor=none;html=1" parent="1" vertex="1">
          <mxGeometry x="2230" y="810" width="20" height="20" as="geometry"/>
        </mxCell>
        <mxCell id="YWJlD6q5wf8MBtBZUTTR-156" value="" style="shape=ellipse;fillColor=#0066CC;strokeColor=none;html=1" parent="1" vertex="1">
          <mxGeometry x="2160" y="860" width="20" height="20" as="geometry"/>
        </mxCell>
        <mxCell id="YWJlD6q5wf8MBtBZUTTR-157" value="" style="shape=ellipse;fillColor=#0066CC;strokeColor=none;html=1" parent="1" vertex="1">
          <mxGeometry x="2320" y="850" width="20" height="20" as="geometry"/>
        </mxCell>
        <mxCell id="YWJlD6q5wf8MBtBZUTTR-158" value="" style="shape=ellipse;fillColor=#0066CC;strokeColor=none;html=1" parent="1" vertex="1">
          <mxGeometry x="2230" y="910" width="20" height="20" as="geometry"/>
        </mxCell>
        <mxCell id="YWJlD6q5wf8MBtBZUTTR-159" value="" style="shape=ellipse;fillColor=#0066CC;strokeColor=none;html=1" parent="1" vertex="1">
          <mxGeometry x="2547.5" y="595" width="20" height="20" as="geometry"/>
        </mxCell>
        <mxCell id="YWJlD6q5wf8MBtBZUTTR-160" value="" style="shape=ellipse;fillColor=#0066CC;strokeColor=none;html=1" parent="1" vertex="1">
          <mxGeometry x="2587.5" y="595" width="20" height="20" as="geometry"/>
        </mxCell>
        <mxCell id="YWJlD6q5wf8MBtBZUTTR-161" value="" style="shape=ellipse;fillColor=#0066CC;strokeColor=none;html=1" parent="1" vertex="1">
          <mxGeometry x="2627.5" y="595" width="20" height="20" as="geometry"/>
        </mxCell>
        <mxCell id="YWJlD6q5wf8MBtBZUTTR-162" value="" style="shape=ellipse;fillColor=#0066CC;strokeColor=none;html=1" parent="1" vertex="1">
          <mxGeometry x="2667.5" y="595" width="20" height="20" as="geometry"/>
        </mxCell>
        <mxCell id="YWJlD6q5wf8MBtBZUTTR-163" value="" style="shape=ellipse;fillColor=#0066CC;strokeColor=none;html=1" parent="1" vertex="1">
          <mxGeometry x="2707.5" y="595" width="20" height="20" as="geometry"/>
        </mxCell>
        <mxCell id="YWJlD6q5wf8MBtBZUTTR-164" value="" style="shape=ellipse;fillColor=#0066CC;strokeColor=none;html=1" parent="1" vertex="1">
          <mxGeometry x="2747.5" y="595" width="20" height="20" as="geometry"/>
        </mxCell>
        <mxCell id="YWJlD6q5wf8MBtBZUTTR-165" value="" style="shape=ellipse;fillColor=#0066CC;strokeColor=none;html=1" parent="1" vertex="1">
          <mxGeometry x="2547.5" y="635" width="20" height="20" as="geometry"/>
        </mxCell>
        <mxCell id="YWJlD6q5wf8MBtBZUTTR-166" value="" style="shape=ellipse;fillColor=#0066CC;strokeColor=none;html=1" parent="1" vertex="1">
          <mxGeometry x="2587.5" y="635" width="20" height="20" as="geometry"/>
        </mxCell>
        <mxCell id="YWJlD6q5wf8MBtBZUTTR-167" value="" style="shape=ellipse;fillColor=#0066CC;strokeColor=none;html=1" parent="1" vertex="1">
          <mxGeometry x="2627.5" y="635" width="20" height="20" as="geometry"/>
        </mxCell>
        <mxCell id="YWJlD6q5wf8MBtBZUTTR-168" value="" style="shape=ellipse;fillColor=#0066CC;strokeColor=none;html=1" parent="1" vertex="1">
          <mxGeometry x="2667.5" y="635" width="20" height="20" as="geometry"/>
        </mxCell>
        <mxCell id="YWJlD6q5wf8MBtBZUTTR-169" value="" style="shape=ellipse;fillColor=#0066CC;strokeColor=none;html=1" parent="1" vertex="1">
          <mxGeometry x="2707.5" y="635" width="20" height="20" as="geometry"/>
        </mxCell>
        <mxCell id="YWJlD6q5wf8MBtBZUTTR-170" value="" style="shape=ellipse;fillColor=#0066CC;strokeColor=none;html=1" parent="1" vertex="1">
          <mxGeometry x="2747.5" y="635" width="20" height="20" as="geometry"/>
        </mxCell>
        <mxCell id="YWJlD6q5wf8MBtBZUTTR-171" value="" style="shape=ellipse;fillColor=#0066CC;strokeColor=none;html=1" parent="1" vertex="1">
          <mxGeometry x="2547.5" y="675" width="20" height="20" as="geometry"/>
        </mxCell>
        <mxCell id="YWJlD6q5wf8MBtBZUTTR-172" value="" style="shape=ellipse;fillColor=#0066CC;strokeColor=none;html=1" parent="1" vertex="1">
          <mxGeometry x="2587.5" y="675" width="20" height="20" as="geometry"/>
        </mxCell>
        <mxCell id="YWJlD6q5wf8MBtBZUTTR-173" value="" style="shape=ellipse;fillColor=#0066CC;strokeColor=none;html=1" parent="1" vertex="1">
          <mxGeometry x="2627.5" y="675" width="20" height="20" as="geometry"/>
        </mxCell>
        <mxCell id="YWJlD6q5wf8MBtBZUTTR-174" value="" style="shape=ellipse;fillColor=#0066CC;strokeColor=none;html=1" parent="1" vertex="1">
          <mxGeometry x="2667.5" y="675" width="20" height="20" as="geometry"/>
        </mxCell>
        <mxCell id="YWJlD6q5wf8MBtBZUTTR-175" value="" style="shape=ellipse;fillColor=#0066CC;strokeColor=none;html=1" parent="1" vertex="1">
          <mxGeometry x="2707.5" y="675" width="20" height="20" as="geometry"/>
        </mxCell>
        <mxCell id="YWJlD6q5wf8MBtBZUTTR-176" value="" style="shape=ellipse;fillColor=#0066CC;strokeColor=none;html=1" parent="1" vertex="1">
          <mxGeometry x="2747.5" y="675" width="20" height="20" as="geometry"/>
        </mxCell>
        <mxCell id="YWJlD6q5wf8MBtBZUTTR-177" value="" style="shape=ellipse;fillColor=#0066CC;strokeColor=none;html=1" parent="1" vertex="1">
          <mxGeometry x="2787.5" y="595" width="20" height="20" as="geometry"/>
        </mxCell>
        <mxCell id="YWJlD6q5wf8MBtBZUTTR-178" value="" style="shape=ellipse;fillColor=#0066CC;strokeColor=none;html=1" parent="1" vertex="1">
          <mxGeometry x="2827.5" y="595" width="20" height="20" as="geometry"/>
        </mxCell>
        <mxCell id="YWJlD6q5wf8MBtBZUTTR-179" value="" style="shape=ellipse;fillColor=#0066CC;strokeColor=none;html=1" parent="1" vertex="1">
          <mxGeometry x="2867.5" y="595" width="20" height="20" as="geometry"/>
        </mxCell>
        <mxCell id="YWJlD6q5wf8MBtBZUTTR-180" value="" style="shape=ellipse;fillColor=#0066CC;strokeColor=none;html=1" parent="1" vertex="1">
          <mxGeometry x="2907.5" y="595" width="20" height="20" as="geometry"/>
        </mxCell>
        <mxCell id="YWJlD6q5wf8MBtBZUTTR-181" value="" style="shape=ellipse;fillColor=#0066CC;strokeColor=none;html=1" parent="1" vertex="1">
          <mxGeometry x="2947.5" y="595" width="20" height="20" as="geometry"/>
        </mxCell>
        <mxCell id="YWJlD6q5wf8MBtBZUTTR-182" value="" style="shape=ellipse;fillColor=#0066CC;strokeColor=none;html=1" parent="1" vertex="1">
          <mxGeometry x="2987.5" y="595" width="20" height="20" as="geometry"/>
        </mxCell>
        <mxCell id="YWJlD6q5wf8MBtBZUTTR-183" value="" style="shape=ellipse;fillColor=#0066CC;strokeColor=none;html=1" parent="1" vertex="1">
          <mxGeometry x="2787.5" y="635" width="20" height="20" as="geometry"/>
        </mxCell>
        <mxCell id="YWJlD6q5wf8MBtBZUTTR-184" value="" style="shape=ellipse;fillColor=#0066CC;strokeColor=none;html=1" parent="1" vertex="1">
          <mxGeometry x="2827.5" y="635" width="20" height="20" as="geometry"/>
        </mxCell>
        <mxCell id="YWJlD6q5wf8MBtBZUTTR-185" value="" style="shape=ellipse;fillColor=#0066CC;strokeColor=none;html=1" parent="1" vertex="1">
          <mxGeometry x="2867.5" y="635" width="20" height="20" as="geometry"/>
        </mxCell>
        <mxCell id="YWJlD6q5wf8MBtBZUTTR-186" value="" style="shape=ellipse;fillColor=#0066CC;strokeColor=none;html=1" parent="1" vertex="1">
          <mxGeometry x="2907.5" y="635" width="20" height="20" as="geometry"/>
        </mxCell>
        <mxCell id="YWJlD6q5wf8MBtBZUTTR-187" value="" style="shape=ellipse;fillColor=#0066CC;strokeColor=none;html=1" parent="1" vertex="1">
          <mxGeometry x="2947.5" y="635" width="20" height="20" as="geometry"/>
        </mxCell>
        <mxCell id="YWJlD6q5wf8MBtBZUTTR-188" value="" style="shape=ellipse;fillColor=#0066CC;strokeColor=none;html=1" parent="1" vertex="1">
          <mxGeometry x="2987.5" y="635" width="20" height="20" as="geometry"/>
        </mxCell>
        <mxCell id="YWJlD6q5wf8MBtBZUTTR-189" value="" style="shape=ellipse;fillColor=#0066CC;strokeColor=none;html=1" parent="1" vertex="1">
          <mxGeometry x="2787.5" y="675" width="20" height="20" as="geometry"/>
        </mxCell>
        <mxCell id="YWJlD6q5wf8MBtBZUTTR-190" value="" style="shape=ellipse;fillColor=#0066CC;strokeColor=none;html=1" parent="1" vertex="1">
          <mxGeometry x="2827.5" y="675" width="20" height="20" as="geometry"/>
        </mxCell>
        <mxCell id="YWJlD6q5wf8MBtBZUTTR-191" value="" style="shape=ellipse;fillColor=#0066CC;strokeColor=none;html=1" parent="1" vertex="1">
          <mxGeometry x="2867.5" y="675" width="20" height="20" as="geometry"/>
        </mxCell>
        <mxCell id="YWJlD6q5wf8MBtBZUTTR-192" value="" style="shape=ellipse;fillColor=#0066CC;strokeColor=none;html=1" parent="1" vertex="1">
          <mxGeometry x="2907.5" y="675" width="20" height="20" as="geometry"/>
        </mxCell>
        <mxCell id="YWJlD6q5wf8MBtBZUTTR-193" value="" style="shape=ellipse;fillColor=#0066CC;strokeColor=none;html=1" parent="1" vertex="1">
          <mxGeometry x="2947.5" y="675" width="20" height="20" as="geometry"/>
        </mxCell>
        <mxCell id="YWJlD6q5wf8MBtBZUTTR-194" value="" style="shape=ellipse;fillColor=#0066CC;strokeColor=none;html=1" parent="1" vertex="1">
          <mxGeometry x="2987.5" y="675" width="20" height="20" as="geometry"/>
        </mxCell>
        <mxCell id="YWJlD6q5wf8MBtBZUTTR-195" value="" style="endArrow=classic;html=1;strokeWidth=3;fillColor=#d5e8d4;strokeColor=#00CC00;" parent="1" edge="1">
          <mxGeometry width="50" height="50" relative="1" as="geometry">
            <mxPoint x="3037.5" y="595" as="sourcePoint"/>
            <mxPoint x="3037.5" y="705" as="targetPoint"/>
          </mxGeometry>
        </mxCell>
        <mxCell id="YWJlD6q5wf8MBtBZUTTR-196" value="temporal" style="text;html=1;align=center;verticalAlign=middle;resizable=0;points=[];;horizontal=0;rotation=-180;fontSize=21;rounded=1;strokeColor=#6c8ebf;fillColor=#A7BCD1;opacity=60;labelBackgroundColor=#67AB9F;labelBorderColor=none;" parent="YWJlD6q5wf8MBtBZUTTR-195" vertex="1" connectable="0">
          <mxGeometry x="-0.3775" y="1" relative="1" as="geometry">
            <mxPoint y="15.52" as="offset"/>
          </mxGeometry>
        </mxCell>
        <mxCell id="YWJlD6q5wf8MBtBZUTTR-197" value="" style="rounded=0;whiteSpace=wrap;html=1;labelBackgroundColor=none;fillColor=#f8cecc;fontSize=18;opacity=60;strokeColor=#b85450;" parent="1" vertex="1">
          <mxGeometry x="2542.5" y="555" width="30" height="100" as="geometry"/>
        </mxCell>
        <mxCell id="YWJlD6q5wf8MBtBZUTTR-198" value="" style="shape=ellipse;html=1" parent="1" vertex="1">
          <mxGeometry x="2547.5" y="555" width="20" height="20" as="geometry"/>
        </mxCell>
        <mxCell id="YWJlD6q5wf8MBtBZUTTR-199" value="" style="shape=ellipse;html=1" parent="1" vertex="1">
          <mxGeometry x="2587.5" y="555" width="20" height="20" as="geometry"/>
        </mxCell>
        <mxCell id="YWJlD6q5wf8MBtBZUTTR-200" value="" style="shape=ellipse;html=1" parent="1" vertex="1">
          <mxGeometry x="2627.5" y="555" width="20" height="20" as="geometry"/>
        </mxCell>
        <mxCell id="YWJlD6q5wf8MBtBZUTTR-201" value="" style="shape=ellipse;html=1" parent="1" vertex="1">
          <mxGeometry x="2667.5" y="555" width="20" height="20" as="geometry"/>
        </mxCell>
        <mxCell id="YWJlD6q5wf8MBtBZUTTR-202" value="" style="shape=ellipse;html=1" parent="1" vertex="1">
          <mxGeometry x="2707.5" y="555" width="20" height="20" as="geometry"/>
        </mxCell>
        <mxCell id="YWJlD6q5wf8MBtBZUTTR-203" value="" style="shape=ellipse;html=1" parent="1" vertex="1">
          <mxGeometry x="2747.5" y="555" width="20" height="20" as="geometry"/>
        </mxCell>
        <mxCell id="YWJlD6q5wf8MBtBZUTTR-204" value="" style="shape=ellipse;html=1" parent="1" vertex="1">
          <mxGeometry x="2787.5" y="555" width="20" height="20" as="geometry"/>
        </mxCell>
        <mxCell id="YWJlD6q5wf8MBtBZUTTR-205" value="" style="shape=ellipse;html=1" parent="1" vertex="1">
          <mxGeometry x="2827.5" y="555" width="20" height="20" as="geometry"/>
        </mxCell>
        <mxCell id="YWJlD6q5wf8MBtBZUTTR-206" value="" style="shape=ellipse;html=1" parent="1" vertex="1">
          <mxGeometry x="2867.5" y="555" width="20" height="20" as="geometry"/>
        </mxCell>
        <mxCell id="YWJlD6q5wf8MBtBZUTTR-207" value="" style="shape=ellipse;html=1" parent="1" vertex="1">
          <mxGeometry x="2907.5" y="555" width="20" height="20" as="geometry"/>
        </mxCell>
        <mxCell id="YWJlD6q5wf8MBtBZUTTR-208" value="" style="shape=ellipse;html=1" parent="1" vertex="1">
          <mxGeometry x="2947.5" y="555" width="20" height="20" as="geometry"/>
        </mxCell>
        <mxCell id="YWJlD6q5wf8MBtBZUTTR-209" value="" style="shape=ellipse;html=1" parent="1" vertex="1">
          <mxGeometry x="2987.5" y="555" width="20" height="20" as="geometry"/>
        </mxCell>
        <mxCell id="YWJlD6q5wf8MBtBZUTTR-210" value="" style="shape=ellipse;html=1" parent="1" vertex="1">
          <mxGeometry x="2547.5" y="715" width="20" height="20" as="geometry"/>
        </mxCell>
        <mxCell id="YWJlD6q5wf8MBtBZUTTR-211" value="" style="shape=ellipse;html=1" parent="1" vertex="1">
          <mxGeometry x="2587.5" y="715" width="20" height="20" as="geometry"/>
        </mxCell>
        <mxCell id="YWJlD6q5wf8MBtBZUTTR-212" value="" style="shape=ellipse;html=1" parent="1" vertex="1">
          <mxGeometry x="2627.5" y="715" width="20" height="20" as="geometry"/>
        </mxCell>
        <mxCell id="YWJlD6q5wf8MBtBZUTTR-213" value="" style="shape=ellipse;html=1" parent="1" vertex="1">
          <mxGeometry x="2667.5" y="715" width="20" height="20" as="geometry"/>
        </mxCell>
        <mxCell id="YWJlD6q5wf8MBtBZUTTR-214" value="" style="shape=ellipse;html=1" parent="1" vertex="1">
          <mxGeometry x="2707.5" y="715" width="20" height="20" as="geometry"/>
        </mxCell>
        <mxCell id="YWJlD6q5wf8MBtBZUTTR-215" value="" style="shape=ellipse;html=1" parent="1" vertex="1">
          <mxGeometry x="2747.5" y="715" width="20" height="20" as="geometry"/>
        </mxCell>
        <mxCell id="YWJlD6q5wf8MBtBZUTTR-216" value="" style="shape=ellipse;html=1" parent="1" vertex="1">
          <mxGeometry x="2787.5" y="715" width="20" height="20" as="geometry"/>
        </mxCell>
        <mxCell id="YWJlD6q5wf8MBtBZUTTR-217" value="" style="shape=ellipse;html=1" parent="1" vertex="1">
          <mxGeometry x="2827.5" y="715" width="20" height="20" as="geometry"/>
        </mxCell>
        <mxCell id="YWJlD6q5wf8MBtBZUTTR-218" value="" style="shape=ellipse;html=1" parent="1" vertex="1">
          <mxGeometry x="2867.5" y="715" width="20" height="20" as="geometry"/>
        </mxCell>
        <mxCell id="YWJlD6q5wf8MBtBZUTTR-219" value="" style="shape=ellipse;html=1" parent="1" vertex="1">
          <mxGeometry x="2907.5" y="715" width="20" height="20" as="geometry"/>
        </mxCell>
        <mxCell id="YWJlD6q5wf8MBtBZUTTR-220" value="" style="shape=ellipse;html=1" parent="1" vertex="1">
          <mxGeometry x="2947.5" y="715" width="20" height="20" as="geometry"/>
        </mxCell>
        <mxCell id="YWJlD6q5wf8MBtBZUTTR-221" value="" style="shape=ellipse;html=1" parent="1" vertex="1">
          <mxGeometry x="2987.5" y="715" width="20" height="20" as="geometry"/>
        </mxCell>
        <mxCell id="YWJlD6q5wf8MBtBZUTTR-222" value="" style="rounded=0;whiteSpace=wrap;html=1;labelBackgroundColor=none;fillColor=#f8cecc;fontSize=18;opacity=60;strokeColor=#b85450;" parent="1" vertex="1">
          <mxGeometry x="2622.5" y="595" width="30" height="100" as="geometry"/>
        </mxCell>
        <mxCell id="YWJlD6q5wf8MBtBZUTTR-223" value="" style="rounded=0;whiteSpace=wrap;html=1;labelBackgroundColor=none;fillColor=#f8cecc;fontSize=18;opacity=60;strokeColor=#b85450;" parent="1" vertex="1">
          <mxGeometry x="2742.5" y="635" width="30" height="100" as="geometry"/>
        </mxCell>
        <mxCell id="YWJlD6q5wf8MBtBZUTTR-224" value="Pad" style="text;html=1;strokeColor=none;fillColor=none;align=center;verticalAlign=middle;whiteSpace=wrap;rounded=0;labelBackgroundColor=none;fontSize=18;opacity=60;" parent="1" vertex="1">
          <mxGeometry x="3017.5" y="555" width="40" height="20" as="geometry"/>
        </mxCell>
        <mxCell id="YWJlD6q5wf8MBtBZUTTR-225" value="Pad" style="text;html=1;strokeColor=none;fillColor=none;align=center;verticalAlign=middle;whiteSpace=wrap;rounded=0;labelBackgroundColor=none;fontSize=18;opacity=60;" parent="1" vertex="1">
          <mxGeometry x="3017.5" y="715" width="40" height="20" as="geometry"/>
        </mxCell>
        <mxCell id="YWJlD6q5wf8MBtBZUTTR-226" value="GCN" style="text;html=1;strokeColor=none;fillColor=none;align=center;verticalAlign=middle;whiteSpace=wrap;rounded=0;labelBackgroundColor=#FFFFFF;fontSize=77;opacity=60;" parent="1" vertex="1">
          <mxGeometry x="2115" y="220" width="280" height="90" as="geometry"/>
        </mxCell>
        <mxCell id="YWJlD6q5wf8MBtBZUTTR-227" value="TCN" style="text;html=1;strokeColor=none;fillColor=none;align=center;verticalAlign=middle;whiteSpace=wrap;rounded=0;labelBackgroundColor=#FFFFFF;fontSize=77;opacity=60;" parent="1" vertex="1">
          <mxGeometry x="2647.5" y="220" width="280" height="90" as="geometry"/>
        </mxCell>
        <mxCell id="YWJlD6q5wf8MBtBZUTTR-228" value="" style="rounded=0;whiteSpace=wrap;html=1;labelBackgroundColor=#FFFFFF;fillColor=none;gradientColor=none;fontSize=77;opacity=60;" parent="1" vertex="1">
          <mxGeometry x="3180" y="550" width="120" height="200" as="geometry"/>
        </mxCell>
        <mxCell id="YWJlD6q5wf8MBtBZUTTR-229" value="FCN" style="text;html=1;strokeColor=none;fillColor=none;align=center;verticalAlign=middle;whiteSpace=wrap;rounded=0;labelBackgroundColor=#FFFFFF;fontSize=77;opacity=60;" parent="1" vertex="1">
          <mxGeometry x="3075" y="220" width="280" height="90" as="geometry"/>
        </mxCell>
        <mxCell id="YWJlD6q5wf8MBtBZUTTR-230" value="" style="edgeStyle=orthogonalEdgeStyle;rounded=0;orthogonalLoop=1;jettySize=auto;html=1;strokeWidth=10;entryX=0;entryY=0.5;entryDx=0;entryDy=0;exitX=1;exitY=0.5;exitDx=0;exitDy=0;" parent="1" source="YWJlD6q5wf8MBtBZUTTR-116" target="YWJlD6q5wf8MBtBZUTTR-228" edge="1">
          <mxGeometry relative="1" as="geometry">
            <mxPoint x="2530.333333333334" y="660.3333333333335" as="targetPoint"/>
            <mxPoint x="2420" y="660.3333333333335" as="sourcePoint"/>
          </mxGeometry>
        </mxCell>
        <mxCell id="YWJlD6q5wf8MBtBZUTTR-231" value="" style="shape=ellipse;fillColor=#0066CC;strokeColor=none;html=1" parent="1" vertex="1">
          <mxGeometry x="3200" y="600" width="20" height="20" as="geometry"/>
        </mxCell>
        <mxCell id="YWJlD6q5wf8MBtBZUTTR-232" value="" style="shape=ellipse;fillColor=#0066CC;strokeColor=none;html=1" parent="1" vertex="1">
          <mxGeometry x="3200" y="640" width="20" height="20" as="geometry"/>
        </mxCell>
        <mxCell id="YWJlD6q5wf8MBtBZUTTR-233" value="" style="shape=ellipse;fillColor=#0066CC;strokeColor=none;html=1" parent="1" vertex="1">
          <mxGeometry x="3200" y="680" width="20" height="20" as="geometry"/>
        </mxCell>
        <mxCell id="YWJlD6q5wf8MBtBZUTTR-234" value="" style="shape=ellipse;html=1;strokeColor=none;fillColor=#0066CC;" parent="1" vertex="1">
          <mxGeometry x="3200" y="560" width="20" height="20" as="geometry"/>
        </mxCell>
        <mxCell id="YWJlD6q5wf8MBtBZUTTR-235" value="" style="shape=ellipse;html=1;strokeColor=none;fillColor=#0066CC;" parent="1" vertex="1">
          <mxGeometry x="3200" y="720" width="20" height="20" as="geometry"/>
        </mxCell>
        <mxCell id="YWJlD6q5wf8MBtBZUTTR-236" value="" style="rounded=0;whiteSpace=wrap;html=1;labelBackgroundColor=#FFFFFF;fillColor=none;gradientColor=none;fontSize=77;opacity=60;" parent="1" vertex="1">
          <mxGeometry x="3200" y="560" width="20" height="180" as="geometry"/>
        </mxCell>
        <mxCell id="YWJlD6q5wf8MBtBZUTTR-237" value="" style="shape=ellipse;fillColor=#0066CC;strokeColor=none;html=1" parent="1" vertex="1">
          <mxGeometry x="3242.5" y="600" width="20" height="20" as="geometry"/>
        </mxCell>
        <mxCell id="YWJlD6q5wf8MBtBZUTTR-238" value="" style="shape=ellipse;fillColor=#0066CC;strokeColor=none;html=1" parent="1" vertex="1">
          <mxGeometry x="3242.5" y="640" width="20" height="20" as="geometry"/>
        </mxCell>
        <mxCell id="YWJlD6q5wf8MBtBZUTTR-239" value="" style="shape=ellipse;fillColor=#0066CC;strokeColor=none;html=1" parent="1" vertex="1">
          <mxGeometry x="3242.5" y="680" width="20" height="20" as="geometry"/>
        </mxCell>
        <mxCell id="YWJlD6q5wf8MBtBZUTTR-240" value="" style="rounded=0;whiteSpace=wrap;html=1;labelBackgroundColor=#FFFFFF;fillColor=none;gradientColor=none;fontSize=77;opacity=60;" parent="1" vertex="1">
          <mxGeometry x="3242.5" y="600" width="20" height="100" as="geometry"/>
        </mxCell>
        <mxCell id="YWJlD6q5wf8MBtBZUTTR-241" value="" style="edgeStyle=orthogonalEdgeStyle;rounded=0;orthogonalLoop=1;jettySize=auto;html=1;strokeWidth=10;exitX=1;exitY=0.5;exitDx=0;exitDy=0;" parent="1" source="YWJlD6q5wf8MBtBZUTTR-228" edge="1">
          <mxGeometry relative="1" as="geometry">
            <mxPoint x="3420" y="650" as="targetPoint"/>
            <mxPoint x="3084.8333333333335" y="659.6666666666667" as="sourcePoint"/>
          </mxGeometry>
        </mxCell>
        <mxCell id="YWJlD6q5wf8MBtBZUTTR-242" value="" style="rounded=0;whiteSpace=wrap;html=1;labelBackgroundColor=#FFFFFF;fillColor=none;gradientColor=none;fontSize=77;opacity=60;" parent="1" vertex="1">
          <mxGeometry x="3430" y="530" width="40" height="239" as="geometry"/>
        </mxCell>
        <mxCell id="YWJlD6q5wf8MBtBZUTTR-243" value="" style="shape=ellipse;fillColor=#e1d5e7;strokeColor=#9673a6;html=1" parent="1" vertex="1">
          <mxGeometry x="3440" y="579.5" width="20" height="20" as="geometry"/>
        </mxCell>
        <mxCell id="YWJlD6q5wf8MBtBZUTTR-244" value="" style="shape=ellipse;fillColor=#f8cecc;strokeColor=#b85450;html=1" parent="1" vertex="1">
          <mxGeometry x="3440" y="619.5" width="20" height="20" as="geometry"/>
        </mxCell>
        <mxCell id="YWJlD6q5wf8MBtBZUTTR-245" value="" style="shape=ellipse;fillColor=#fff2cc;strokeColor=#d6b656;html=1" parent="1" vertex="1">
          <mxGeometry x="3440" y="659.5" width="20" height="20" as="geometry"/>
        </mxCell>
        <mxCell id="YWJlD6q5wf8MBtBZUTTR-246" value="" style="shape=ellipse;html=1;strokeColor=#82b366;fillColor=#d5e8d4;" parent="1" vertex="1">
          <mxGeometry x="3440" y="539.5" width="20" height="20" as="geometry"/>
        </mxCell>
        <mxCell id="YWJlD6q5wf8MBtBZUTTR-247" value="" style="shape=ellipse;html=1;strokeColor=#d79b00;fillColor=#ffe6cc;" parent="1" vertex="1">
          <mxGeometry x="3440" y="699.5" width="20" height="20" as="geometry"/>
        </mxCell>
        <mxCell id="YWJlD6q5wf8MBtBZUTTR-248" value="" style="shape=ellipse;html=1;strokeColor=none;fillColor=#FF0000;" parent="1" vertex="1">
          <mxGeometry x="3440" y="740.5" width="20" height="20" as="geometry"/>
        </mxCell>
        <mxCell id="YWJlD6q5wf8MBtBZUTTR-249" value="Result" style="text;html=1;strokeColor=none;fillColor=none;align=center;verticalAlign=middle;whiteSpace=wrap;rounded=0;labelBackgroundColor=#FFFFFF;fontSize=77;opacity=60;" parent="1" vertex="1">
          <mxGeometry x="3310" y="220" width="280" height="90" as="geometry"/>
        </mxCell>
        <mxCell id="YWJlD6q5wf8MBtBZUTTR-255" value="" style="shape=ellipse;fillColor=#CCE5FF;strokeColor=#6c8ebf;html=1;opacity=60;" parent="1" vertex="1">
          <mxGeometry x="703.77" y="770" width="20" height="20" as="geometry"/>
        </mxCell>
        <mxCell id="YWJlD6q5wf8MBtBZUTTR-256" value="" style="shape=ellipse;fillColor=#CCE5FF;strokeColor=#6c8ebf;html=1;opacity=60;" parent="1" vertex="1">
          <mxGeometry x="653.26" y="830" width="20" height="20" as="geometry"/>
        </mxCell>
        <mxCell id="YWJlD6q5wf8MBtBZUTTR-257" value="" style="shape=ellipse;fillColor=#CCE5FF;strokeColor=#6c8ebf;html=1;opacity=60;" parent="1" vertex="1">
          <mxGeometry x="753.2600000000001" y="830" width="20" height="20" as="geometry"/>
        </mxCell>
        <mxCell id="YWJlD6q5wf8MBtBZUTTR-258" value="" style="shape=ellipse;fillColor=#CCE5FF;strokeColor=#6c8ebf;html=1;opacity=60;" parent="1" vertex="1">
          <mxGeometry x="703.7700000000001" y="800" width="20" height="20" as="geometry"/>
        </mxCell>
        <mxCell id="YWJlD6q5wf8MBtBZUTTR-259" value="" style="shape=ellipse;fillColor=#CCE5FF;strokeColor=#6c8ebf;html=1;opacity=60;" parent="1" vertex="1">
          <mxGeometry x="709.7600000000001" y="860" width="20" height="20" as="geometry"/>
        </mxCell>
        <mxCell id="YWJlD6q5wf8MBtBZUTTR-260" value="" style="endArrow=none;html=1;fontSize=12;fillColor=#CCE5FF;strokeColor=#6c8ebf;opacity=60;" parent="1" source="YWJlD6q5wf8MBtBZUTTR-276" target="YWJlD6q5wf8MBtBZUTTR-277" edge="1">
          <mxGeometry width="50" height="50" relative="1" as="geometry">
            <mxPoint x="482.78999999999996" y="687.3800000000001" as="sourcePoint"/>
            <mxPoint x="533.78" y="630" as="targetPoint"/>
          </mxGeometry>
        </mxCell>
        <mxCell id="YWJlD6q5wf8MBtBZUTTR-261" value="" style="endArrow=none;html=1;fontSize=12;fillColor=#CCE5FF;strokeColor=#6c8ebf;opacity=60;" parent="1" source="YWJlD6q5wf8MBtBZUTTR-277" target="YWJlD6q5wf8MBtBZUTTR-278" edge="1">
          <mxGeometry width="50" height="50" relative="1" as="geometry">
            <mxPoint x="573.78" y="613.8940809968849" as="sourcePoint"/>
            <mxPoint x="687.86" y="640.4569055036345" as="targetPoint"/>
          </mxGeometry>
        </mxCell>
        <mxCell id="YWJlD6q5wf8MBtBZUTTR-262" value="" style="endArrow=none;html=1;fontSize=12;fillColor=#CCE5FF;strokeColor=#6c8ebf;opacity=60;" parent="1" source="YWJlD6q5wf8MBtBZUTTR-278" target="YWJlD6q5wf8MBtBZUTTR-255" edge="1">
          <mxGeometry width="50" height="50" relative="1" as="geometry">
            <mxPoint x="708.6937500000003" y="660" as="sourcePoint"/>
            <mxPoint x="718.09" y="620" as="targetPoint"/>
          </mxGeometry>
        </mxCell>
        <mxCell id="YWJlD6q5wf8MBtBZUTTR-263" value="" style="endArrow=none;html=1;fontSize=12;fillColor=#CCE5FF;strokeColor=#6c8ebf;opacity=60;" parent="1" source="YWJlD6q5wf8MBtBZUTTR-278" target="YWJlD6q5wf8MBtBZUTTR-281" edge="1">
          <mxGeometry width="50" height="50" relative="1" as="geometry">
            <mxPoint x="727.86" y="640.7810993249759" as="sourcePoint"/>
            <mxPoint x="853.7800000000001" y="613.616200578592" as="targetPoint"/>
          </mxGeometry>
        </mxCell>
        <mxCell id="YWJlD6q5wf8MBtBZUTTR-264" value="" style="endArrow=none;html=1;fontSize=12;fillColor=#CCE5FF;strokeColor=#6c8ebf;opacity=60;" parent="1" source="YWJlD6q5wf8MBtBZUTTR-281" target="YWJlD6q5wf8MBtBZUTTR-282" edge="1">
          <mxGeometry width="50" height="50" relative="1" as="geometry">
            <mxPoint x="893.7800000000001" y="627.1428571428571" as="sourcePoint"/>
            <mxPoint x="943.7800000000001" y="670" as="targetPoint"/>
          </mxGeometry>
        </mxCell>
        <mxCell id="YWJlD6q5wf8MBtBZUTTR-265" value="" style="endArrow=none;html=1;fontSize=12;fillColor=#CCE5FF;strokeColor=#6c8ebf;opacity=60;" parent="1" source="YWJlD6q5wf8MBtBZUTTR-255" target="YWJlD6q5wf8MBtBZUTTR-258" edge="1">
          <mxGeometry width="50" height="50" relative="1" as="geometry">
            <mxPoint x="788.5500000000001" y="740" as="sourcePoint"/>
            <mxPoint x="808.09" y="710" as="targetPoint"/>
          </mxGeometry>
        </mxCell>
        <mxCell id="YWJlD6q5wf8MBtBZUTTR-266" value="" style="endArrow=none;html=1;fontSize=12;fillColor=#CCE5FF;strokeColor=#6c8ebf;opacity=60;" parent="1" source="YWJlD6q5wf8MBtBZUTTR-282" target="YWJlD6q5wf8MBtBZUTTR-257" edge="1">
          <mxGeometry width="50" height="50" relative="1" as="geometry">
            <mxPoint x="947.38" y="710.24" as="sourcePoint"/>
            <mxPoint x="832.7273684210526" y="890" as="targetPoint"/>
          </mxGeometry>
        </mxCell>
        <mxCell id="YWJlD6q5wf8MBtBZUTTR-267" value="" style="endArrow=none;html=1;fontSize=12;fillColor=#CCE5FF;strokeColor=#6c8ebf;opacity=60;" parent="1" source="YWJlD6q5wf8MBtBZUTTR-256" target="YWJlD6q5wf8MBtBZUTTR-276" edge="1">
          <mxGeometry width="50" height="50" relative="1" as="geometry">
            <mxPoint x="483.78" y="890" as="sourcePoint"/>
            <mxPoint x="474.58645161290326" y="710" as="targetPoint"/>
          </mxGeometry>
        </mxCell>
        <mxCell id="YWJlD6q5wf8MBtBZUTTR-268" value="" style="endArrow=none;html=1;fontSize=12;fillColor=#CCE5FF;strokeColor=#6c8ebf;opacity=60;" parent="1" source="YWJlD6q5wf8MBtBZUTTR-257" target="YWJlD6q5wf8MBtBZUTTR-258" edge="1">
          <mxGeometry width="50" height="50" relative="1" as="geometry">
            <mxPoint x="838.5500000000001" y="790" as="sourcePoint"/>
            <mxPoint x="793.7800000000001" y="984" as="targetPoint"/>
          </mxGeometry>
        </mxCell>
        <mxCell id="YWJlD6q5wf8MBtBZUTTR-269" value="" style="endArrow=none;html=1;fontSize=12;fillColor=#CCE5FF;strokeColor=#6c8ebf;opacity=60;" parent="1" source="YWJlD6q5wf8MBtBZUTTR-259" target="YWJlD6q5wf8MBtBZUTTR-257" edge="1">
          <mxGeometry width="50" height="50" relative="1" as="geometry">
            <mxPoint x="752.86" y="1038.4007919049714" as="sourcePoint"/>
            <mxPoint x="888.09" y="790" as="targetPoint"/>
          </mxGeometry>
        </mxCell>
        <mxCell id="YWJlD6q5wf8MBtBZUTTR-270" value="" style="endArrow=none;html=1;fontSize=12;fillColor=#CCE5FF;strokeColor=#6c8ebf;opacity=60;" parent="1" source="YWJlD6q5wf8MBtBZUTTR-256" target="YWJlD6q5wf8MBtBZUTTR-258" edge="1">
          <mxGeometry width="50" height="50" relative="1" as="geometry">
            <mxPoint x="878.5500000000001" y="830" as="sourcePoint"/>
            <mxPoint x="613.78" y="981" as="targetPoint"/>
          </mxGeometry>
        </mxCell>
        <mxCell id="YWJlD6q5wf8MBtBZUTTR-271" value="" style="endArrow=none;html=1;fontSize=12;fillColor=#CCE5FF;strokeColor=#6c8ebf;opacity=60;" parent="1" source="YWJlD6q5wf8MBtBZUTTR-256" target="YWJlD6q5wf8MBtBZUTTR-259" edge="1">
          <mxGeometry width="50" height="50" relative="1" as="geometry">
            <mxPoint x="898.5500000000001" y="850" as="sourcePoint"/>
            <mxPoint x="918.09" y="820" as="targetPoint"/>
          </mxGeometry>
        </mxCell>
        <mxCell id="YWJlD6q5wf8MBtBZUTTR-272" value="" style="endArrow=none;html=1;fontSize=12;fillColor=#CCE5FF;strokeColor=#6c8ebf;opacity=60;" parent="1" source="YWJlD6q5wf8MBtBZUTTR-276" target="YWJlD6q5wf8MBtBZUTTR-280" edge="1">
          <mxGeometry width="50" height="50" relative="1" as="geometry">
            <mxPoint x="483.78" y="697.727272727273" as="sourcePoint"/>
            <mxPoint x="558.78" y="710" as="targetPoint"/>
          </mxGeometry>
        </mxCell>
        <mxCell id="YWJlD6q5wf8MBtBZUTTR-273" value="" style="endArrow=none;html=1;fontSize=12;fillColor=#CCE5FF;strokeColor=#6c8ebf;opacity=60;" parent="1" source="YWJlD6q5wf8MBtBZUTTR-280" target="YWJlD6q5wf8MBtBZUTTR-278" edge="1">
          <mxGeometry width="50" height="50" relative="1" as="geometry">
            <mxPoint x="598.78" y="705" as="sourcePoint"/>
            <mxPoint x="687.86" y="656.0011001100111" as="targetPoint"/>
          </mxGeometry>
        </mxCell>
        <mxCell id="YWJlD6q5wf8MBtBZUTTR-274" value="" style="endArrow=none;html=1;fontSize=12;fillColor=#CCE5FF;strokeColor=#6c8ebf;exitX=1;exitY=0.5;exitDx=0;exitDy=0;opacity=60;" parent="1" source="YWJlD6q5wf8MBtBZUTTR-279" target="YWJlD6q5wf8MBtBZUTTR-282" edge="1">
          <mxGeometry width="50" height="50" relative="1" as="geometry">
            <mxPoint x="868.7800000000001" y="710" as="sourcePoint"/>
            <mxPoint x="933.7800000000001" y="690" as="targetPoint"/>
          </mxGeometry>
        </mxCell>
        <mxCell id="YWJlD6q5wf8MBtBZUTTR-275" value="" style="endArrow=none;html=1;fontSize=12;fillColor=#CCE5FF;strokeColor=#6c8ebf;opacity=60;" parent="1" source="YWJlD6q5wf8MBtBZUTTR-279" target="YWJlD6q5wf8MBtBZUTTR-278" edge="1">
          <mxGeometry width="50" height="50" relative="1" as="geometry">
            <mxPoint x="826.7400000000001" y="704.96" as="sourcePoint"/>
            <mxPoint x="727.86" y="655.0874831763122" as="targetPoint"/>
          </mxGeometry>
        </mxCell>
        <mxCell id="YWJlD6q5wf8MBtBZUTTR-276" value="" style="shape=ellipse;fillColor=#CCE5FF;strokeColor=#6c8ebf;html=1;opacity=60;" parent="1" vertex="1">
          <mxGeometry x="611.02" y="720" width="20" height="20" as="geometry"/>
        </mxCell>
        <mxCell id="YWJlD6q5wf8MBtBZUTTR-277" value="" style="shape=ellipse;fillColor=#CCE5FF;strokeColor=#6c8ebf;html=1;opacity=60;" parent="1" vertex="1">
          <mxGeometry x="663.26" y="690" width="20" height="20" as="geometry"/>
        </mxCell>
        <mxCell id="YWJlD6q5wf8MBtBZUTTR-278" value="" style="shape=ellipse;fillColor=#CCE5FF;strokeColor=#6c8ebf;html=1;opacity=60;" parent="1" vertex="1">
          <mxGeometry x="703.77" y="710" width="20" height="20" as="geometry"/>
        </mxCell>
        <mxCell id="YWJlD6q5wf8MBtBZUTTR-279" value="" style="shape=ellipse;fillColor=#CCE5FF;strokeColor=#6c8ebf;html=1;opacity=60;" parent="1" vertex="1">
          <mxGeometry x="753.2600000000001" y="730" width="20" height="20" as="geometry"/>
        </mxCell>
        <mxCell id="YWJlD6q5wf8MBtBZUTTR-280" value="" style="shape=ellipse;fillColor=#CCE5FF;strokeColor=#6c8ebf;html=1;opacity=60;" parent="1" vertex="1">
          <mxGeometry x="663.26" y="730" width="20" height="20" as="geometry"/>
        </mxCell>
        <mxCell id="YWJlD6q5wf8MBtBZUTTR-281" value="" style="shape=ellipse;fillColor=#CCE5FF;strokeColor=#6c8ebf;html=1;opacity=60;" parent="1" vertex="1">
          <mxGeometry x="753.2600000000001" y="689" width="20" height="20" as="geometry"/>
        </mxCell>
        <mxCell id="YWJlD6q5wf8MBtBZUTTR-282" value="" style="shape=ellipse;fillColor=#CCE5FF;strokeColor=#6c8ebf;html=1;opacity=60;" parent="1" vertex="1">
          <mxGeometry x="798.7700000000001" y="720" width="20" height="20" as="geometry"/>
        </mxCell>
        <mxCell id="YWJlD6q5wf8MBtBZUTTR-283" value="" style="shape=ellipse;fillColor=#0066CC;strokeColor=#0066CC;html=1;" parent="1" vertex="1">
          <mxGeometry x="670.51" y="795.5" width="20" height="20" as="geometry"/>
        </mxCell>
        <mxCell id="YWJlD6q5wf8MBtBZUTTR-284" value="" style="shape=ellipse;fillColor=#0066CC;strokeColor=#0066CC;html=1;" parent="1" vertex="1">
          <mxGeometry x="620" y="855.5" width="20" height="20" as="geometry"/>
        </mxCell>
        <mxCell id="YWJlD6q5wf8MBtBZUTTR-285" value="" style="shape=ellipse;fillColor=#0066CC;strokeColor=#0066CC;html=1;" parent="1" vertex="1">
          <mxGeometry x="720.0000000000001" y="855.5" width="20" height="20" as="geometry"/>
        </mxCell>
        <mxCell id="YWJlD6q5wf8MBtBZUTTR-286" value="" style="shape=ellipse;fillColor=#0066CC;strokeColor=#0066CC;html=1;" parent="1" vertex="1">
          <mxGeometry x="670.5100000000001" y="825.5" width="20" height="20" as="geometry"/>
        </mxCell>
        <mxCell id="YWJlD6q5wf8MBtBZUTTR-287" value="" style="shape=ellipse;fillColor=#0066CC;strokeColor=#0066CC;html=1;" parent="1" vertex="1">
          <mxGeometry x="676.5000000000001" y="885.5" width="20" height="20" as="geometry"/>
        </mxCell>
        <mxCell id="YWJlD6q5wf8MBtBZUTTR-288" value="" style="endArrow=none;html=1;fontSize=12;fillColor=#0066CC;strokeColor=#0066CC;" parent="1" source="YWJlD6q5wf8MBtBZUTTR-304" target="YWJlD6q5wf8MBtBZUTTR-305" edge="1">
          <mxGeometry width="50" height="50" relative="1" as="geometry">
            <mxPoint x="449.53" y="712.8800000000001" as="sourcePoint"/>
            <mxPoint x="500.52" y="655.5" as="targetPoint"/>
          </mxGeometry>
        </mxCell>
        <mxCell id="YWJlD6q5wf8MBtBZUTTR-289" value="" style="endArrow=none;html=1;fontSize=12;fillColor=#0066CC;strokeColor=#0066CC;" parent="1" source="YWJlD6q5wf8MBtBZUTTR-305" target="YWJlD6q5wf8MBtBZUTTR-306" edge="1">
          <mxGeometry width="50" height="50" relative="1" as="geometry">
            <mxPoint x="540.52" y="639.3940809968849" as="sourcePoint"/>
            <mxPoint x="654.6" y="665.9569055036345" as="targetPoint"/>
          </mxGeometry>
        </mxCell>
        <mxCell id="YWJlD6q5wf8MBtBZUTTR-290" value="" style="endArrow=none;html=1;fontSize=12;fillColor=#0066CC;strokeColor=#0066CC;" parent="1" source="YWJlD6q5wf8MBtBZUTTR-306" target="YWJlD6q5wf8MBtBZUTTR-283" edge="1">
          <mxGeometry width="50" height="50" relative="1" as="geometry">
            <mxPoint x="675.4337500000003" y="685.5" as="sourcePoint"/>
            <mxPoint x="684.83" y="645.5" as="targetPoint"/>
          </mxGeometry>
        </mxCell>
        <mxCell id="YWJlD6q5wf8MBtBZUTTR-291" value="" style="endArrow=none;html=1;fontSize=12;fillColor=#0066CC;strokeColor=#0066CC;" parent="1" source="YWJlD6q5wf8MBtBZUTTR-306" target="YWJlD6q5wf8MBtBZUTTR-309" edge="1">
          <mxGeometry width="50" height="50" relative="1" as="geometry">
            <mxPoint x="694.6" y="666.2810993249759" as="sourcePoint"/>
            <mxPoint x="820.5200000000002" y="639.116200578592" as="targetPoint"/>
          </mxGeometry>
        </mxCell>
        <mxCell id="YWJlD6q5wf8MBtBZUTTR-292" value="" style="endArrow=none;html=1;fontSize=12;fillColor=#0066CC;strokeColor=#0066CC;" parent="1" source="YWJlD6q5wf8MBtBZUTTR-309" target="YWJlD6q5wf8MBtBZUTTR-310" edge="1">
          <mxGeometry width="50" height="50" relative="1" as="geometry">
            <mxPoint x="860.5200000000002" y="652.6428571428571" as="sourcePoint"/>
            <mxPoint x="910.5200000000002" y="695.5" as="targetPoint"/>
          </mxGeometry>
        </mxCell>
        <mxCell id="YWJlD6q5wf8MBtBZUTTR-293" value="" style="endArrow=none;html=1;fontSize=12;fillColor=#0066CC;strokeColor=#0066CC;" parent="1" source="YWJlD6q5wf8MBtBZUTTR-283" target="YWJlD6q5wf8MBtBZUTTR-286" edge="1">
          <mxGeometry width="50" height="50" relative="1" as="geometry">
            <mxPoint x="755.2900000000002" y="765.5" as="sourcePoint"/>
            <mxPoint x="774.8300000000002" y="735.5" as="targetPoint"/>
          </mxGeometry>
        </mxCell>
        <mxCell id="YWJlD6q5wf8MBtBZUTTR-294" value="" style="endArrow=none;html=1;fontSize=12;fillColor=#0066CC;strokeColor=#0066CC;" parent="1" source="YWJlD6q5wf8MBtBZUTTR-310" target="YWJlD6q5wf8MBtBZUTTR-285" edge="1">
          <mxGeometry width="50" height="50" relative="1" as="geometry">
            <mxPoint x="914.1200000000001" y="735.74" as="sourcePoint"/>
            <mxPoint x="799.4673684210527" y="915.5" as="targetPoint"/>
          </mxGeometry>
        </mxCell>
        <mxCell id="YWJlD6q5wf8MBtBZUTTR-295" value="" style="endArrow=none;html=1;fontSize=12;fillColor=#0066CC;strokeColor=#0066CC;" parent="1" source="YWJlD6q5wf8MBtBZUTTR-284" target="YWJlD6q5wf8MBtBZUTTR-304" edge="1">
          <mxGeometry width="50" height="50" relative="1" as="geometry">
            <mxPoint x="450.52" y="915.5" as="sourcePoint"/>
            <mxPoint x="441.32645161290327" y="735.5" as="targetPoint"/>
          </mxGeometry>
        </mxCell>
        <mxCell id="YWJlD6q5wf8MBtBZUTTR-296" value="" style="endArrow=none;html=1;fontSize=12;fillColor=#0066CC;strokeColor=#0066CC;" parent="1" source="YWJlD6q5wf8MBtBZUTTR-285" target="YWJlD6q5wf8MBtBZUTTR-286" edge="1">
          <mxGeometry width="50" height="50" relative="1" as="geometry">
            <mxPoint x="805.2900000000002" y="815.5" as="sourcePoint"/>
            <mxPoint x="760.5200000000002" y="1009.5" as="targetPoint"/>
          </mxGeometry>
        </mxCell>
        <mxCell id="YWJlD6q5wf8MBtBZUTTR-297" value="" style="endArrow=none;html=1;fontSize=12;fillColor=#0066CC;strokeColor=#0066CC;" parent="1" source="YWJlD6q5wf8MBtBZUTTR-287" target="YWJlD6q5wf8MBtBZUTTR-285" edge="1">
          <mxGeometry width="50" height="50" relative="1" as="geometry">
            <mxPoint x="719.6" y="1063.9007919049714" as="sourcePoint"/>
            <mxPoint x="854.8300000000002" y="815.5" as="targetPoint"/>
          </mxGeometry>
        </mxCell>
        <mxCell id="YWJlD6q5wf8MBtBZUTTR-298" value="" style="endArrow=none;html=1;fontSize=12;fillColor=#0066CC;strokeColor=#0066CC;" parent="1" source="YWJlD6q5wf8MBtBZUTTR-284" target="YWJlD6q5wf8MBtBZUTTR-286" edge="1">
          <mxGeometry width="50" height="50" relative="1" as="geometry">
            <mxPoint x="845.2900000000002" y="855.5" as="sourcePoint"/>
            <mxPoint x="580.52" y="1006.5" as="targetPoint"/>
          </mxGeometry>
        </mxCell>
        <mxCell id="YWJlD6q5wf8MBtBZUTTR-299" value="" style="endArrow=none;html=1;fontSize=12;fillColor=#0066CC;strokeColor=#0066CC;" parent="1" source="YWJlD6q5wf8MBtBZUTTR-284" target="YWJlD6q5wf8MBtBZUTTR-287" edge="1">
          <mxGeometry width="50" height="50" relative="1" as="geometry">
            <mxPoint x="865.2900000000002" y="875.5" as="sourcePoint"/>
            <mxPoint x="884.8300000000002" y="845.5" as="targetPoint"/>
          </mxGeometry>
        </mxCell>
        <mxCell id="YWJlD6q5wf8MBtBZUTTR-300" value="" style="endArrow=none;html=1;fontSize=12;fillColor=#0066CC;strokeColor=#0066CC;" parent="1" source="YWJlD6q5wf8MBtBZUTTR-304" target="YWJlD6q5wf8MBtBZUTTR-308" edge="1">
          <mxGeometry width="50" height="50" relative="1" as="geometry">
            <mxPoint x="450.52" y="723.227272727273" as="sourcePoint"/>
            <mxPoint x="525.52" y="735.5" as="targetPoint"/>
          </mxGeometry>
        </mxCell>
        <mxCell id="YWJlD6q5wf8MBtBZUTTR-301" value="" style="endArrow=none;html=1;fontSize=12;fillColor=#0066CC;strokeColor=#0066CC;" parent="1" source="YWJlD6q5wf8MBtBZUTTR-308" target="YWJlD6q5wf8MBtBZUTTR-306" edge="1">
          <mxGeometry width="50" height="50" relative="1" as="geometry">
            <mxPoint x="565.52" y="730.5" as="sourcePoint"/>
            <mxPoint x="654.6" y="681.5011001100111" as="targetPoint"/>
          </mxGeometry>
        </mxCell>
        <mxCell id="YWJlD6q5wf8MBtBZUTTR-302" value="" style="endArrow=none;html=1;fontSize=12;fillColor=#0066CC;strokeColor=#0066CC;exitX=1;exitY=0.5;exitDx=0;exitDy=0;" parent="1" source="YWJlD6q5wf8MBtBZUTTR-307" target="YWJlD6q5wf8MBtBZUTTR-310" edge="1">
          <mxGeometry width="50" height="50" relative="1" as="geometry">
            <mxPoint x="835.5200000000002" y="735.5" as="sourcePoint"/>
            <mxPoint x="900.5200000000002" y="715.5" as="targetPoint"/>
          </mxGeometry>
        </mxCell>
        <mxCell id="YWJlD6q5wf8MBtBZUTTR-303" value="" style="endArrow=none;html=1;fontSize=12;fillColor=#0066CC;strokeColor=#0066CC;" parent="1" source="YWJlD6q5wf8MBtBZUTTR-307" target="YWJlD6q5wf8MBtBZUTTR-306" edge="1">
          <mxGeometry width="50" height="50" relative="1" as="geometry">
            <mxPoint x="793.4800000000002" y="730.46" as="sourcePoint"/>
            <mxPoint x="694.6" y="680.5874831763122" as="targetPoint"/>
          </mxGeometry>
        </mxCell>
        <mxCell id="YWJlD6q5wf8MBtBZUTTR-304" value="" style="shape=ellipse;fillColor=#0066CC;strokeColor=#0066CC;html=1;" parent="1" vertex="1">
          <mxGeometry x="577.76" y="745.5" width="20" height="20" as="geometry"/>
        </mxCell>
        <mxCell id="YWJlD6q5wf8MBtBZUTTR-305" value="" style="shape=ellipse;fillColor=#0066CC;strokeColor=#0066CC;html=1;" parent="1" vertex="1">
          <mxGeometry x="630" y="715.5" width="20" height="20" as="geometry"/>
        </mxCell>
        <mxCell id="YWJlD6q5wf8MBtBZUTTR-306" value="" style="shape=ellipse;fillColor=#0066CC;strokeColor=#0066CC;html=1;" parent="1" vertex="1">
          <mxGeometry x="670.51" y="735.5" width="20" height="20" as="geometry"/>
        </mxCell>
        <mxCell id="YWJlD6q5wf8MBtBZUTTR-307" value="" style="shape=ellipse;fillColor=#0066CC;strokeColor=#0066CC;html=1;" parent="1" vertex="1">
          <mxGeometry x="720.0000000000001" y="755.5" width="20" height="20" as="geometry"/>
        </mxCell>
        <mxCell id="YWJlD6q5wf8MBtBZUTTR-308" value="" style="shape=ellipse;fillColor=#0066CC;strokeColor=#0066CC;html=1;" parent="1" vertex="1">
          <mxGeometry x="630" y="755.5" width="20" height="20" as="geometry"/>
        </mxCell>
        <mxCell id="YWJlD6q5wf8MBtBZUTTR-309" value="" style="shape=ellipse;fillColor=#0066CC;strokeColor=#0066CC;html=1;" parent="1" vertex="1">
          <mxGeometry x="720.0000000000001" y="714.5" width="20" height="20" as="geometry"/>
        </mxCell>
        <mxCell id="YWJlD6q5wf8MBtBZUTTR-310" value="" style="shape=ellipse;fillColor=#0066CC;strokeColor=#0066CC;html=1;" parent="1" vertex="1">
          <mxGeometry x="765.51" y="745.5" width="20" height="20" as="geometry"/>
        </mxCell>
        <mxCell id="YWJlD6q5wf8MBtBZUTTR-311" value="" style="endArrow=none;html=1;strokeColor=#00CC00;strokeWidth=1;fontSize=31;" parent="1" source="YWJlD6q5wf8MBtBZUTTR-310" target="YWJlD6q5wf8MBtBZUTTR-282" edge="1">
          <mxGeometry width="50" height="50" relative="1" as="geometry">
            <mxPoint x="863.27" y="789" as="sourcePoint"/>
            <mxPoint x="913.27" y="739" as="targetPoint"/>
          </mxGeometry>
        </mxCell>
        <mxCell id="YWJlD6q5wf8MBtBZUTTR-312" value="" style="endArrow=none;html=1;strokeColor=#00CC00;strokeWidth=1;fontSize=31;" parent="1" source="YWJlD6q5wf8MBtBZUTTR-309" target="YWJlD6q5wf8MBtBZUTTR-281" edge="1">
          <mxGeometry width="50" height="50" relative="1" as="geometry">
            <mxPoint x="795.51" y="757.8331328923632" as="sourcePoint"/>
            <mxPoint x="808.77" y="747.6668671076368" as="targetPoint"/>
          </mxGeometry>
        </mxCell>
        <mxCell id="YWJlD6q5wf8MBtBZUTTR-313" value="" style="endArrow=none;html=1;strokeColor=#00CC00;strokeWidth=1;fontSize=31;" parent="1" source="YWJlD6q5wf8MBtBZUTTR-285" target="YWJlD6q5wf8MBtBZUTTR-257" edge="1">
          <mxGeometry width="50" height="50" relative="1" as="geometry">
            <mxPoint x="805.51" y="767.8331328923632" as="sourcePoint"/>
            <mxPoint x="818.77" y="757.6668671076368" as="targetPoint"/>
          </mxGeometry>
        </mxCell>
        <mxCell id="YWJlD6q5wf8MBtBZUTTR-314" value="" style="endArrow=none;html=1;strokeColor=#00CC00;strokeWidth=1;fontSize=31;" parent="1" source="YWJlD6q5wf8MBtBZUTTR-307" target="YWJlD6q5wf8MBtBZUTTR-279" edge="1">
          <mxGeometry width="50" height="50" relative="1" as="geometry">
            <mxPoint x="815.51" y="777.8331328923632" as="sourcePoint"/>
            <mxPoint x="828.77" y="767.6668671076368" as="targetPoint"/>
          </mxGeometry>
        </mxCell>
        <mxCell id="YWJlD6q5wf8MBtBZUTTR-315" value="" style="endArrow=classic;html=1;strokeColor=#00CC00;strokeWidth=1;fontSize=31;" parent="1" edge="1">
          <mxGeometry width="50" height="50" relative="1" as="geometry">
            <mxPoint x="780" y="850" as="sourcePoint"/>
            <mxPoint x="720" y="900" as="targetPoint"/>
          </mxGeometry>
        </mxCell>
        <mxCell id="YWJlD6q5wf8MBtBZUTTR-316" value="Temporal" style="text;html=1;strokeColor=none;fillColor=none;align=center;verticalAlign=middle;whiteSpace=wrap;rounded=0;labelBackgroundColor=none;fontSize=24;rotation=-40;" parent="1" vertex="1">
          <mxGeometry x="743.26" y="870" width="40" height="20" as="geometry"/>
        </mxCell>
        <mxCell id="YWJlD6q5wf8MBtBZUTTR-317" value="Graphs" style="rounded=0;whiteSpace=wrap;html=1;labelBackgroundColor=none;fillColor=#FF0000;gradientColor=none;fontSize=31;opacity=60;" parent="1" vertex="1">
          <mxGeometry x="570" y="920" width="253" height="40" as="geometry"/>
        </mxCell>
        <mxCell id="YWJlD6q5wf8MBtBZUTTR-318" value="" style="edgeStyle=orthogonalEdgeStyle;rounded=0;orthogonalLoop=1;jettySize=auto;html=1;strokeWidth=10;entryX=0.5;entryY=0;entryDx=0;entryDy=0;exitX=0.5;exitY=1;exitDx=0;exitDy=0;" parent="1" target="YWJlD6q5wf8MBtBZUTTR-1" edge="1">
          <mxGeometry relative="1" as="geometry">
            <mxPoint x="697.5714285714294" y="628.8571428571431" as="sourcePoint"/>
            <mxPoint x="1450" y="660" as="targetPoint"/>
          </mxGeometry>
        </mxCell>
        <mxCell id="YWJlD6q5wf8MBtBZUTTR-319" value="" style="edgeStyle=orthogonalEdgeStyle;rounded=0;orthogonalLoop=1;jettySize=auto;html=1;strokeWidth=10;entryX=0;entryY=0.5;entryDx=0;entryDy=0;exitX=1;exitY=0.5;exitDx=0;exitDy=0;" parent="1" source="YWJlD6q5wf8MBtBZUTTR-1" target="YWJlD6q5wf8MBtBZUTTR-6" edge="1">
          <mxGeometry relative="1" as="geometry">
            <mxPoint x="1360" y="660" as="sourcePoint"/>
            <mxPoint x="1450" y="660" as="targetPoint"/>
          </mxGeometry>
        </mxCell>
      </root>
    </mxGraphModel>
  </diagram>
  <diagram id="KEKP8m0M3CxWG9vXLyXp" name="Page-2">
    <mxGraphModel dx="1898" dy="1353" grid="1" gridSize="10" guides="1" tooltips="1" connect="1" arrows="1" fold="1" page="1" pageScale="1" pageWidth="827" pageHeight="1169" math="0" shadow="0">
      <root>
        <mxCell id="kXAHjIqiLY20bqVyl381-0"/>
        <mxCell id="kXAHjIqiLY20bqVyl381-1" parent="kXAHjIqiLY20bqVyl381-0"/>
        <mxCell id="kXAHjIqiLY20bqVyl381-4" style="edgeStyle=orthogonalEdgeStyle;rounded=0;orthogonalLoop=1;jettySize=auto;html=1;exitX=1;exitY=0.5;exitDx=0;exitDy=0;entryX=0;entryY=0.5;entryDx=0;entryDy=0;strokeColor=#000000;strokeWidth=10;fontSize=11;" parent="kXAHjIqiLY20bqVyl381-1" source="kXAHjIqiLY20bqVyl381-5" target="kXAHjIqiLY20bqVyl381-119" edge="1">
          <mxGeometry relative="1" as="geometry"/>
        </mxCell>
        <mxCell id="kXAHjIqiLY20bqVyl381-6" value="" style="edgeStyle=orthogonalEdgeStyle;rounded=0;orthogonalLoop=1;jettySize=auto;html=1;strokeWidth=10;entryX=0;entryY=0.5;entryDx=0;entryDy=0;" parent="kXAHjIqiLY20bqVyl381-1" source="kXAHjIqiLY20bqVyl381-7" target="kXAHjIqiLY20bqVyl381-5" edge="1">
          <mxGeometry relative="1" as="geometry">
            <mxPoint x="1430" y="650" as="targetPoint"/>
          </mxGeometry>
        </mxCell>
        <mxCell id="kXAHjIqiLY20bqVyl381-7" value="" style="rounded=1;whiteSpace=wrap;html=1;fillColor=#A7BCD1;strokeColor=#6c8ebf;opacity=60;" parent="kXAHjIqiLY20bqVyl381-1" vertex="1">
          <mxGeometry x="1040" y="320" width="310" height="660" as="geometry"/>
        </mxCell>
        <mxCell id="kXAHjIqiLY20bqVyl381-8" value="" style="shape=ellipse;fillColor=#0066CC;strokeColor=none;html=1" parent="kXAHjIqiLY20bqVyl381-1" vertex="1">
          <mxGeometry x="1060" y="389.99999999999994" width="20" height="20" as="geometry"/>
        </mxCell>
        <mxCell id="kXAHjIqiLY20bqVyl381-9" value="" style="shape=ellipse;fillColor=#0066CC;strokeColor=none;html=1" parent="kXAHjIqiLY20bqVyl381-1" vertex="1">
          <mxGeometry x="1120" y="329.99999999999994" width="20" height="20" as="geometry"/>
        </mxCell>
        <mxCell id="kXAHjIqiLY20bqVyl381-10" value="" style="shape=ellipse;fillColor=#0066CC;strokeColor=none;html=1" parent="kXAHjIqiLY20bqVyl381-1" vertex="1">
          <mxGeometry x="1170" y="389.99999999999994" width="20" height="20" as="geometry"/>
        </mxCell>
        <mxCell id="kXAHjIqiLY20bqVyl381-11" value="" style="shape=ellipse;fillColor=#0066CC;strokeColor=none;html=1" parent="kXAHjIqiLY20bqVyl381-1" vertex="1">
          <mxGeometry x="1245" y="329.99999999999994" width="20" height="20" as="geometry"/>
        </mxCell>
        <mxCell id="kXAHjIqiLY20bqVyl381-12" value="" style="shape=ellipse;fillColor=#0066CC;strokeColor=none;html=1" parent="kXAHjIqiLY20bqVyl381-1" vertex="1">
          <mxGeometry x="1310" y="389.99999999999994" width="20" height="20" as="geometry"/>
        </mxCell>
        <mxCell id="kXAHjIqiLY20bqVyl381-13" value="" style="shape=ellipse;fillColor=#0066CC;strokeColor=none;html=1" parent="kXAHjIqiLY20bqVyl381-1" vertex="1">
          <mxGeometry x="1170" y="489.99999999999994" width="20" height="20" as="geometry"/>
        </mxCell>
        <mxCell id="kXAHjIqiLY20bqVyl381-14" value="" style="shape=ellipse;fillColor=#0066CC;strokeColor=none;html=1" parent="kXAHjIqiLY20bqVyl381-1" vertex="1">
          <mxGeometry x="1100" y="540" width="20" height="20" as="geometry"/>
        </mxCell>
        <mxCell id="kXAHjIqiLY20bqVyl381-15" value="" style="shape=ellipse;fillColor=#0066CC;strokeColor=none;html=1" parent="kXAHjIqiLY20bqVyl381-1" vertex="1">
          <mxGeometry x="1260" y="530" width="20" height="20" as="geometry"/>
        </mxCell>
        <mxCell id="kXAHjIqiLY20bqVyl381-16" value="" style="shape=ellipse;fillColor=#0066CC;strokeColor=none;html=1" parent="kXAHjIqiLY20bqVyl381-1" vertex="1">
          <mxGeometry x="1170" y="590" width="20" height="20" as="geometry"/>
        </mxCell>
        <mxCell id="kXAHjIqiLY20bqVyl381-17" value="" style="endArrow=none;html=1;fontSize=56;strokeWidth=2;fillColor=#dae8fc;strokeColor=#6c8ebf;" parent="kXAHjIqiLY20bqVyl381-1" source="kXAHjIqiLY20bqVyl381-9" target="kXAHjIqiLY20bqVyl381-8" edge="1">
          <mxGeometry width="50" height="50" relative="1" as="geometry">
            <mxPoint x="1170" y="134" as="sourcePoint"/>
            <mxPoint x="1275" y="176" as="targetPoint"/>
          </mxGeometry>
        </mxCell>
        <mxCell id="kXAHjIqiLY20bqVyl381-18" value="" style="endArrow=none;html=1;fontSize=56;strokeWidth=2;fillColor=#dae8fc;strokeColor=#6c8ebf;" parent="kXAHjIqiLY20bqVyl381-1" source="kXAHjIqiLY20bqVyl381-11" target="kXAHjIqiLY20bqVyl381-9" edge="1">
          <mxGeometry width="50" height="50" relative="1" as="geometry">
            <mxPoint x="1240" y="369.99999999999994" as="sourcePoint"/>
            <mxPoint x="1100" y="409.99999999999994" as="targetPoint"/>
          </mxGeometry>
        </mxCell>
        <mxCell id="kXAHjIqiLY20bqVyl381-19" value="" style="endArrow=none;html=1;fontSize=56;strokeWidth=2;fillColor=#dae8fc;strokeColor=#6c8ebf;" parent="kXAHjIqiLY20bqVyl381-1" source="kXAHjIqiLY20bqVyl381-12" target="kXAHjIqiLY20bqVyl381-11" edge="1">
          <mxGeometry width="50" height="50" relative="1" as="geometry">
            <mxPoint x="1150" y="379.99999999999994" as="sourcePoint"/>
            <mxPoint x="1110" y="419.99999999999994" as="targetPoint"/>
          </mxGeometry>
        </mxCell>
        <mxCell id="kXAHjIqiLY20bqVyl381-20" value="" style="endArrow=none;html=1;fontSize=56;strokeWidth=2;fillColor=#dae8fc;strokeColor=#6c8ebf;" parent="kXAHjIqiLY20bqVyl381-1" source="kXAHjIqiLY20bqVyl381-10" target="kXAHjIqiLY20bqVyl381-11" edge="1">
          <mxGeometry width="50" height="50" relative="1" as="geometry">
            <mxPoint x="1160" y="389.99999999999994" as="sourcePoint"/>
            <mxPoint x="1120" y="429.99999999999994" as="targetPoint"/>
          </mxGeometry>
        </mxCell>
        <mxCell id="kXAHjIqiLY20bqVyl381-21" value="" style="endArrow=none;html=1;fontSize=56;strokeWidth=2;fillColor=#dae8fc;strokeColor=#6c8ebf;" parent="kXAHjIqiLY20bqVyl381-1" source="kXAHjIqiLY20bqVyl381-9" target="kXAHjIqiLY20bqVyl381-10" edge="1">
          <mxGeometry width="50" height="50" relative="1" as="geometry">
            <mxPoint x="1170" y="399.99999999999994" as="sourcePoint"/>
            <mxPoint x="1130" y="439.99999999999994" as="targetPoint"/>
          </mxGeometry>
        </mxCell>
        <mxCell id="kXAHjIqiLY20bqVyl381-22" value="" style="endArrow=none;html=1;fontSize=56;strokeWidth=2;fillColor=#dae8fc;strokeColor=#6c8ebf;" parent="kXAHjIqiLY20bqVyl381-1" source="kXAHjIqiLY20bqVyl381-10" target="kXAHjIqiLY20bqVyl381-13" edge="1">
          <mxGeometry width="50" height="50" relative="1" as="geometry">
            <mxPoint x="1180" y="409.99999999999994" as="sourcePoint"/>
            <mxPoint x="1140" y="449.99999999999994" as="targetPoint"/>
          </mxGeometry>
        </mxCell>
        <mxCell id="kXAHjIqiLY20bqVyl381-23" value="" style="endArrow=none;html=1;fontSize=56;strokeWidth=2;fillColor=#dae8fc;strokeColor=#6c8ebf;" parent="kXAHjIqiLY20bqVyl381-1" source="kXAHjIqiLY20bqVyl381-15" target="kXAHjIqiLY20bqVyl381-13" edge="1">
          <mxGeometry width="50" height="50" relative="1" as="geometry">
            <mxPoint x="1190" y="419.99999999999994" as="sourcePoint"/>
            <mxPoint x="1150" y="459.99999999999994" as="targetPoint"/>
          </mxGeometry>
        </mxCell>
        <mxCell id="kXAHjIqiLY20bqVyl381-24" value="" style="endArrow=none;html=1;fontSize=56;strokeWidth=2;fillColor=#dae8fc;strokeColor=#6c8ebf;" parent="kXAHjIqiLY20bqVyl381-1" source="kXAHjIqiLY20bqVyl381-16" target="kXAHjIqiLY20bqVyl381-15" edge="1">
          <mxGeometry width="50" height="50" relative="1" as="geometry">
            <mxPoint x="1200" y="429.99999999999994" as="sourcePoint"/>
            <mxPoint x="1160" y="469.99999999999994" as="targetPoint"/>
          </mxGeometry>
        </mxCell>
        <mxCell id="kXAHjIqiLY20bqVyl381-25" value="" style="endArrow=none;html=1;fontSize=56;strokeWidth=2;fillColor=#dae8fc;strokeColor=#6c8ebf;" parent="kXAHjIqiLY20bqVyl381-1" source="kXAHjIqiLY20bqVyl381-13" target="kXAHjIqiLY20bqVyl381-14" edge="1">
          <mxGeometry width="50" height="50" relative="1" as="geometry">
            <mxPoint x="1210" y="439.99999999999994" as="sourcePoint"/>
            <mxPoint x="1170" y="479.99999999999994" as="targetPoint"/>
          </mxGeometry>
        </mxCell>
        <mxCell id="kXAHjIqiLY20bqVyl381-26" value="" style="endArrow=none;html=1;fontSize=56;strokeWidth=2;fillColor=#dae8fc;strokeColor=#6c8ebf;" parent="kXAHjIqiLY20bqVyl381-1" source="kXAHjIqiLY20bqVyl381-8" target="kXAHjIqiLY20bqVyl381-14" edge="1">
          <mxGeometry width="50" height="50" relative="1" as="geometry">
            <mxPoint x="1230" y="459.99999999999994" as="sourcePoint"/>
            <mxPoint x="1190" y="499.99999999999994" as="targetPoint"/>
          </mxGeometry>
        </mxCell>
        <mxCell id="kXAHjIqiLY20bqVyl381-27" value="" style="endArrow=none;html=1;fontSize=56;strokeWidth=2;fillColor=#dae8fc;strokeColor=#6c8ebf;" parent="kXAHjIqiLY20bqVyl381-1" source="kXAHjIqiLY20bqVyl381-12" target="kXAHjIqiLY20bqVyl381-15" edge="1">
          <mxGeometry width="50" height="50" relative="1" as="geometry">
            <mxPoint x="1240" y="469.99999999999994" as="sourcePoint"/>
            <mxPoint x="1200" y="509.99999999999994" as="targetPoint"/>
          </mxGeometry>
        </mxCell>
        <mxCell id="kXAHjIqiLY20bqVyl381-28" value="" style="endArrow=none;html=1;fontSize=56;strokeWidth=2;fillColor=#dae8fc;strokeColor=#6c8ebf;" parent="kXAHjIqiLY20bqVyl381-1" source="kXAHjIqiLY20bqVyl381-40" target="kXAHjIqiLY20bqVyl381-39" edge="1">
          <mxGeometry width="50" height="50" relative="1" as="geometry">
            <mxPoint x="1170" y="453.99999999999994" as="sourcePoint"/>
            <mxPoint x="1275" y="495.99999999999994" as="targetPoint"/>
          </mxGeometry>
        </mxCell>
        <mxCell id="kXAHjIqiLY20bqVyl381-29" value="" style="endArrow=none;html=1;fontSize=56;strokeWidth=2;fillColor=#dae8fc;strokeColor=#6c8ebf;" parent="kXAHjIqiLY20bqVyl381-1" source="kXAHjIqiLY20bqVyl381-42" target="kXAHjIqiLY20bqVyl381-40" edge="1">
          <mxGeometry width="50" height="50" relative="1" as="geometry">
            <mxPoint x="1240" y="690" as="sourcePoint"/>
            <mxPoint x="1100" y="730" as="targetPoint"/>
          </mxGeometry>
        </mxCell>
        <mxCell id="kXAHjIqiLY20bqVyl381-30" value="" style="endArrow=none;html=1;fontSize=56;strokeWidth=2;fillColor=#dae8fc;strokeColor=#6c8ebf;" parent="kXAHjIqiLY20bqVyl381-1" source="kXAHjIqiLY20bqVyl381-43" target="kXAHjIqiLY20bqVyl381-42" edge="1">
          <mxGeometry width="50" height="50" relative="1" as="geometry">
            <mxPoint x="1150" y="700" as="sourcePoint"/>
            <mxPoint x="1110" y="740" as="targetPoint"/>
          </mxGeometry>
        </mxCell>
        <mxCell id="kXAHjIqiLY20bqVyl381-31" value="" style="endArrow=none;html=1;fontSize=56;strokeWidth=2;fillColor=#dae8fc;strokeColor=#6c8ebf;" parent="kXAHjIqiLY20bqVyl381-1" source="kXAHjIqiLY20bqVyl381-41" target="kXAHjIqiLY20bqVyl381-42" edge="1">
          <mxGeometry width="50" height="50" relative="1" as="geometry">
            <mxPoint x="1160" y="710" as="sourcePoint"/>
            <mxPoint x="1120" y="750" as="targetPoint"/>
          </mxGeometry>
        </mxCell>
        <mxCell id="kXAHjIqiLY20bqVyl381-32" value="" style="endArrow=none;html=1;fontSize=56;strokeWidth=2;fillColor=#dae8fc;strokeColor=#6c8ebf;" parent="kXAHjIqiLY20bqVyl381-1" source="kXAHjIqiLY20bqVyl381-40" target="kXAHjIqiLY20bqVyl381-41" edge="1">
          <mxGeometry width="50" height="50" relative="1" as="geometry">
            <mxPoint x="1170" y="720" as="sourcePoint"/>
            <mxPoint x="1130" y="760" as="targetPoint"/>
          </mxGeometry>
        </mxCell>
        <mxCell id="kXAHjIqiLY20bqVyl381-33" value="" style="endArrow=none;html=1;fontSize=56;strokeWidth=2;fillColor=#dae8fc;strokeColor=#6c8ebf;" parent="kXAHjIqiLY20bqVyl381-1" source="kXAHjIqiLY20bqVyl381-41" target="kXAHjIqiLY20bqVyl381-44" edge="1">
          <mxGeometry width="50" height="50" relative="1" as="geometry">
            <mxPoint x="1180" y="730" as="sourcePoint"/>
            <mxPoint x="1140" y="770" as="targetPoint"/>
          </mxGeometry>
        </mxCell>
        <mxCell id="kXAHjIqiLY20bqVyl381-34" value="" style="endArrow=none;html=1;fontSize=56;strokeWidth=2;fillColor=#dae8fc;strokeColor=#6c8ebf;" parent="kXAHjIqiLY20bqVyl381-1" source="kXAHjIqiLY20bqVyl381-46" target="kXAHjIqiLY20bqVyl381-44" edge="1">
          <mxGeometry width="50" height="50" relative="1" as="geometry">
            <mxPoint x="1190" y="740" as="sourcePoint"/>
            <mxPoint x="1150" y="780" as="targetPoint"/>
          </mxGeometry>
        </mxCell>
        <mxCell id="kXAHjIqiLY20bqVyl381-35" value="" style="endArrow=none;html=1;fontSize=56;strokeWidth=2;fillColor=#dae8fc;strokeColor=#6c8ebf;" parent="kXAHjIqiLY20bqVyl381-1" source="kXAHjIqiLY20bqVyl381-47" target="kXAHjIqiLY20bqVyl381-46" edge="1">
          <mxGeometry width="50" height="50" relative="1" as="geometry">
            <mxPoint x="1200" y="750" as="sourcePoint"/>
            <mxPoint x="1160" y="790" as="targetPoint"/>
          </mxGeometry>
        </mxCell>
        <mxCell id="kXAHjIqiLY20bqVyl381-36" value="" style="endArrow=none;html=1;fontSize=56;strokeWidth=2;fillColor=#dae8fc;strokeColor=#6c8ebf;" parent="kXAHjIqiLY20bqVyl381-1" source="kXAHjIqiLY20bqVyl381-44" target="kXAHjIqiLY20bqVyl381-45" edge="1">
          <mxGeometry width="50" height="50" relative="1" as="geometry">
            <mxPoint x="1210" y="760" as="sourcePoint"/>
            <mxPoint x="1170" y="800" as="targetPoint"/>
          </mxGeometry>
        </mxCell>
        <mxCell id="kXAHjIqiLY20bqVyl381-37" value="" style="endArrow=none;html=1;fontSize=56;strokeWidth=2;fillColor=#dae8fc;strokeColor=#6c8ebf;" parent="kXAHjIqiLY20bqVyl381-1" source="kXAHjIqiLY20bqVyl381-39" target="kXAHjIqiLY20bqVyl381-45" edge="1">
          <mxGeometry width="50" height="50" relative="1" as="geometry">
            <mxPoint x="1230" y="780" as="sourcePoint"/>
            <mxPoint x="1190" y="820" as="targetPoint"/>
          </mxGeometry>
        </mxCell>
        <mxCell id="kXAHjIqiLY20bqVyl381-38" value="" style="endArrow=none;html=1;fontSize=56;strokeWidth=2;fillColor=#dae8fc;strokeColor=#6c8ebf;" parent="kXAHjIqiLY20bqVyl381-1" source="kXAHjIqiLY20bqVyl381-43" target="kXAHjIqiLY20bqVyl381-46" edge="1">
          <mxGeometry width="50" height="50" relative="1" as="geometry">
            <mxPoint x="1240" y="790" as="sourcePoint"/>
            <mxPoint x="1200" y="830" as="targetPoint"/>
          </mxGeometry>
        </mxCell>
        <mxCell id="kXAHjIqiLY20bqVyl381-39" value="" style="shape=ellipse;fillColor=#0066CC;strokeColor=none;html=1" parent="kXAHjIqiLY20bqVyl381-1" vertex="1">
          <mxGeometry x="1060" y="710" width="20" height="20" as="geometry"/>
        </mxCell>
        <mxCell id="kXAHjIqiLY20bqVyl381-40" value="" style="shape=ellipse;fillColor=#0066CC;strokeColor=none;html=1" parent="kXAHjIqiLY20bqVyl381-1" vertex="1">
          <mxGeometry x="1120" y="650" width="20" height="20" as="geometry"/>
        </mxCell>
        <mxCell id="kXAHjIqiLY20bqVyl381-41" value="" style="shape=ellipse;fillColor=#0066CC;strokeColor=none;html=1" parent="kXAHjIqiLY20bqVyl381-1" vertex="1">
          <mxGeometry x="1170" y="710" width="20" height="20" as="geometry"/>
        </mxCell>
        <mxCell id="kXAHjIqiLY20bqVyl381-42" value="" style="shape=ellipse;fillColor=#0066CC;strokeColor=none;html=1" parent="kXAHjIqiLY20bqVyl381-1" vertex="1">
          <mxGeometry x="1245" y="650" width="20" height="20" as="geometry"/>
        </mxCell>
        <mxCell id="kXAHjIqiLY20bqVyl381-43" value="" style="shape=ellipse;fillColor=#0066CC;strokeColor=none;html=1" parent="kXAHjIqiLY20bqVyl381-1" vertex="1">
          <mxGeometry x="1310" y="710" width="20" height="20" as="geometry"/>
        </mxCell>
        <mxCell id="kXAHjIqiLY20bqVyl381-44" value="" style="shape=ellipse;fillColor=#0066CC;strokeColor=none;html=1" parent="kXAHjIqiLY20bqVyl381-1" vertex="1">
          <mxGeometry x="1170" y="810" width="20" height="20" as="geometry"/>
        </mxCell>
        <mxCell id="kXAHjIqiLY20bqVyl381-45" value="" style="shape=ellipse;fillColor=#0066CC;strokeColor=none;html=1" parent="kXAHjIqiLY20bqVyl381-1" vertex="1">
          <mxGeometry x="1100" y="860" width="20" height="20" as="geometry"/>
        </mxCell>
        <mxCell id="kXAHjIqiLY20bqVyl381-46" value="" style="shape=ellipse;fillColor=#0066CC;strokeColor=none;html=1" parent="kXAHjIqiLY20bqVyl381-1" vertex="1">
          <mxGeometry x="1260" y="850" width="20" height="20" as="geometry"/>
        </mxCell>
        <mxCell id="kXAHjIqiLY20bqVyl381-47" value="" style="shape=ellipse;fillColor=#0066CC;strokeColor=none;html=1" parent="kXAHjIqiLY20bqVyl381-1" vertex="1">
          <mxGeometry x="1170" y="910" width="20" height="20" as="geometry"/>
        </mxCell>
        <mxCell id="kXAHjIqiLY20bqVyl381-115" value="GCN" style="text;html=1;strokeColor=none;fillColor=none;align=center;verticalAlign=middle;whiteSpace=wrap;rounded=0;labelBackgroundColor=#FFFFFF;fontSize=77;opacity=60;" parent="kXAHjIqiLY20bqVyl381-1" vertex="1">
          <mxGeometry x="1055" y="220" width="280" height="90" as="geometry"/>
        </mxCell>
        <mxCell id="kXAHjIqiLY20bqVyl381-116" value="TCN" style="text;html=1;strokeColor=none;fillColor=none;align=center;verticalAlign=middle;whiteSpace=wrap;rounded=0;labelBackgroundColor=#FFFFFF;fontSize=77;opacity=60;" parent="kXAHjIqiLY20bqVyl381-1" vertex="1">
          <mxGeometry x="1567.5" y="220" width="280" height="90" as="geometry"/>
        </mxCell>
        <mxCell id="kXAHjIqiLY20bqVyl381-117" value="" style="rounded=1;whiteSpace=wrap;html=1;fillColor=#A7BCD1;strokeColor=#6c8ebf;opacity=60;" parent="kXAHjIqiLY20bqVyl381-1" vertex="1">
          <mxGeometry x="2520" y="545" width="555" height="210" as="geometry"/>
        </mxCell>
        <mxCell id="kXAHjIqiLY20bqVyl381-118" value="" style="edgeStyle=orthogonalEdgeStyle;rounded=0;orthogonalLoop=1;jettySize=auto;html=1;strokeWidth=10;entryX=0;entryY=0.5;entryDx=0;entryDy=0;" parent="kXAHjIqiLY20bqVyl381-1" source="kXAHjIqiLY20bqVyl381-119" target="kXAHjIqiLY20bqVyl381-117" edge="1">
          <mxGeometry relative="1" as="geometry">
            <mxPoint x="2510" y="650" as="targetPoint"/>
          </mxGeometry>
        </mxCell>
        <mxCell id="kXAHjIqiLY20bqVyl381-119" value="" style="rounded=1;whiteSpace=wrap;html=1;fillColor=#A7BCD1;strokeColor=#6c8ebf;opacity=60;" parent="kXAHjIqiLY20bqVyl381-1" vertex="1">
          <mxGeometry x="2100" y="320" width="310" height="660" as="geometry"/>
        </mxCell>
        <mxCell id="kXAHjIqiLY20bqVyl381-120" value="" style="shape=ellipse;fillColor=#0066CC;strokeColor=none;html=1" parent="kXAHjIqiLY20bqVyl381-1" vertex="1">
          <mxGeometry x="2120" y="389.99999999999994" width="20" height="20" as="geometry"/>
        </mxCell>
        <mxCell id="kXAHjIqiLY20bqVyl381-121" value="" style="shape=ellipse;fillColor=#0066CC;strokeColor=none;html=1" parent="kXAHjIqiLY20bqVyl381-1" vertex="1">
          <mxGeometry x="2180" y="329.99999999999994" width="20" height="20" as="geometry"/>
        </mxCell>
        <mxCell id="kXAHjIqiLY20bqVyl381-122" value="" style="shape=ellipse;fillColor=#0066CC;strokeColor=none;html=1" parent="kXAHjIqiLY20bqVyl381-1" vertex="1">
          <mxGeometry x="2230" y="389.99999999999994" width="20" height="20" as="geometry"/>
        </mxCell>
        <mxCell id="kXAHjIqiLY20bqVyl381-123" value="" style="shape=ellipse;fillColor=#0066CC;strokeColor=none;html=1" parent="kXAHjIqiLY20bqVyl381-1" vertex="1">
          <mxGeometry x="2305" y="329.99999999999994" width="20" height="20" as="geometry"/>
        </mxCell>
        <mxCell id="kXAHjIqiLY20bqVyl381-124" value="" style="shape=ellipse;fillColor=#0066CC;strokeColor=none;html=1" parent="kXAHjIqiLY20bqVyl381-1" vertex="1">
          <mxGeometry x="2370" y="389.99999999999994" width="20" height="20" as="geometry"/>
        </mxCell>
        <mxCell id="kXAHjIqiLY20bqVyl381-125" value="" style="shape=ellipse;fillColor=#0066CC;strokeColor=none;html=1" parent="kXAHjIqiLY20bqVyl381-1" vertex="1">
          <mxGeometry x="2230" y="489.99999999999994" width="20" height="20" as="geometry"/>
        </mxCell>
        <mxCell id="kXAHjIqiLY20bqVyl381-126" value="" style="shape=ellipse;fillColor=#0066CC;strokeColor=none;html=1" parent="kXAHjIqiLY20bqVyl381-1" vertex="1">
          <mxGeometry x="2160" y="540" width="20" height="20" as="geometry"/>
        </mxCell>
        <mxCell id="kXAHjIqiLY20bqVyl381-127" value="" style="shape=ellipse;fillColor=#0066CC;strokeColor=none;html=1" parent="kXAHjIqiLY20bqVyl381-1" vertex="1">
          <mxGeometry x="2320" y="530" width="20" height="20" as="geometry"/>
        </mxCell>
        <mxCell id="kXAHjIqiLY20bqVyl381-128" value="" style="shape=ellipse;fillColor=#0066CC;strokeColor=none;html=1" parent="kXAHjIqiLY20bqVyl381-1" vertex="1">
          <mxGeometry x="2230" y="590" width="20" height="20" as="geometry"/>
        </mxCell>
        <mxCell id="kXAHjIqiLY20bqVyl381-129" value="" style="endArrow=none;html=1;fontSize=56;strokeWidth=2;fillColor=#dae8fc;strokeColor=#6c8ebf;" parent="kXAHjIqiLY20bqVyl381-1" source="kXAHjIqiLY20bqVyl381-121" target="kXAHjIqiLY20bqVyl381-120" edge="1">
          <mxGeometry width="50" height="50" relative="1" as="geometry">
            <mxPoint x="2230" y="134" as="sourcePoint"/>
            <mxPoint x="2335" y="176" as="targetPoint"/>
          </mxGeometry>
        </mxCell>
        <mxCell id="kXAHjIqiLY20bqVyl381-130" value="" style="endArrow=none;html=1;fontSize=56;strokeWidth=2;fillColor=#dae8fc;strokeColor=#6c8ebf;" parent="kXAHjIqiLY20bqVyl381-1" source="kXAHjIqiLY20bqVyl381-123" target="kXAHjIqiLY20bqVyl381-121" edge="1">
          <mxGeometry width="50" height="50" relative="1" as="geometry">
            <mxPoint x="2300" y="369.99999999999994" as="sourcePoint"/>
            <mxPoint x="2160" y="409.99999999999994" as="targetPoint"/>
          </mxGeometry>
        </mxCell>
        <mxCell id="kXAHjIqiLY20bqVyl381-131" value="" style="endArrow=none;html=1;fontSize=56;strokeWidth=2;fillColor=#dae8fc;strokeColor=#6c8ebf;" parent="kXAHjIqiLY20bqVyl381-1" source="kXAHjIqiLY20bqVyl381-124" target="kXAHjIqiLY20bqVyl381-123" edge="1">
          <mxGeometry width="50" height="50" relative="1" as="geometry">
            <mxPoint x="2210" y="379.99999999999994" as="sourcePoint"/>
            <mxPoint x="2170" y="419.99999999999994" as="targetPoint"/>
          </mxGeometry>
        </mxCell>
        <mxCell id="kXAHjIqiLY20bqVyl381-132" value="" style="endArrow=none;html=1;fontSize=56;strokeWidth=2;fillColor=#dae8fc;strokeColor=#6c8ebf;" parent="kXAHjIqiLY20bqVyl381-1" source="kXAHjIqiLY20bqVyl381-122" target="kXAHjIqiLY20bqVyl381-123" edge="1">
          <mxGeometry width="50" height="50" relative="1" as="geometry">
            <mxPoint x="2220" y="389.99999999999994" as="sourcePoint"/>
            <mxPoint x="2180" y="429.99999999999994" as="targetPoint"/>
          </mxGeometry>
        </mxCell>
        <mxCell id="kXAHjIqiLY20bqVyl381-133" value="" style="endArrow=none;html=1;fontSize=56;strokeWidth=2;fillColor=#dae8fc;strokeColor=#6c8ebf;" parent="kXAHjIqiLY20bqVyl381-1" source="kXAHjIqiLY20bqVyl381-121" target="kXAHjIqiLY20bqVyl381-122" edge="1">
          <mxGeometry width="50" height="50" relative="1" as="geometry">
            <mxPoint x="2230" y="399.99999999999994" as="sourcePoint"/>
            <mxPoint x="2190" y="439.99999999999994" as="targetPoint"/>
          </mxGeometry>
        </mxCell>
        <mxCell id="kXAHjIqiLY20bqVyl381-134" value="" style="endArrow=none;html=1;fontSize=56;strokeWidth=2;fillColor=#dae8fc;strokeColor=#6c8ebf;" parent="kXAHjIqiLY20bqVyl381-1" source="kXAHjIqiLY20bqVyl381-122" target="kXAHjIqiLY20bqVyl381-125" edge="1">
          <mxGeometry width="50" height="50" relative="1" as="geometry">
            <mxPoint x="2240" y="409.99999999999994" as="sourcePoint"/>
            <mxPoint x="2200" y="449.99999999999994" as="targetPoint"/>
          </mxGeometry>
        </mxCell>
        <mxCell id="kXAHjIqiLY20bqVyl381-135" value="" style="endArrow=none;html=1;fontSize=56;strokeWidth=2;fillColor=#dae8fc;strokeColor=#6c8ebf;" parent="kXAHjIqiLY20bqVyl381-1" source="kXAHjIqiLY20bqVyl381-127" target="kXAHjIqiLY20bqVyl381-125" edge="1">
          <mxGeometry width="50" height="50" relative="1" as="geometry">
            <mxPoint x="2250" y="419.99999999999994" as="sourcePoint"/>
            <mxPoint x="2210" y="459.99999999999994" as="targetPoint"/>
          </mxGeometry>
        </mxCell>
        <mxCell id="kXAHjIqiLY20bqVyl381-136" value="" style="endArrow=none;html=1;fontSize=56;strokeWidth=2;fillColor=#dae8fc;strokeColor=#6c8ebf;" parent="kXAHjIqiLY20bqVyl381-1" source="kXAHjIqiLY20bqVyl381-128" target="kXAHjIqiLY20bqVyl381-127" edge="1">
          <mxGeometry width="50" height="50" relative="1" as="geometry">
            <mxPoint x="2260" y="429.99999999999994" as="sourcePoint"/>
            <mxPoint x="2220" y="469.99999999999994" as="targetPoint"/>
          </mxGeometry>
        </mxCell>
        <mxCell id="kXAHjIqiLY20bqVyl381-137" value="" style="endArrow=none;html=1;fontSize=56;strokeWidth=2;fillColor=#dae8fc;strokeColor=#6c8ebf;" parent="kXAHjIqiLY20bqVyl381-1" source="kXAHjIqiLY20bqVyl381-125" target="kXAHjIqiLY20bqVyl381-126" edge="1">
          <mxGeometry width="50" height="50" relative="1" as="geometry">
            <mxPoint x="2270" y="439.99999999999994" as="sourcePoint"/>
            <mxPoint x="2230" y="479.99999999999994" as="targetPoint"/>
          </mxGeometry>
        </mxCell>
        <mxCell id="kXAHjIqiLY20bqVyl381-138" value="" style="endArrow=none;html=1;fontSize=56;strokeWidth=2;fillColor=#dae8fc;strokeColor=#6c8ebf;" parent="kXAHjIqiLY20bqVyl381-1" source="kXAHjIqiLY20bqVyl381-120" target="kXAHjIqiLY20bqVyl381-126" edge="1">
          <mxGeometry width="50" height="50" relative="1" as="geometry">
            <mxPoint x="2290" y="459.99999999999994" as="sourcePoint"/>
            <mxPoint x="2250" y="499.99999999999994" as="targetPoint"/>
          </mxGeometry>
        </mxCell>
        <mxCell id="kXAHjIqiLY20bqVyl381-139" value="" style="endArrow=none;html=1;fontSize=56;strokeWidth=2;fillColor=#dae8fc;strokeColor=#6c8ebf;" parent="kXAHjIqiLY20bqVyl381-1" source="kXAHjIqiLY20bqVyl381-124" target="kXAHjIqiLY20bqVyl381-127" edge="1">
          <mxGeometry width="50" height="50" relative="1" as="geometry">
            <mxPoint x="2300" y="469.99999999999994" as="sourcePoint"/>
            <mxPoint x="2260" y="510" as="targetPoint"/>
          </mxGeometry>
        </mxCell>
        <mxCell id="kXAHjIqiLY20bqVyl381-140" value="" style="endArrow=none;html=1;fontSize=56;strokeWidth=2;fillColor=#dae8fc;strokeColor=#6c8ebf;" parent="kXAHjIqiLY20bqVyl381-1" source="kXAHjIqiLY20bqVyl381-152" target="kXAHjIqiLY20bqVyl381-151" edge="1">
          <mxGeometry width="50" height="50" relative="1" as="geometry">
            <mxPoint x="2230" y="453.99999999999994" as="sourcePoint"/>
            <mxPoint x="2335" y="495.99999999999994" as="targetPoint"/>
          </mxGeometry>
        </mxCell>
        <mxCell id="kXAHjIqiLY20bqVyl381-141" value="" style="endArrow=none;html=1;fontSize=56;strokeWidth=2;fillColor=#dae8fc;strokeColor=#6c8ebf;" parent="kXAHjIqiLY20bqVyl381-1" source="kXAHjIqiLY20bqVyl381-154" target="kXAHjIqiLY20bqVyl381-152" edge="1">
          <mxGeometry width="50" height="50" relative="1" as="geometry">
            <mxPoint x="2300" y="690" as="sourcePoint"/>
            <mxPoint x="2160" y="730" as="targetPoint"/>
          </mxGeometry>
        </mxCell>
        <mxCell id="kXAHjIqiLY20bqVyl381-142" value="" style="endArrow=none;html=1;fontSize=56;strokeWidth=2;fillColor=#dae8fc;strokeColor=#6c8ebf;" parent="kXAHjIqiLY20bqVyl381-1" source="kXAHjIqiLY20bqVyl381-155" target="kXAHjIqiLY20bqVyl381-154" edge="1">
          <mxGeometry width="50" height="50" relative="1" as="geometry">
            <mxPoint x="2210" y="700" as="sourcePoint"/>
            <mxPoint x="2170" y="740" as="targetPoint"/>
          </mxGeometry>
        </mxCell>
        <mxCell id="kXAHjIqiLY20bqVyl381-143" value="" style="endArrow=none;html=1;fontSize=56;strokeWidth=2;fillColor=#dae8fc;strokeColor=#6c8ebf;" parent="kXAHjIqiLY20bqVyl381-1" source="kXAHjIqiLY20bqVyl381-153" target="kXAHjIqiLY20bqVyl381-154" edge="1">
          <mxGeometry width="50" height="50" relative="1" as="geometry">
            <mxPoint x="2220" y="710" as="sourcePoint"/>
            <mxPoint x="2180" y="750" as="targetPoint"/>
          </mxGeometry>
        </mxCell>
        <mxCell id="kXAHjIqiLY20bqVyl381-144" value="" style="endArrow=none;html=1;fontSize=56;strokeWidth=2;fillColor=#dae8fc;strokeColor=#6c8ebf;" parent="kXAHjIqiLY20bqVyl381-1" source="kXAHjIqiLY20bqVyl381-152" target="kXAHjIqiLY20bqVyl381-153" edge="1">
          <mxGeometry width="50" height="50" relative="1" as="geometry">
            <mxPoint x="2230" y="720" as="sourcePoint"/>
            <mxPoint x="2190" y="760" as="targetPoint"/>
          </mxGeometry>
        </mxCell>
        <mxCell id="kXAHjIqiLY20bqVyl381-145" value="" style="endArrow=none;html=1;fontSize=56;strokeWidth=2;fillColor=#dae8fc;strokeColor=#6c8ebf;" parent="kXAHjIqiLY20bqVyl381-1" source="kXAHjIqiLY20bqVyl381-153" target="kXAHjIqiLY20bqVyl381-156" edge="1">
          <mxGeometry width="50" height="50" relative="1" as="geometry">
            <mxPoint x="2240" y="730" as="sourcePoint"/>
            <mxPoint x="2200" y="770" as="targetPoint"/>
          </mxGeometry>
        </mxCell>
        <mxCell id="kXAHjIqiLY20bqVyl381-146" value="" style="endArrow=none;html=1;fontSize=56;strokeWidth=2;fillColor=#dae8fc;strokeColor=#6c8ebf;" parent="kXAHjIqiLY20bqVyl381-1" source="kXAHjIqiLY20bqVyl381-158" target="kXAHjIqiLY20bqVyl381-156" edge="1">
          <mxGeometry width="50" height="50" relative="1" as="geometry">
            <mxPoint x="2250" y="740" as="sourcePoint"/>
            <mxPoint x="2210" y="780" as="targetPoint"/>
          </mxGeometry>
        </mxCell>
        <mxCell id="kXAHjIqiLY20bqVyl381-147" value="" style="endArrow=none;html=1;fontSize=56;strokeWidth=2;fillColor=#dae8fc;strokeColor=#6c8ebf;" parent="kXAHjIqiLY20bqVyl381-1" source="kXAHjIqiLY20bqVyl381-159" target="kXAHjIqiLY20bqVyl381-158" edge="1">
          <mxGeometry width="50" height="50" relative="1" as="geometry">
            <mxPoint x="2260" y="750" as="sourcePoint"/>
            <mxPoint x="2220" y="790" as="targetPoint"/>
          </mxGeometry>
        </mxCell>
        <mxCell id="kXAHjIqiLY20bqVyl381-148" value="" style="endArrow=none;html=1;fontSize=56;strokeWidth=2;fillColor=#dae8fc;strokeColor=#6c8ebf;" parent="kXAHjIqiLY20bqVyl381-1" source="kXAHjIqiLY20bqVyl381-156" target="kXAHjIqiLY20bqVyl381-157" edge="1">
          <mxGeometry width="50" height="50" relative="1" as="geometry">
            <mxPoint x="2270" y="760" as="sourcePoint"/>
            <mxPoint x="2230" y="800" as="targetPoint"/>
          </mxGeometry>
        </mxCell>
        <mxCell id="kXAHjIqiLY20bqVyl381-149" value="" style="endArrow=none;html=1;fontSize=56;strokeWidth=2;fillColor=#dae8fc;strokeColor=#6c8ebf;" parent="kXAHjIqiLY20bqVyl381-1" source="kXAHjIqiLY20bqVyl381-151" target="kXAHjIqiLY20bqVyl381-157" edge="1">
          <mxGeometry width="50" height="50" relative="1" as="geometry">
            <mxPoint x="2290" y="780" as="sourcePoint"/>
            <mxPoint x="2250" y="820" as="targetPoint"/>
          </mxGeometry>
        </mxCell>
        <mxCell id="kXAHjIqiLY20bqVyl381-150" value="" style="endArrow=none;html=1;fontSize=56;strokeWidth=2;fillColor=#dae8fc;strokeColor=#6c8ebf;" parent="kXAHjIqiLY20bqVyl381-1" source="kXAHjIqiLY20bqVyl381-155" target="kXAHjIqiLY20bqVyl381-158" edge="1">
          <mxGeometry width="50" height="50" relative="1" as="geometry">
            <mxPoint x="2300" y="790" as="sourcePoint"/>
            <mxPoint x="2260" y="830" as="targetPoint"/>
          </mxGeometry>
        </mxCell>
        <mxCell id="kXAHjIqiLY20bqVyl381-151" value="" style="shape=ellipse;fillColor=#0066CC;strokeColor=none;html=1" parent="kXAHjIqiLY20bqVyl381-1" vertex="1">
          <mxGeometry x="2120" y="710" width="20" height="20" as="geometry"/>
        </mxCell>
        <mxCell id="kXAHjIqiLY20bqVyl381-152" value="" style="shape=ellipse;fillColor=#0066CC;strokeColor=none;html=1" parent="kXAHjIqiLY20bqVyl381-1" vertex="1">
          <mxGeometry x="2180" y="650" width="20" height="20" as="geometry"/>
        </mxCell>
        <mxCell id="kXAHjIqiLY20bqVyl381-153" value="" style="shape=ellipse;fillColor=#0066CC;strokeColor=none;html=1" parent="kXAHjIqiLY20bqVyl381-1" vertex="1">
          <mxGeometry x="2230" y="710" width="20" height="20" as="geometry"/>
        </mxCell>
        <mxCell id="kXAHjIqiLY20bqVyl381-154" value="" style="shape=ellipse;fillColor=#0066CC;strokeColor=none;html=1" parent="kXAHjIqiLY20bqVyl381-1" vertex="1">
          <mxGeometry x="2305" y="650" width="20" height="20" as="geometry"/>
        </mxCell>
        <mxCell id="kXAHjIqiLY20bqVyl381-155" value="" style="shape=ellipse;fillColor=#0066CC;strokeColor=none;html=1" parent="kXAHjIqiLY20bqVyl381-1" vertex="1">
          <mxGeometry x="2370" y="710" width="20" height="20" as="geometry"/>
        </mxCell>
        <mxCell id="kXAHjIqiLY20bqVyl381-156" value="" style="shape=ellipse;fillColor=#0066CC;strokeColor=none;html=1" parent="kXAHjIqiLY20bqVyl381-1" vertex="1">
          <mxGeometry x="2230" y="810" width="20" height="20" as="geometry"/>
        </mxCell>
        <mxCell id="kXAHjIqiLY20bqVyl381-157" value="" style="shape=ellipse;fillColor=#0066CC;strokeColor=none;html=1" parent="kXAHjIqiLY20bqVyl381-1" vertex="1">
          <mxGeometry x="2160" y="860" width="20" height="20" as="geometry"/>
        </mxCell>
        <mxCell id="kXAHjIqiLY20bqVyl381-158" value="" style="shape=ellipse;fillColor=#0066CC;strokeColor=none;html=1" parent="kXAHjIqiLY20bqVyl381-1" vertex="1">
          <mxGeometry x="2320" y="850" width="20" height="20" as="geometry"/>
        </mxCell>
        <mxCell id="kXAHjIqiLY20bqVyl381-159" value="" style="shape=ellipse;fillColor=#0066CC;strokeColor=none;html=1" parent="kXAHjIqiLY20bqVyl381-1" vertex="1">
          <mxGeometry x="2230" y="910" width="20" height="20" as="geometry"/>
        </mxCell>
        <mxCell id="kXAHjIqiLY20bqVyl381-160" value="" style="shape=ellipse;fillColor=#0066CC;strokeColor=none;html=1" parent="kXAHjIqiLY20bqVyl381-1" vertex="1">
          <mxGeometry x="2547.5" y="595" width="20" height="20" as="geometry"/>
        </mxCell>
        <mxCell id="kXAHjIqiLY20bqVyl381-161" value="" style="shape=ellipse;fillColor=#0066CC;strokeColor=none;html=1" parent="kXAHjIqiLY20bqVyl381-1" vertex="1">
          <mxGeometry x="2587.5" y="595" width="20" height="20" as="geometry"/>
        </mxCell>
        <mxCell id="kXAHjIqiLY20bqVyl381-162" value="" style="shape=ellipse;fillColor=#0066CC;strokeColor=none;html=1" parent="kXAHjIqiLY20bqVyl381-1" vertex="1">
          <mxGeometry x="2627.5" y="595" width="20" height="20" as="geometry"/>
        </mxCell>
        <mxCell id="kXAHjIqiLY20bqVyl381-163" value="" style="shape=ellipse;fillColor=#0066CC;strokeColor=none;html=1" parent="kXAHjIqiLY20bqVyl381-1" vertex="1">
          <mxGeometry x="2667.5" y="595" width="20" height="20" as="geometry"/>
        </mxCell>
        <mxCell id="kXAHjIqiLY20bqVyl381-164" value="" style="shape=ellipse;fillColor=#0066CC;strokeColor=none;html=1" parent="kXAHjIqiLY20bqVyl381-1" vertex="1">
          <mxGeometry x="2707.5" y="595" width="20" height="20" as="geometry"/>
        </mxCell>
        <mxCell id="kXAHjIqiLY20bqVyl381-165" value="" style="shape=ellipse;fillColor=#0066CC;strokeColor=none;html=1" parent="kXAHjIqiLY20bqVyl381-1" vertex="1">
          <mxGeometry x="2747.5" y="595" width="20" height="20" as="geometry"/>
        </mxCell>
        <mxCell id="kXAHjIqiLY20bqVyl381-166" value="" style="shape=ellipse;fillColor=#0066CC;strokeColor=none;html=1" parent="kXAHjIqiLY20bqVyl381-1" vertex="1">
          <mxGeometry x="2547.5" y="635" width="20" height="20" as="geometry"/>
        </mxCell>
        <mxCell id="kXAHjIqiLY20bqVyl381-167" value="" style="shape=ellipse;fillColor=#0066CC;strokeColor=none;html=1" parent="kXAHjIqiLY20bqVyl381-1" vertex="1">
          <mxGeometry x="2587.5" y="635" width="20" height="20" as="geometry"/>
        </mxCell>
        <mxCell id="kXAHjIqiLY20bqVyl381-168" value="" style="shape=ellipse;fillColor=#0066CC;strokeColor=none;html=1" parent="kXAHjIqiLY20bqVyl381-1" vertex="1">
          <mxGeometry x="2627.5" y="635" width="20" height="20" as="geometry"/>
        </mxCell>
        <mxCell id="kXAHjIqiLY20bqVyl381-169" value="" style="shape=ellipse;fillColor=#0066CC;strokeColor=none;html=1" parent="kXAHjIqiLY20bqVyl381-1" vertex="1">
          <mxGeometry x="2667.5" y="635" width="20" height="20" as="geometry"/>
        </mxCell>
        <mxCell id="kXAHjIqiLY20bqVyl381-170" value="" style="shape=ellipse;fillColor=#0066CC;strokeColor=none;html=1" parent="kXAHjIqiLY20bqVyl381-1" vertex="1">
          <mxGeometry x="2707.5" y="635" width="20" height="20" as="geometry"/>
        </mxCell>
        <mxCell id="kXAHjIqiLY20bqVyl381-171" value="" style="shape=ellipse;fillColor=#0066CC;strokeColor=none;html=1" parent="kXAHjIqiLY20bqVyl381-1" vertex="1">
          <mxGeometry x="2747.5" y="635" width="20" height="20" as="geometry"/>
        </mxCell>
        <mxCell id="kXAHjIqiLY20bqVyl381-172" value="" style="shape=ellipse;fillColor=#0066CC;strokeColor=none;html=1" parent="kXAHjIqiLY20bqVyl381-1" vertex="1">
          <mxGeometry x="2547.5" y="675" width="20" height="20" as="geometry"/>
        </mxCell>
        <mxCell id="kXAHjIqiLY20bqVyl381-173" value="" style="shape=ellipse;fillColor=#0066CC;strokeColor=none;html=1" parent="kXAHjIqiLY20bqVyl381-1" vertex="1">
          <mxGeometry x="2587.5" y="675" width="20" height="20" as="geometry"/>
        </mxCell>
        <mxCell id="kXAHjIqiLY20bqVyl381-174" value="" style="shape=ellipse;fillColor=#0066CC;strokeColor=none;html=1" parent="kXAHjIqiLY20bqVyl381-1" vertex="1">
          <mxGeometry x="2627.5" y="675" width="20" height="20" as="geometry"/>
        </mxCell>
        <mxCell id="kXAHjIqiLY20bqVyl381-175" value="" style="shape=ellipse;fillColor=#0066CC;strokeColor=none;html=1" parent="kXAHjIqiLY20bqVyl381-1" vertex="1">
          <mxGeometry x="2667.5" y="675" width="20" height="20" as="geometry"/>
        </mxCell>
        <mxCell id="kXAHjIqiLY20bqVyl381-176" value="" style="shape=ellipse;fillColor=#0066CC;strokeColor=none;html=1" parent="kXAHjIqiLY20bqVyl381-1" vertex="1">
          <mxGeometry x="2707.5" y="675" width="20" height="20" as="geometry"/>
        </mxCell>
        <mxCell id="kXAHjIqiLY20bqVyl381-177" value="" style="shape=ellipse;fillColor=#0066CC;strokeColor=none;html=1" parent="kXAHjIqiLY20bqVyl381-1" vertex="1">
          <mxGeometry x="2747.5" y="675" width="20" height="20" as="geometry"/>
        </mxCell>
        <mxCell id="kXAHjIqiLY20bqVyl381-178" value="" style="shape=ellipse;fillColor=#0066CC;strokeColor=none;html=1" parent="kXAHjIqiLY20bqVyl381-1" vertex="1">
          <mxGeometry x="2787.5" y="595" width="20" height="20" as="geometry"/>
        </mxCell>
        <mxCell id="kXAHjIqiLY20bqVyl381-179" value="" style="shape=ellipse;fillColor=#0066CC;strokeColor=none;html=1" parent="kXAHjIqiLY20bqVyl381-1" vertex="1">
          <mxGeometry x="2827.5" y="595" width="20" height="20" as="geometry"/>
        </mxCell>
        <mxCell id="kXAHjIqiLY20bqVyl381-180" value="" style="shape=ellipse;fillColor=#0066CC;strokeColor=none;html=1" parent="kXAHjIqiLY20bqVyl381-1" vertex="1">
          <mxGeometry x="2867.5" y="595" width="20" height="20" as="geometry"/>
        </mxCell>
        <mxCell id="kXAHjIqiLY20bqVyl381-181" value="" style="shape=ellipse;fillColor=#0066CC;strokeColor=none;html=1" parent="kXAHjIqiLY20bqVyl381-1" vertex="1">
          <mxGeometry x="2907.5" y="595" width="20" height="20" as="geometry"/>
        </mxCell>
        <mxCell id="kXAHjIqiLY20bqVyl381-182" value="" style="shape=ellipse;fillColor=#0066CC;strokeColor=none;html=1" parent="kXAHjIqiLY20bqVyl381-1" vertex="1">
          <mxGeometry x="2947.5" y="595" width="20" height="20" as="geometry"/>
        </mxCell>
        <mxCell id="kXAHjIqiLY20bqVyl381-183" value="" style="shape=ellipse;fillColor=#0066CC;strokeColor=none;html=1" parent="kXAHjIqiLY20bqVyl381-1" vertex="1">
          <mxGeometry x="2987.5" y="595" width="20" height="20" as="geometry"/>
        </mxCell>
        <mxCell id="kXAHjIqiLY20bqVyl381-184" value="" style="shape=ellipse;fillColor=#0066CC;strokeColor=none;html=1" parent="kXAHjIqiLY20bqVyl381-1" vertex="1">
          <mxGeometry x="2787.5" y="635" width="20" height="20" as="geometry"/>
        </mxCell>
        <mxCell id="kXAHjIqiLY20bqVyl381-185" value="" style="shape=ellipse;fillColor=#0066CC;strokeColor=none;html=1" parent="kXAHjIqiLY20bqVyl381-1" vertex="1">
          <mxGeometry x="2827.5" y="635" width="20" height="20" as="geometry"/>
        </mxCell>
        <mxCell id="kXAHjIqiLY20bqVyl381-186" value="" style="shape=ellipse;fillColor=#0066CC;strokeColor=none;html=1" parent="kXAHjIqiLY20bqVyl381-1" vertex="1">
          <mxGeometry x="2867.5" y="635" width="20" height="20" as="geometry"/>
        </mxCell>
        <mxCell id="kXAHjIqiLY20bqVyl381-187" value="" style="shape=ellipse;fillColor=#0066CC;strokeColor=none;html=1" parent="kXAHjIqiLY20bqVyl381-1" vertex="1">
          <mxGeometry x="2907.5" y="635" width="20" height="20" as="geometry"/>
        </mxCell>
        <mxCell id="kXAHjIqiLY20bqVyl381-188" value="" style="shape=ellipse;fillColor=#0066CC;strokeColor=none;html=1" parent="kXAHjIqiLY20bqVyl381-1" vertex="1">
          <mxGeometry x="2947.5" y="635" width="20" height="20" as="geometry"/>
        </mxCell>
        <mxCell id="kXAHjIqiLY20bqVyl381-189" value="" style="shape=ellipse;fillColor=#0066CC;strokeColor=none;html=1" parent="kXAHjIqiLY20bqVyl381-1" vertex="1">
          <mxGeometry x="2987.5" y="635" width="20" height="20" as="geometry"/>
        </mxCell>
        <mxCell id="kXAHjIqiLY20bqVyl381-190" value="" style="shape=ellipse;fillColor=#0066CC;strokeColor=none;html=1" parent="kXAHjIqiLY20bqVyl381-1" vertex="1">
          <mxGeometry x="2787.5" y="675" width="20" height="20" as="geometry"/>
        </mxCell>
        <mxCell id="kXAHjIqiLY20bqVyl381-191" value="" style="shape=ellipse;fillColor=#0066CC;strokeColor=none;html=1" parent="kXAHjIqiLY20bqVyl381-1" vertex="1">
          <mxGeometry x="2827.5" y="675" width="20" height="20" as="geometry"/>
        </mxCell>
        <mxCell id="kXAHjIqiLY20bqVyl381-192" value="" style="shape=ellipse;fillColor=#0066CC;strokeColor=none;html=1" parent="kXAHjIqiLY20bqVyl381-1" vertex="1">
          <mxGeometry x="2867.5" y="675" width="20" height="20" as="geometry"/>
        </mxCell>
        <mxCell id="kXAHjIqiLY20bqVyl381-193" value="" style="shape=ellipse;fillColor=#0066CC;strokeColor=none;html=1" parent="kXAHjIqiLY20bqVyl381-1" vertex="1">
          <mxGeometry x="2907.5" y="675" width="20" height="20" as="geometry"/>
        </mxCell>
        <mxCell id="kXAHjIqiLY20bqVyl381-194" value="" style="shape=ellipse;fillColor=#0066CC;strokeColor=none;html=1" parent="kXAHjIqiLY20bqVyl381-1" vertex="1">
          <mxGeometry x="2947.5" y="675" width="20" height="20" as="geometry"/>
        </mxCell>
        <mxCell id="kXAHjIqiLY20bqVyl381-195" value="" style="shape=ellipse;fillColor=#0066CC;strokeColor=none;html=1" parent="kXAHjIqiLY20bqVyl381-1" vertex="1">
          <mxGeometry x="2987.5" y="675" width="20" height="20" as="geometry"/>
        </mxCell>
        <mxCell id="kXAHjIqiLY20bqVyl381-196" value="" style="endArrow=classic;html=1;strokeWidth=3;fillColor=#d5e8d4;strokeColor=#00CC00;" parent="kXAHjIqiLY20bqVyl381-1" edge="1">
          <mxGeometry width="50" height="50" relative="1" as="geometry">
            <mxPoint x="3037.5" y="595" as="sourcePoint"/>
            <mxPoint x="3037.5" y="705" as="targetPoint"/>
          </mxGeometry>
        </mxCell>
        <mxCell id="kXAHjIqiLY20bqVyl381-197" value="temporal" style="text;html=1;align=center;verticalAlign=middle;resizable=0;points=[];;horizontal=0;rotation=-180;fontSize=21;rounded=1;strokeColor=#6c8ebf;fillColor=#A7BCD1;opacity=60;labelBackgroundColor=#67AB9F;labelBorderColor=none;" parent="kXAHjIqiLY20bqVyl381-196" vertex="1" connectable="0">
          <mxGeometry x="-0.3775" y="1" relative="1" as="geometry">
            <mxPoint y="15.52" as="offset"/>
          </mxGeometry>
        </mxCell>
        <mxCell id="kXAHjIqiLY20bqVyl381-198" value="" style="rounded=0;whiteSpace=wrap;html=1;labelBackgroundColor=none;fillColor=#f8cecc;fontSize=18;opacity=60;strokeColor=#b85450;" parent="kXAHjIqiLY20bqVyl381-1" vertex="1">
          <mxGeometry x="2542.5" y="555" width="30" height="100" as="geometry"/>
        </mxCell>
        <mxCell id="kXAHjIqiLY20bqVyl381-199" value="" style="shape=ellipse;html=1" parent="kXAHjIqiLY20bqVyl381-1" vertex="1">
          <mxGeometry x="2547.5" y="555" width="20" height="20" as="geometry"/>
        </mxCell>
        <mxCell id="kXAHjIqiLY20bqVyl381-200" value="" style="shape=ellipse;html=1" parent="kXAHjIqiLY20bqVyl381-1" vertex="1">
          <mxGeometry x="2587.5" y="555" width="20" height="20" as="geometry"/>
        </mxCell>
        <mxCell id="kXAHjIqiLY20bqVyl381-201" value="" style="shape=ellipse;html=1" parent="kXAHjIqiLY20bqVyl381-1" vertex="1">
          <mxGeometry x="2627.5" y="555" width="20" height="20" as="geometry"/>
        </mxCell>
        <mxCell id="kXAHjIqiLY20bqVyl381-202" value="" style="shape=ellipse;html=1" parent="kXAHjIqiLY20bqVyl381-1" vertex="1">
          <mxGeometry x="2667.5" y="555" width="20" height="20" as="geometry"/>
        </mxCell>
        <mxCell id="kXAHjIqiLY20bqVyl381-203" value="" style="shape=ellipse;html=1" parent="kXAHjIqiLY20bqVyl381-1" vertex="1">
          <mxGeometry x="2707.5" y="555" width="20" height="20" as="geometry"/>
        </mxCell>
        <mxCell id="kXAHjIqiLY20bqVyl381-204" value="" style="shape=ellipse;html=1" parent="kXAHjIqiLY20bqVyl381-1" vertex="1">
          <mxGeometry x="2747.5" y="555" width="20" height="20" as="geometry"/>
        </mxCell>
        <mxCell id="kXAHjIqiLY20bqVyl381-205" value="" style="shape=ellipse;html=1" parent="kXAHjIqiLY20bqVyl381-1" vertex="1">
          <mxGeometry x="2787.5" y="555" width="20" height="20" as="geometry"/>
        </mxCell>
        <mxCell id="kXAHjIqiLY20bqVyl381-206" value="" style="shape=ellipse;html=1" parent="kXAHjIqiLY20bqVyl381-1" vertex="1">
          <mxGeometry x="2827.5" y="555" width="20" height="20" as="geometry"/>
        </mxCell>
        <mxCell id="kXAHjIqiLY20bqVyl381-207" value="" style="shape=ellipse;html=1" parent="kXAHjIqiLY20bqVyl381-1" vertex="1">
          <mxGeometry x="2867.5" y="555" width="20" height="20" as="geometry"/>
        </mxCell>
        <mxCell id="kXAHjIqiLY20bqVyl381-208" value="" style="shape=ellipse;html=1" parent="kXAHjIqiLY20bqVyl381-1" vertex="1">
          <mxGeometry x="2907.5" y="555" width="20" height="20" as="geometry"/>
        </mxCell>
        <mxCell id="kXAHjIqiLY20bqVyl381-209" value="" style="shape=ellipse;html=1" parent="kXAHjIqiLY20bqVyl381-1" vertex="1">
          <mxGeometry x="2947.5" y="555" width="20" height="20" as="geometry"/>
        </mxCell>
        <mxCell id="kXAHjIqiLY20bqVyl381-210" value="" style="shape=ellipse;html=1" parent="kXAHjIqiLY20bqVyl381-1" vertex="1">
          <mxGeometry x="2987.5" y="555" width="20" height="20" as="geometry"/>
        </mxCell>
        <mxCell id="kXAHjIqiLY20bqVyl381-211" value="" style="shape=ellipse;html=1" parent="kXAHjIqiLY20bqVyl381-1" vertex="1">
          <mxGeometry x="2547.5" y="715" width="20" height="20" as="geometry"/>
        </mxCell>
        <mxCell id="kXAHjIqiLY20bqVyl381-212" value="" style="shape=ellipse;html=1" parent="kXAHjIqiLY20bqVyl381-1" vertex="1">
          <mxGeometry x="2587.5" y="715" width="20" height="20" as="geometry"/>
        </mxCell>
        <mxCell id="kXAHjIqiLY20bqVyl381-213" value="" style="shape=ellipse;html=1" parent="kXAHjIqiLY20bqVyl381-1" vertex="1">
          <mxGeometry x="2627.5" y="715" width="20" height="20" as="geometry"/>
        </mxCell>
        <mxCell id="kXAHjIqiLY20bqVyl381-214" value="" style="shape=ellipse;html=1" parent="kXAHjIqiLY20bqVyl381-1" vertex="1">
          <mxGeometry x="2667.5" y="715" width="20" height="20" as="geometry"/>
        </mxCell>
        <mxCell id="kXAHjIqiLY20bqVyl381-215" value="" style="shape=ellipse;html=1" parent="kXAHjIqiLY20bqVyl381-1" vertex="1">
          <mxGeometry x="2707.5" y="715" width="20" height="20" as="geometry"/>
        </mxCell>
        <mxCell id="kXAHjIqiLY20bqVyl381-216" value="" style="shape=ellipse;html=1" parent="kXAHjIqiLY20bqVyl381-1" vertex="1">
          <mxGeometry x="2747.5" y="715" width="20" height="20" as="geometry"/>
        </mxCell>
        <mxCell id="kXAHjIqiLY20bqVyl381-217" value="" style="shape=ellipse;html=1" parent="kXAHjIqiLY20bqVyl381-1" vertex="1">
          <mxGeometry x="2787.5" y="715" width="20" height="20" as="geometry"/>
        </mxCell>
        <mxCell id="kXAHjIqiLY20bqVyl381-218" value="" style="shape=ellipse;html=1" parent="kXAHjIqiLY20bqVyl381-1" vertex="1">
          <mxGeometry x="2827.5" y="715" width="20" height="20" as="geometry"/>
        </mxCell>
        <mxCell id="kXAHjIqiLY20bqVyl381-219" value="" style="shape=ellipse;html=1" parent="kXAHjIqiLY20bqVyl381-1" vertex="1">
          <mxGeometry x="2867.5" y="715" width="20" height="20" as="geometry"/>
        </mxCell>
        <mxCell id="kXAHjIqiLY20bqVyl381-220" value="" style="shape=ellipse;html=1" parent="kXAHjIqiLY20bqVyl381-1" vertex="1">
          <mxGeometry x="2907.5" y="715" width="20" height="20" as="geometry"/>
        </mxCell>
        <mxCell id="kXAHjIqiLY20bqVyl381-221" value="" style="shape=ellipse;html=1" parent="kXAHjIqiLY20bqVyl381-1" vertex="1">
          <mxGeometry x="2947.5" y="715" width="20" height="20" as="geometry"/>
        </mxCell>
        <mxCell id="kXAHjIqiLY20bqVyl381-222" value="" style="shape=ellipse;html=1" parent="kXAHjIqiLY20bqVyl381-1" vertex="1">
          <mxGeometry x="2987.5" y="715" width="20" height="20" as="geometry"/>
        </mxCell>
        <mxCell id="kXAHjIqiLY20bqVyl381-223" value="" style="rounded=0;whiteSpace=wrap;html=1;labelBackgroundColor=none;fillColor=#f8cecc;fontSize=18;opacity=60;strokeColor=#b85450;" parent="kXAHjIqiLY20bqVyl381-1" vertex="1">
          <mxGeometry x="2622.5" y="595" width="30" height="100" as="geometry"/>
        </mxCell>
        <mxCell id="kXAHjIqiLY20bqVyl381-224" value="" style="rounded=0;whiteSpace=wrap;html=1;labelBackgroundColor=none;fillColor=#f8cecc;fontSize=18;opacity=60;strokeColor=#b85450;" parent="kXAHjIqiLY20bqVyl381-1" vertex="1">
          <mxGeometry x="2742.5" y="635" width="30" height="100" as="geometry"/>
        </mxCell>
        <mxCell id="kXAHjIqiLY20bqVyl381-225" value="Pad" style="text;html=1;strokeColor=none;fillColor=none;align=center;verticalAlign=middle;whiteSpace=wrap;rounded=0;labelBackgroundColor=none;fontSize=18;opacity=60;" parent="kXAHjIqiLY20bqVyl381-1" vertex="1">
          <mxGeometry x="3017.5" y="555" width="40" height="20" as="geometry"/>
        </mxCell>
        <mxCell id="kXAHjIqiLY20bqVyl381-226" value="Pad" style="text;html=1;strokeColor=none;fillColor=none;align=center;verticalAlign=middle;whiteSpace=wrap;rounded=0;labelBackgroundColor=none;fontSize=18;opacity=60;" parent="kXAHjIqiLY20bqVyl381-1" vertex="1">
          <mxGeometry x="3017.5" y="715" width="40" height="20" as="geometry"/>
        </mxCell>
        <mxCell id="kXAHjIqiLY20bqVyl381-227" value="GCN" style="text;html=1;strokeColor=none;fillColor=none;align=center;verticalAlign=middle;whiteSpace=wrap;rounded=0;labelBackgroundColor=#FFFFFF;fontSize=77;opacity=60;" parent="kXAHjIqiLY20bqVyl381-1" vertex="1">
          <mxGeometry x="2115" y="220" width="280" height="90" as="geometry"/>
        </mxCell>
        <mxCell id="kXAHjIqiLY20bqVyl381-228" value="TCN" style="text;html=1;strokeColor=none;fillColor=none;align=center;verticalAlign=middle;whiteSpace=wrap;rounded=0;labelBackgroundColor=#FFFFFF;fontSize=77;opacity=60;" parent="kXAHjIqiLY20bqVyl381-1" vertex="1">
          <mxGeometry x="2647.5" y="220" width="280" height="90" as="geometry"/>
        </mxCell>
        <mxCell id="kXAHjIqiLY20bqVyl381-229" value="" style="rounded=0;whiteSpace=wrap;html=1;labelBackgroundColor=#FFFFFF;fillColor=none;gradientColor=none;fontSize=77;opacity=60;" parent="kXAHjIqiLY20bqVyl381-1" vertex="1">
          <mxGeometry x="3180" y="550" width="120" height="200" as="geometry"/>
        </mxCell>
        <mxCell id="kXAHjIqiLY20bqVyl381-230" value="FCN" style="text;html=1;strokeColor=none;fillColor=none;align=center;verticalAlign=middle;whiteSpace=wrap;rounded=0;labelBackgroundColor=#FFFFFF;fontSize=77;opacity=60;" parent="kXAHjIqiLY20bqVyl381-1" vertex="1">
          <mxGeometry x="3075" y="220" width="280" height="90" as="geometry"/>
        </mxCell>
        <mxCell id="kXAHjIqiLY20bqVyl381-231" value="" style="edgeStyle=orthogonalEdgeStyle;rounded=0;orthogonalLoop=1;jettySize=auto;html=1;strokeWidth=10;entryX=0;entryY=0.5;entryDx=0;entryDy=0;exitX=1;exitY=0.5;exitDx=0;exitDy=0;" parent="kXAHjIqiLY20bqVyl381-1" source="kXAHjIqiLY20bqVyl381-117" target="kXAHjIqiLY20bqVyl381-229" edge="1">
          <mxGeometry relative="1" as="geometry">
            <mxPoint x="2530.333333333334" y="660.3333333333335" as="targetPoint"/>
            <mxPoint x="2420" y="660.3333333333335" as="sourcePoint"/>
          </mxGeometry>
        </mxCell>
        <mxCell id="kXAHjIqiLY20bqVyl381-232" value="" style="shape=ellipse;fillColor=#0066CC;strokeColor=none;html=1" parent="kXAHjIqiLY20bqVyl381-1" vertex="1">
          <mxGeometry x="3200" y="600" width="20" height="20" as="geometry"/>
        </mxCell>
        <mxCell id="kXAHjIqiLY20bqVyl381-233" value="" style="shape=ellipse;fillColor=#0066CC;strokeColor=none;html=1" parent="kXAHjIqiLY20bqVyl381-1" vertex="1">
          <mxGeometry x="3200" y="640" width="20" height="20" as="geometry"/>
        </mxCell>
        <mxCell id="kXAHjIqiLY20bqVyl381-234" value="" style="shape=ellipse;fillColor=#0066CC;strokeColor=none;html=1" parent="kXAHjIqiLY20bqVyl381-1" vertex="1">
          <mxGeometry x="3200" y="680" width="20" height="20" as="geometry"/>
        </mxCell>
        <mxCell id="kXAHjIqiLY20bqVyl381-235" value="" style="shape=ellipse;html=1;strokeColor=none;fillColor=#0066CC;" parent="kXAHjIqiLY20bqVyl381-1" vertex="1">
          <mxGeometry x="3200" y="560" width="20" height="20" as="geometry"/>
        </mxCell>
        <mxCell id="kXAHjIqiLY20bqVyl381-236" value="" style="shape=ellipse;html=1;strokeColor=none;fillColor=#0066CC;" parent="kXAHjIqiLY20bqVyl381-1" vertex="1">
          <mxGeometry x="3200" y="720" width="20" height="20" as="geometry"/>
        </mxCell>
        <mxCell id="kXAHjIqiLY20bqVyl381-237" value="" style="rounded=0;whiteSpace=wrap;html=1;labelBackgroundColor=#FFFFFF;fillColor=none;gradientColor=none;fontSize=77;opacity=60;" parent="kXAHjIqiLY20bqVyl381-1" vertex="1">
          <mxGeometry x="3200" y="560" width="20" height="180" as="geometry"/>
        </mxCell>
        <mxCell id="kXAHjIqiLY20bqVyl381-238" value="" style="shape=ellipse;fillColor=#0066CC;strokeColor=none;html=1" parent="kXAHjIqiLY20bqVyl381-1" vertex="1">
          <mxGeometry x="3242.5" y="600" width="20" height="20" as="geometry"/>
        </mxCell>
        <mxCell id="kXAHjIqiLY20bqVyl381-239" value="" style="shape=ellipse;fillColor=#0066CC;strokeColor=none;html=1" parent="kXAHjIqiLY20bqVyl381-1" vertex="1">
          <mxGeometry x="3242.5" y="640" width="20" height="20" as="geometry"/>
        </mxCell>
        <mxCell id="kXAHjIqiLY20bqVyl381-240" value="" style="shape=ellipse;fillColor=#0066CC;strokeColor=none;html=1" parent="kXAHjIqiLY20bqVyl381-1" vertex="1">
          <mxGeometry x="3242.5" y="680" width="20" height="20" as="geometry"/>
        </mxCell>
        <mxCell id="kXAHjIqiLY20bqVyl381-241" value="" style="rounded=0;whiteSpace=wrap;html=1;labelBackgroundColor=#FFFFFF;fillColor=none;gradientColor=none;fontSize=77;opacity=60;" parent="kXAHjIqiLY20bqVyl381-1" vertex="1">
          <mxGeometry x="3242.5" y="600" width="20" height="100" as="geometry"/>
        </mxCell>
        <mxCell id="kXAHjIqiLY20bqVyl381-242" value="" style="edgeStyle=orthogonalEdgeStyle;rounded=0;orthogonalLoop=1;jettySize=auto;html=1;strokeWidth=10;exitX=1;exitY=0.5;exitDx=0;exitDy=0;" parent="kXAHjIqiLY20bqVyl381-1" source="kXAHjIqiLY20bqVyl381-229" edge="1">
          <mxGeometry relative="1" as="geometry">
            <mxPoint x="3420" y="650" as="targetPoint"/>
            <mxPoint x="3084.8333333333335" y="659.6666666666667" as="sourcePoint"/>
          </mxGeometry>
        </mxCell>
        <mxCell id="kXAHjIqiLY20bqVyl381-243" value="" style="rounded=0;whiteSpace=wrap;html=1;labelBackgroundColor=#FFFFFF;fillColor=none;gradientColor=none;fontSize=77;opacity=60;" parent="kXAHjIqiLY20bqVyl381-1" vertex="1">
          <mxGeometry x="3430" y="530" width="40" height="239" as="geometry"/>
        </mxCell>
        <mxCell id="kXAHjIqiLY20bqVyl381-244" value="" style="shape=ellipse;fillColor=#e1d5e7;strokeColor=#9673a6;html=1" parent="kXAHjIqiLY20bqVyl381-1" vertex="1">
          <mxGeometry x="3440" y="579.5" width="20" height="20" as="geometry"/>
        </mxCell>
        <mxCell id="kXAHjIqiLY20bqVyl381-245" value="" style="shape=ellipse;fillColor=#f8cecc;strokeColor=#b85450;html=1" parent="kXAHjIqiLY20bqVyl381-1" vertex="1">
          <mxGeometry x="3440" y="619.5" width="20" height="20" as="geometry"/>
        </mxCell>
        <mxCell id="kXAHjIqiLY20bqVyl381-246" value="" style="shape=ellipse;fillColor=#fff2cc;strokeColor=#d6b656;html=1" parent="kXAHjIqiLY20bqVyl381-1" vertex="1">
          <mxGeometry x="3440" y="659.5" width="20" height="20" as="geometry"/>
        </mxCell>
        <mxCell id="kXAHjIqiLY20bqVyl381-247" value="" style="shape=ellipse;html=1;strokeColor=#82b366;fillColor=#d5e8d4;" parent="kXAHjIqiLY20bqVyl381-1" vertex="1">
          <mxGeometry x="3440" y="539.5" width="20" height="20" as="geometry"/>
        </mxCell>
        <mxCell id="kXAHjIqiLY20bqVyl381-248" value="" style="shape=ellipse;html=1;strokeColor=#d79b00;fillColor=#ffe6cc;" parent="kXAHjIqiLY20bqVyl381-1" vertex="1">
          <mxGeometry x="3440" y="699.5" width="20" height="20" as="geometry"/>
        </mxCell>
        <mxCell id="kXAHjIqiLY20bqVyl381-249" value="" style="shape=ellipse;html=1;strokeColor=none;fillColor=#FF0000;" parent="kXAHjIqiLY20bqVyl381-1" vertex="1">
          <mxGeometry x="3440" y="740.5" width="20" height="20" as="geometry"/>
        </mxCell>
        <mxCell id="kXAHjIqiLY20bqVyl381-250" value="Result" style="text;html=1;strokeColor=none;fillColor=none;align=center;verticalAlign=middle;whiteSpace=wrap;rounded=0;labelBackgroundColor=#FFFFFF;fontSize=77;opacity=60;" parent="kXAHjIqiLY20bqVyl381-1" vertex="1">
          <mxGeometry x="3310" y="220" width="280" height="90" as="geometry"/>
        </mxCell>
        <mxCell id="kXAHjIqiLY20bqVyl381-321" value="" style="group;direction=west;" parent="kXAHjIqiLY20bqVyl381-1" vertex="1" connectable="0">
          <mxGeometry x="1440" y="545" width="555" height="210" as="geometry"/>
        </mxCell>
        <mxCell id="kXAHjIqiLY20bqVyl381-5" value="" style="rounded=1;whiteSpace=wrap;html=1;fillColor=#A7BCD1;strokeColor=#6c8ebf;opacity=60;" parent="kXAHjIqiLY20bqVyl381-321" vertex="1">
          <mxGeometry width="555" height="210" as="geometry"/>
        </mxCell>
        <mxCell id="kXAHjIqiLY20bqVyl381-48" value="" style="shape=ellipse;fillColor=#0066CC;strokeColor=none;html=1" parent="kXAHjIqiLY20bqVyl381-321" vertex="1">
          <mxGeometry x="27.5" y="50" width="20" height="20" as="geometry"/>
        </mxCell>
        <mxCell id="kXAHjIqiLY20bqVyl381-49" value="" style="shape=ellipse;fillColor=#0066CC;strokeColor=none;html=1" parent="kXAHjIqiLY20bqVyl381-321" vertex="1">
          <mxGeometry x="67.5" y="50" width="20" height="20" as="geometry"/>
        </mxCell>
        <mxCell id="kXAHjIqiLY20bqVyl381-50" value="" style="shape=ellipse;fillColor=#0066CC;strokeColor=none;html=1" parent="kXAHjIqiLY20bqVyl381-321" vertex="1">
          <mxGeometry x="107.5" y="50" width="20" height="20" as="geometry"/>
        </mxCell>
        <mxCell id="kXAHjIqiLY20bqVyl381-51" value="" style="shape=ellipse;fillColor=#0066CC;strokeColor=none;html=1" parent="kXAHjIqiLY20bqVyl381-321" vertex="1">
          <mxGeometry x="147.5" y="50" width="20" height="20" as="geometry"/>
        </mxCell>
        <mxCell id="kXAHjIqiLY20bqVyl381-52" value="" style="shape=ellipse;fillColor=#0066CC;strokeColor=none;html=1" parent="kXAHjIqiLY20bqVyl381-321" vertex="1">
          <mxGeometry x="187.5" y="50" width="20" height="20" as="geometry"/>
        </mxCell>
        <mxCell id="kXAHjIqiLY20bqVyl381-53" value="" style="shape=ellipse;fillColor=#0066CC;strokeColor=none;html=1" parent="kXAHjIqiLY20bqVyl381-321" vertex="1">
          <mxGeometry x="227.5" y="50" width="20" height="20" as="geometry"/>
        </mxCell>
        <mxCell id="kXAHjIqiLY20bqVyl381-54" value="" style="shape=ellipse;fillColor=#0066CC;strokeColor=none;html=1" parent="kXAHjIqiLY20bqVyl381-321" vertex="1">
          <mxGeometry x="27.5" y="90" width="20" height="20" as="geometry"/>
        </mxCell>
        <mxCell id="kXAHjIqiLY20bqVyl381-55" value="" style="shape=ellipse;fillColor=#0066CC;strokeColor=none;html=1" parent="kXAHjIqiLY20bqVyl381-321" vertex="1">
          <mxGeometry x="67.5" y="90" width="20" height="20" as="geometry"/>
        </mxCell>
        <mxCell id="kXAHjIqiLY20bqVyl381-56" value="" style="shape=ellipse;fillColor=#0066CC;strokeColor=none;html=1" parent="kXAHjIqiLY20bqVyl381-321" vertex="1">
          <mxGeometry x="107.5" y="90" width="20" height="20" as="geometry"/>
        </mxCell>
        <mxCell id="kXAHjIqiLY20bqVyl381-57" value="" style="shape=ellipse;fillColor=#0066CC;strokeColor=none;html=1" parent="kXAHjIqiLY20bqVyl381-321" vertex="1">
          <mxGeometry x="147.5" y="90" width="20" height="20" as="geometry"/>
        </mxCell>
        <mxCell id="kXAHjIqiLY20bqVyl381-58" value="" style="shape=ellipse;fillColor=#0066CC;strokeColor=none;html=1" parent="kXAHjIqiLY20bqVyl381-321" vertex="1">
          <mxGeometry x="187.5" y="90" width="20" height="20" as="geometry"/>
        </mxCell>
        <mxCell id="kXAHjIqiLY20bqVyl381-59" value="" style="shape=ellipse;fillColor=#0066CC;strokeColor=none;html=1" parent="kXAHjIqiLY20bqVyl381-321" vertex="1">
          <mxGeometry x="227.5" y="90" width="20" height="20" as="geometry"/>
        </mxCell>
        <mxCell id="kXAHjIqiLY20bqVyl381-60" value="" style="shape=ellipse;fillColor=#0066CC;strokeColor=none;html=1" parent="kXAHjIqiLY20bqVyl381-321" vertex="1">
          <mxGeometry x="27.5" y="130" width="20" height="20" as="geometry"/>
        </mxCell>
        <mxCell id="kXAHjIqiLY20bqVyl381-61" value="" style="shape=ellipse;fillColor=#0066CC;strokeColor=none;html=1" parent="kXAHjIqiLY20bqVyl381-321" vertex="1">
          <mxGeometry x="67.5" y="130" width="20" height="20" as="geometry"/>
        </mxCell>
        <mxCell id="kXAHjIqiLY20bqVyl381-62" value="" style="shape=ellipse;fillColor=#0066CC;strokeColor=none;html=1" parent="kXAHjIqiLY20bqVyl381-321" vertex="1">
          <mxGeometry x="107.5" y="130" width="20" height="20" as="geometry"/>
        </mxCell>
        <mxCell id="kXAHjIqiLY20bqVyl381-63" value="" style="shape=ellipse;fillColor=#0066CC;strokeColor=none;html=1" parent="kXAHjIqiLY20bqVyl381-321" vertex="1">
          <mxGeometry x="147.5" y="130" width="20" height="20" as="geometry"/>
        </mxCell>
        <mxCell id="kXAHjIqiLY20bqVyl381-64" value="" style="shape=ellipse;fillColor=#0066CC;strokeColor=none;html=1" parent="kXAHjIqiLY20bqVyl381-321" vertex="1">
          <mxGeometry x="187.5" y="130" width="20" height="20" as="geometry"/>
        </mxCell>
        <mxCell id="kXAHjIqiLY20bqVyl381-65" value="" style="shape=ellipse;fillColor=#0066CC;strokeColor=none;html=1" parent="kXAHjIqiLY20bqVyl381-321" vertex="1">
          <mxGeometry x="227.5" y="130" width="20" height="20" as="geometry"/>
        </mxCell>
        <mxCell id="kXAHjIqiLY20bqVyl381-66" value="" style="shape=ellipse;fillColor=#0066CC;strokeColor=none;html=1" parent="kXAHjIqiLY20bqVyl381-321" vertex="1">
          <mxGeometry x="267.5" y="50" width="20" height="20" as="geometry"/>
        </mxCell>
        <mxCell id="kXAHjIqiLY20bqVyl381-67" value="" style="shape=ellipse;fillColor=#0066CC;strokeColor=none;html=1" parent="kXAHjIqiLY20bqVyl381-321" vertex="1">
          <mxGeometry x="307.5" y="50" width="20" height="20" as="geometry"/>
        </mxCell>
        <mxCell id="kXAHjIqiLY20bqVyl381-68" value="" style="shape=ellipse;fillColor=#0066CC;strokeColor=none;html=1" parent="kXAHjIqiLY20bqVyl381-321" vertex="1">
          <mxGeometry x="347.5" y="50" width="20" height="20" as="geometry"/>
        </mxCell>
        <mxCell id="kXAHjIqiLY20bqVyl381-69" value="" style="shape=ellipse;fillColor=#0066CC;strokeColor=none;html=1" parent="kXAHjIqiLY20bqVyl381-321" vertex="1">
          <mxGeometry x="387.5" y="50" width="20" height="20" as="geometry"/>
        </mxCell>
        <mxCell id="kXAHjIqiLY20bqVyl381-70" value="" style="shape=ellipse;fillColor=#0066CC;strokeColor=none;html=1" parent="kXAHjIqiLY20bqVyl381-321" vertex="1">
          <mxGeometry x="427.5" y="50" width="20" height="20" as="geometry"/>
        </mxCell>
        <mxCell id="kXAHjIqiLY20bqVyl381-71" value="" style="shape=ellipse;fillColor=#0066CC;strokeColor=none;html=1" parent="kXAHjIqiLY20bqVyl381-321" vertex="1">
          <mxGeometry x="467.5" y="50" width="20" height="20" as="geometry"/>
        </mxCell>
        <mxCell id="kXAHjIqiLY20bqVyl381-72" value="" style="shape=ellipse;fillColor=#0066CC;strokeColor=none;html=1" parent="kXAHjIqiLY20bqVyl381-321" vertex="1">
          <mxGeometry x="267.5" y="90" width="20" height="20" as="geometry"/>
        </mxCell>
        <mxCell id="kXAHjIqiLY20bqVyl381-73" value="" style="shape=ellipse;fillColor=#0066CC;strokeColor=none;html=1" parent="kXAHjIqiLY20bqVyl381-321" vertex="1">
          <mxGeometry x="307.5" y="90" width="20" height="20" as="geometry"/>
        </mxCell>
        <mxCell id="kXAHjIqiLY20bqVyl381-74" value="" style="shape=ellipse;fillColor=#0066CC;strokeColor=none;html=1" parent="kXAHjIqiLY20bqVyl381-321" vertex="1">
          <mxGeometry x="347.5" y="90" width="20" height="20" as="geometry"/>
        </mxCell>
        <mxCell id="kXAHjIqiLY20bqVyl381-75" value="" style="shape=ellipse;fillColor=#0066CC;strokeColor=none;html=1" parent="kXAHjIqiLY20bqVyl381-321" vertex="1">
          <mxGeometry x="387.5" y="90" width="20" height="20" as="geometry"/>
        </mxCell>
        <mxCell id="kXAHjIqiLY20bqVyl381-76" value="" style="shape=ellipse;fillColor=#0066CC;strokeColor=none;html=1" parent="kXAHjIqiLY20bqVyl381-321" vertex="1">
          <mxGeometry x="427.5" y="90" width="20" height="20" as="geometry"/>
        </mxCell>
        <mxCell id="kXAHjIqiLY20bqVyl381-77" value="" style="shape=ellipse;fillColor=#0066CC;strokeColor=none;html=1" parent="kXAHjIqiLY20bqVyl381-321" vertex="1">
          <mxGeometry x="467.5" y="90" width="20" height="20" as="geometry"/>
        </mxCell>
        <mxCell id="kXAHjIqiLY20bqVyl381-78" value="" style="shape=ellipse;fillColor=#0066CC;strokeColor=none;html=1" parent="kXAHjIqiLY20bqVyl381-321" vertex="1">
          <mxGeometry x="267.5" y="130" width="20" height="20" as="geometry"/>
        </mxCell>
        <mxCell id="kXAHjIqiLY20bqVyl381-79" value="" style="shape=ellipse;fillColor=#0066CC;strokeColor=none;html=1" parent="kXAHjIqiLY20bqVyl381-321" vertex="1">
          <mxGeometry x="307.5" y="130" width="20" height="20" as="geometry"/>
        </mxCell>
        <mxCell id="kXAHjIqiLY20bqVyl381-80" value="" style="shape=ellipse;fillColor=#0066CC;strokeColor=none;html=1" parent="kXAHjIqiLY20bqVyl381-321" vertex="1">
          <mxGeometry x="347.5" y="130" width="20" height="20" as="geometry"/>
        </mxCell>
        <mxCell id="kXAHjIqiLY20bqVyl381-81" value="" style="shape=ellipse;fillColor=#0066CC;strokeColor=none;html=1" parent="kXAHjIqiLY20bqVyl381-321" vertex="1">
          <mxGeometry x="387.5" y="130" width="20" height="20" as="geometry"/>
        </mxCell>
        <mxCell id="kXAHjIqiLY20bqVyl381-82" value="" style="shape=ellipse;fillColor=#0066CC;strokeColor=none;html=1" parent="kXAHjIqiLY20bqVyl381-321" vertex="1">
          <mxGeometry x="427.5" y="130" width="20" height="20" as="geometry"/>
        </mxCell>
        <mxCell id="kXAHjIqiLY20bqVyl381-83" value="" style="shape=ellipse;fillColor=#0066CC;strokeColor=none;html=1" parent="kXAHjIqiLY20bqVyl381-321" vertex="1">
          <mxGeometry x="467.5" y="130" width="20" height="20" as="geometry"/>
        </mxCell>
        <mxCell id="kXAHjIqiLY20bqVyl381-84" value="" style="endArrow=classic;html=1;strokeWidth=3;fillColor=#d5e8d4;strokeColor=#00CC00;" parent="kXAHjIqiLY20bqVyl381-321" edge="1">
          <mxGeometry width="50" height="50" relative="1" as="geometry">
            <mxPoint x="517.5" y="50" as="sourcePoint"/>
            <mxPoint x="517.5" y="160" as="targetPoint"/>
          </mxGeometry>
        </mxCell>
        <mxCell id="kXAHjIqiLY20bqVyl381-85" value="temporal" style="text;html=1;align=center;verticalAlign=middle;resizable=0;points=[];;horizontal=0;rotation=-180;fontSize=21;rounded=1;strokeColor=#6c8ebf;fillColor=#A7BCD1;opacity=60;labelBackgroundColor=#67AB9F;labelBorderColor=none;" parent="kXAHjIqiLY20bqVyl381-84" vertex="1" connectable="0">
          <mxGeometry x="-0.3775" y="1" relative="1" as="geometry">
            <mxPoint y="15.52" as="offset"/>
          </mxGeometry>
        </mxCell>
        <mxCell id="kXAHjIqiLY20bqVyl381-86" value="" style="rounded=0;whiteSpace=wrap;html=1;labelBackgroundColor=none;fillColor=#f8cecc;fontSize=18;opacity=60;strokeColor=#b85450;" parent="kXAHjIqiLY20bqVyl381-321" vertex="1">
          <mxGeometry x="22.5" y="10" width="30" height="100" as="geometry"/>
        </mxCell>
        <mxCell id="kXAHjIqiLY20bqVyl381-87" value="" style="shape=ellipse;html=1" parent="kXAHjIqiLY20bqVyl381-321" vertex="1">
          <mxGeometry x="27.5" y="10" width="20" height="20" as="geometry"/>
        </mxCell>
        <mxCell id="kXAHjIqiLY20bqVyl381-88" value="" style="shape=ellipse;html=1" parent="kXAHjIqiLY20bqVyl381-321" vertex="1">
          <mxGeometry x="67.5" y="10" width="20" height="20" as="geometry"/>
        </mxCell>
        <mxCell id="kXAHjIqiLY20bqVyl381-89" value="" style="shape=ellipse;html=1" parent="kXAHjIqiLY20bqVyl381-321" vertex="1">
          <mxGeometry x="107.5" y="10" width="20" height="20" as="geometry"/>
        </mxCell>
        <mxCell id="kXAHjIqiLY20bqVyl381-90" value="" style="shape=ellipse;html=1" parent="kXAHjIqiLY20bqVyl381-321" vertex="1">
          <mxGeometry x="147.5" y="10" width="20" height="20" as="geometry"/>
        </mxCell>
        <mxCell id="kXAHjIqiLY20bqVyl381-91" value="" style="shape=ellipse;html=1" parent="kXAHjIqiLY20bqVyl381-321" vertex="1">
          <mxGeometry x="187.5" y="10" width="20" height="20" as="geometry"/>
        </mxCell>
        <mxCell id="kXAHjIqiLY20bqVyl381-92" value="" style="shape=ellipse;html=1" parent="kXAHjIqiLY20bqVyl381-321" vertex="1">
          <mxGeometry x="227.5" y="10" width="20" height="20" as="geometry"/>
        </mxCell>
        <mxCell id="kXAHjIqiLY20bqVyl381-93" value="" style="shape=ellipse;html=1" parent="kXAHjIqiLY20bqVyl381-321" vertex="1">
          <mxGeometry x="267.5" y="10" width="20" height="20" as="geometry"/>
        </mxCell>
        <mxCell id="kXAHjIqiLY20bqVyl381-94" value="" style="shape=ellipse;html=1" parent="kXAHjIqiLY20bqVyl381-321" vertex="1">
          <mxGeometry x="307.5" y="10" width="20" height="20" as="geometry"/>
        </mxCell>
        <mxCell id="kXAHjIqiLY20bqVyl381-95" value="" style="shape=ellipse;html=1" parent="kXAHjIqiLY20bqVyl381-321" vertex="1">
          <mxGeometry x="347.5" y="10" width="20" height="20" as="geometry"/>
        </mxCell>
        <mxCell id="kXAHjIqiLY20bqVyl381-96" value="" style="shape=ellipse;html=1" parent="kXAHjIqiLY20bqVyl381-321" vertex="1">
          <mxGeometry x="387.5" y="10" width="20" height="20" as="geometry"/>
        </mxCell>
        <mxCell id="kXAHjIqiLY20bqVyl381-97" value="" style="shape=ellipse;html=1" parent="kXAHjIqiLY20bqVyl381-321" vertex="1">
          <mxGeometry x="427.5" y="10" width="20" height="20" as="geometry"/>
        </mxCell>
        <mxCell id="kXAHjIqiLY20bqVyl381-98" value="" style="shape=ellipse;html=1" parent="kXAHjIqiLY20bqVyl381-321" vertex="1">
          <mxGeometry x="467.5" y="10" width="20" height="20" as="geometry"/>
        </mxCell>
        <mxCell id="kXAHjIqiLY20bqVyl381-99" value="" style="shape=ellipse;html=1" parent="kXAHjIqiLY20bqVyl381-321" vertex="1">
          <mxGeometry x="27.5" y="170" width="20" height="20" as="geometry"/>
        </mxCell>
        <mxCell id="kXAHjIqiLY20bqVyl381-100" value="" style="shape=ellipse;html=1" parent="kXAHjIqiLY20bqVyl381-321" vertex="1">
          <mxGeometry x="67.5" y="170" width="20" height="20" as="geometry"/>
        </mxCell>
        <mxCell id="kXAHjIqiLY20bqVyl381-101" value="" style="shape=ellipse;html=1" parent="kXAHjIqiLY20bqVyl381-321" vertex="1">
          <mxGeometry x="107.5" y="170" width="20" height="20" as="geometry"/>
        </mxCell>
        <mxCell id="kXAHjIqiLY20bqVyl381-102" value="" style="shape=ellipse;html=1" parent="kXAHjIqiLY20bqVyl381-321" vertex="1">
          <mxGeometry x="147.5" y="170" width="20" height="20" as="geometry"/>
        </mxCell>
        <mxCell id="kXAHjIqiLY20bqVyl381-103" value="" style="shape=ellipse;html=1" parent="kXAHjIqiLY20bqVyl381-321" vertex="1">
          <mxGeometry x="187.5" y="170" width="20" height="20" as="geometry"/>
        </mxCell>
        <mxCell id="kXAHjIqiLY20bqVyl381-104" value="" style="shape=ellipse;html=1" parent="kXAHjIqiLY20bqVyl381-321" vertex="1">
          <mxGeometry x="227.5" y="170" width="20" height="20" as="geometry"/>
        </mxCell>
        <mxCell id="kXAHjIqiLY20bqVyl381-105" value="" style="shape=ellipse;html=1" parent="kXAHjIqiLY20bqVyl381-321" vertex="1">
          <mxGeometry x="267.5" y="170" width="20" height="20" as="geometry"/>
        </mxCell>
        <mxCell id="kXAHjIqiLY20bqVyl381-106" value="" style="shape=ellipse;html=1" parent="kXAHjIqiLY20bqVyl381-321" vertex="1">
          <mxGeometry x="307.5" y="170" width="20" height="20" as="geometry"/>
        </mxCell>
        <mxCell id="kXAHjIqiLY20bqVyl381-107" value="" style="shape=ellipse;html=1" parent="kXAHjIqiLY20bqVyl381-321" vertex="1">
          <mxGeometry x="347.5" y="170" width="20" height="20" as="geometry"/>
        </mxCell>
        <mxCell id="kXAHjIqiLY20bqVyl381-108" value="" style="shape=ellipse;html=1" parent="kXAHjIqiLY20bqVyl381-321" vertex="1">
          <mxGeometry x="387.5" y="170" width="20" height="20" as="geometry"/>
        </mxCell>
        <mxCell id="kXAHjIqiLY20bqVyl381-109" value="" style="shape=ellipse;html=1" parent="kXAHjIqiLY20bqVyl381-321" vertex="1">
          <mxGeometry x="427.5" y="170" width="20" height="20" as="geometry"/>
        </mxCell>
        <mxCell id="kXAHjIqiLY20bqVyl381-110" value="" style="shape=ellipse;html=1" parent="kXAHjIqiLY20bqVyl381-321" vertex="1">
          <mxGeometry x="467.5" y="170" width="20" height="20" as="geometry"/>
        </mxCell>
        <mxCell id="kXAHjIqiLY20bqVyl381-111" value="" style="rounded=0;whiteSpace=wrap;html=1;labelBackgroundColor=none;fillColor=#f8cecc;fontSize=18;opacity=60;strokeColor=#b85450;" parent="kXAHjIqiLY20bqVyl381-321" vertex="1">
          <mxGeometry x="102.5" y="50" width="30" height="100" as="geometry"/>
        </mxCell>
        <mxCell id="kXAHjIqiLY20bqVyl381-112" value="" style="rounded=0;whiteSpace=wrap;html=1;labelBackgroundColor=none;fillColor=#f8cecc;fontSize=18;opacity=60;strokeColor=#b85450;" parent="kXAHjIqiLY20bqVyl381-321" vertex="1">
          <mxGeometry x="222.5" y="90" width="30" height="100" as="geometry"/>
        </mxCell>
        <mxCell id="kXAHjIqiLY20bqVyl381-113" value="Pad" style="text;html=1;strokeColor=none;fillColor=none;align=center;verticalAlign=middle;whiteSpace=wrap;rounded=0;labelBackgroundColor=none;fontSize=18;opacity=60;" parent="kXAHjIqiLY20bqVyl381-321" vertex="1">
          <mxGeometry x="497.5" y="10" width="40" height="20" as="geometry"/>
        </mxCell>
        <mxCell id="kXAHjIqiLY20bqVyl381-114" value="Pad" style="text;html=1;strokeColor=none;fillColor=none;align=center;verticalAlign=middle;whiteSpace=wrap;rounded=0;labelBackgroundColor=none;fontSize=18;opacity=60;" parent="kXAHjIqiLY20bqVyl381-321" vertex="1">
          <mxGeometry x="497.5" y="170" width="40" height="20" as="geometry"/>
        </mxCell>
      </root>
    </mxGraphModel>
  </diagram>
  <diagram id="68URH1XgHR49K7Hy7FBp" name="Page-3">
    <mxGraphModel dx="1924" dy="955" grid="1" gridSize="10" guides="1" tooltips="1" connect="1" arrows="1" fold="1" page="1" pageScale="1" pageWidth="827" pageHeight="1169" math="0" shadow="0">
      <root>
        <mxCell id="TZyR7aQKS68MjLFZWfEP-0"/>
        <mxCell id="TZyR7aQKS68MjLFZWfEP-1" parent="TZyR7aQKS68MjLFZWfEP-0"/>
      </root>
    </mxGraphModel>
  </diagram>
</mxfile>
